<svg width="133" height="270" viewBox="0 0 133 270" fill="none" xmlns="http://www.w3.org/2000/svg">
<path d="M127.631 153.717C126.193 154.169 124.591 154.867 122.988 155.771C122.166 156.264 121.345 156.798 120.564 157.374C119.742 157.99 118.92 158.689 118.14 159.469C116.578 161.031 115.387 162.798 114.277 164.523C113.743 165.386 113.25 166.29 112.839 167.112C112.675 167.4 112.593 167.687 112.428 167.975C113.579 162.263 114.401 156.511 114.976 150.676C115.14 150.676 115.264 150.676 115.469 150.635C116.373 150.512 117.647 150.265 119.044 149.813C120.482 149.361 122.043 148.663 123.563 147.677C125.084 146.69 126.645 145.334 127.919 143.609C129.151 141.883 130.055 139.87 130.713 137.856C131.042 136.87 131.288 135.843 131.493 134.857C131.658 133.87 131.822 132.925 131.904 132.021C131.987 131.117 132.069 130.296 132.11 129.515C132.11 128.693 132.11 127.954 132.069 127.378C132.028 126.187 131.945 125.447 131.945 125.447C131.945 125.447 130.055 125.858 127.59 127.214C126.357 127.871 125.043 128.816 123.646 129.926C122.249 131.035 120.893 132.432 119.66 134.158C119.044 135.021 118.551 135.925 118.058 136.829C117.565 137.774 117.113 138.678 116.743 139.623C116.373 140.568 116.044 141.472 115.757 142.376C115.674 142.705 115.592 143.033 115.469 143.362C115.551 141.719 115.716 140.075 115.757 138.431C115.88 135.514 115.921 132.597 115.921 129.72C115.921 128.406 115.88 127.132 115.798 125.817C116.578 125.57 117.811 125.159 119.331 124.379C120.523 123.721 121.92 122.817 123.153 121.544C124.344 120.27 125.495 118.667 126.316 116.654C126.727 115.627 127.138 114.558 127.302 113.49C127.508 112.422 127.59 111.312 127.672 110.203C127.754 109.093 127.713 108.025 127.672 106.957C127.631 105.888 127.426 104.902 127.302 103.957C126.974 102.067 126.604 100.465 126.275 99.314C126.111 98.7388 125.947 98.3279 125.823 97.9992C125.7 97.7116 125.659 97.5472 125.659 97.5472C125.659 97.5472 124.139 98.369 122.331 100.177C120.482 101.985 118.304 104.779 117.071 108.682C116.332 110.655 115.921 112.709 115.633 114.682C115.51 115.668 115.387 116.654 115.264 117.599C115.222 118.051 115.181 118.421 115.14 118.873C114.565 113.819 113.62 108.847 112.264 104.039C112.018 103.176 111.689 102.355 111.442 101.492C112.059 101.122 113.086 100.423 114.277 99.314C115.181 98.4101 116.126 97.2596 116.907 95.8214C117.729 94.3422 118.263 92.6164 118.468 90.562C118.551 89.5347 118.592 88.4664 118.468 87.3981C118.427 86.3297 118.222 85.2614 117.975 84.2342C117.729 83.2069 117.441 82.1797 117.154 81.2346C116.825 80.2896 116.537 79.3034 116.126 78.4816C114.606 75.1123 113.127 72.8112 113.127 72.8112C113.127 72.8112 111.935 73.7974 110.785 75.8108C110.21 76.7969 109.593 78.0296 109.141 79.5089C108.689 80.9881 108.402 82.6728 108.237 84.6861C108.155 85.6723 108.155 86.6995 108.237 87.6857C108.237 88.6718 108.443 89.658 108.525 90.6441C108.689 92.1234 108.895 93.5204 109.182 94.8353C107.005 89.206 104.416 83.7822 101.54 78.646C101.992 78.194 102.773 77.3722 103.512 76.0984C104.088 75.1123 104.622 73.8796 104.95 72.4003C105.238 70.9211 105.443 69.1543 105.115 67.223C104.786 65.2918 104.129 63.2784 103.266 61.4294C102.362 59.5804 101.294 57.8546 100.266 56.3754C99.2802 54.8551 98.253 53.7046 97.5134 52.8417C96.7738 51.9788 96.3218 51.4857 96.3218 51.4857C96.3218 51.4857 95.5 52.513 94.9248 54.4442C94.6372 55.4303 94.3907 56.6219 94.3496 58.0601C94.3496 59.4571 94.3496 61.1418 94.7194 63.0319C94.8837 63.977 95.1302 64.922 95.4179 65.8671C95.7055 66.8121 95.9931 67.7572 96.3218 68.7023C96.8149 70.1815 97.4312 71.4964 98.0064 72.7701C94.7194 67.5518 91.1447 62.6621 87.4056 58.0601C87.6932 57.6081 88.2274 56.7452 88.5972 55.4714C89.1724 53.5402 89.3779 50.7461 88.022 47.1713C87.2824 45.4455 86.2551 43.6787 85.0636 42.0351C84.4883 41.2133 83.8309 40.4326 83.2146 39.693C82.5572 38.9534 81.9409 38.2548 81.3245 37.6385C80.7082 37.0222 80.133 36.4058 79.5988 35.9127C79.0236 35.4197 78.5305 34.9677 78.1197 34.5979C77.2979 33.8583 76.7637 33.4474 76.7637 33.4474C76.7637 33.4474 76.2707 34.3924 76.1885 36.1593C76.1474 37.0632 76.1885 38.1316 76.4761 39.4054C76.7226 40.7202 77.1746 42.2405 77.9142 43.9252C78.284 44.7881 78.736 45.6099 79.1879 46.4728C79.6399 47.3357 80.133 48.1985 80.626 49.0203C81.1191 49.8421 81.6533 50.6639 82.1874 51.4446C82.5161 51.9788 82.8448 52.4719 83.1735 52.9649C81.7765 51.3624 80.3795 49.7599 78.9414 48.2807C76.1063 45.2401 73.189 42.446 70.2718 39.7341C70.4361 39.3232 70.7237 38.5425 70.7648 37.3098C70.847 35.5429 70.395 33.0365 68.3817 29.9137C67.3545 28.3933 65.9986 26.9141 64.6016 25.5171C63.9031 24.8185 63.1224 24.1611 62.4239 23.5448C61.6843 22.9284 60.9447 22.3532 60.2462 21.819C58.8903 20.7507 57.5754 19.9289 56.6715 19.3125C55.7265 18.7373 55.1923 18.3675 55.1923 18.3675C55.1923 18.3675 54.9869 19.1893 55.3156 20.6685C55.4799 21.4081 55.8087 22.3532 56.3428 23.4626C56.877 24.572 57.6165 25.8869 58.6848 27.3661C59.219 28.1057 59.7942 28.8453 60.4105 29.5849C61.0269 30.3245 61.6432 31.1052 62.2595 31.8038C62.8759 32.5434 63.5333 33.2419 64.1907 33.8993C64.7248 34.4746 65.2179 35.0088 65.711 35.5429C63.0813 33.2419 60.4927 31.0642 57.9042 29.0097C55.521 27.1196 53.179 25.3938 50.878 23.7502C50.9191 23.4215 51.0013 22.723 50.7548 21.6546C50.5904 20.915 50.2617 20.011 49.6454 18.9838C49.0291 17.9566 48.1662 16.7239 46.8514 15.5323C45.5365 14.2996 43.9752 13.0258 42.3317 11.9575C41.5099 11.4233 40.647 10.8891 39.8253 10.3961C39.0035 9.903 38.1817 9.45101 37.401 9.0812C35.8397 8.25941 34.4838 7.56089 33.4566 7.14999C32.4294 6.73909 31.8541 6.45147 31.8541 6.45147C31.8541 6.45147 31.8541 7.02672 32.6348 8.17723C33.0046 8.75249 33.5798 9.45101 34.3194 10.3139C35.1001 11.1768 36.1273 12.204 37.4421 13.3545C38.0995 13.9709 38.7981 14.5872 39.5376 15.1625C40.3183 15.7788 41.0579 16.3952 41.7975 17.0115C43.2767 18.2442 44.8381 19.3947 46.1529 20.463C40.1951 16.4362 34.5249 13.0669 29.471 10.4372C29.471 10.1906 29.3066 9.65646 28.7725 8.83467C28.4027 8.25941 27.8274 7.60198 26.9646 6.86236C26.1017 6.12275 24.9513 5.25987 23.3488 4.39698C22.527 3.98609 21.7053 3.5341 20.8013 3.16429C19.8974 2.79449 18.9524 2.42468 18.0073 2.09596C17.0623 1.76725 16.0762 1.47962 15.1311 1.23308C14.1861 0.945454 13.2411 0.781095 12.3371 0.616737C11.8852 0.534558 11.4743 0.452378 11.0223 0.370199C10.5703 0.329109 10.1594 0.28802 9.78964 0.24693C9.00896 0.164751 8.35155 0.0825716 7.69414 0.123661C6.50257 0.123661 5.76298 0.164751 5.76298 0.164751C5.76298 0.164751 6.09169 0.370199 7.40652 0.740006C8.06393 0.863275 8.88569 1.19199 9.99508 1.5618C10.2827 1.64398 10.5703 1.76725 10.8579 1.84943C11.1867 1.97269 11.5154 2.09596 11.803 2.21923C12.4604 2.50686 13.2411 2.7534 14.0628 3.08212C14.9257 3.45192 15.7885 3.82173 16.6103 4.19154C17.5143 4.60243 18.3771 5.01333 19.24 5.42422C20.1439 5.83512 21.0068 6.24602 21.8285 6.698C22.6503 7.1089 23.4721 7.5198 24.2528 7.8896C24.4993 8.01287 24.6636 8.09505 24.9102 8.21832C23.7186 7.64306 22.527 7.14999 21.4587 6.65691C16.6925 4.60243 12.748 3.36974 9.99508 2.83558C8.63916 2.54795 7.57088 2.46577 6.83128 2.38359C6.09169 2.38359 5.7219 2.38359 5.7219 2.38359C5.7219 2.38359 6.09169 2.38359 6.83128 2.42468C7.52979 2.50686 8.59807 2.58904 9.99508 2.91776C12.7069 3.49301 16.6514 4.7257 21.4177 6.82127C22.6503 7.35544 23.9651 7.97178 25.3211 8.62922C24.9513 8.46486 24.6226 8.3005 24.2117 8.13614C23.431 7.80742 22.5681 7.47871 21.7053 7.14999C20.8424 6.82127 19.9385 6.45147 19.0345 6.20493C18.0895 5.9173 17.1856 5.58858 16.2816 5.34205C15.4188 5.1366 14.5148 4.93115 13.652 4.68461C12.7891 4.47916 12.0084 4.39698 11.351 4.3148C11.0223 4.27371 10.6936 4.23263 10.3649 4.19154C10.0773 4.19154 9.78964 4.19154 9.50202 4.19154C8.43372 4.19154 7.65305 4.15045 7.1189 4.27371C6.0506 4.43807 5.80407 4.60243 5.80407 4.60243C5.80407 4.60243 6.33822 4.7257 7.24216 4.89006C7.69413 4.93115 8.26938 5.1366 8.8857 5.30096C9.21441 5.38313 9.54311 5.46531 9.87182 5.58858C10.2005 5.71185 10.5703 5.83512 10.9401 5.95839C11.6797 6.24602 12.5015 6.45147 13.3232 6.82127C14.145 7.14999 15.0079 7.47871 15.8707 7.80742C16.7336 8.17723 17.5964 8.50595 18.4593 8.83467C19.3221 9.12229 20.1439 9.4921 20.9657 9.77973C22.5681 10.3139 23.924 10.6837 25.0334 10.8891C26.1428 11.0946 27.0057 11.1357 27.7042 11.1357C28.6903 11.1357 29.2655 10.9302 29.471 10.807C34.4427 13.4367 39.9485 16.765 45.7831 20.7917C44.3861 19.9289 42.7836 19.1071 41.1401 18.2442C40.2772 17.7922 39.3733 17.4224 38.5104 17.0115C37.6476 16.6417 36.7847 16.2719 35.963 15.9843C34.3194 15.3679 32.9224 15.0392 31.813 14.8338C30.7036 14.5872 29.7997 14.5461 29.1423 14.5461C27.8274 14.5461 27.3344 14.8748 27.3344 14.8748C27.3344 14.8748 29.3477 16.1897 32.1417 17.9977C32.8402 18.4496 33.5798 18.9016 34.3605 19.3947C35.1412 19.8878 35.9219 20.3398 36.7436 20.8328C37.5654 21.2848 38.3872 21.7368 39.1679 22.1888C39.9896 22.5997 40.8114 23.0106 41.5921 23.3393C43.1945 23.9967 44.5504 24.4487 45.742 24.6131C46.9336 24.8185 47.9197 24.8596 48.7004 24.7774C49.7687 24.6953 50.4261 24.4487 50.7548 24.3255C53.0557 26.0101 55.3567 27.777 57.6987 29.6671C60.164 31.6805 62.6704 33.8172 65.1768 36.036C64.6837 35.6662 64.1907 35.2964 63.6155 34.8855C62.8348 34.3513 62.013 33.8583 61.1912 33.3652C60.3695 32.8721 59.5066 32.379 58.6848 31.927C57.822 31.4751 56.9591 31.1053 56.1374 30.7354C54.4527 30.078 53.0557 29.626 51.8231 29.4617C50.5904 29.2562 49.6454 29.2151 48.8647 29.2973C47.3444 29.4206 46.6459 29.8315 46.6459 29.8315C46.6459 29.8315 47.0979 30.2424 47.8786 30.8998C48.6182 31.5572 49.7687 32.4612 51.0013 33.4884C51.6587 34.0226 52.3161 34.5568 53.0146 35.0909C53.7131 35.6251 54.5349 36.1593 55.2745 36.6934C56.0141 37.2276 56.7948 37.7207 57.6165 38.2138C58.3972 38.7068 59.219 39.1177 60.0407 39.4875C63.2046 41.0079 65.8342 41.1722 67.601 41.0079C68.7926 40.8846 69.6143 40.638 70.0252 40.4326C72.9014 43.1445 75.7365 46.0208 78.5716 49.0614C79.9686 50.5817 81.3245 52.1431 82.6805 53.7456C82.2696 53.3347 81.8587 52.9649 81.4067 52.554C80.6671 51.9788 79.9275 51.3624 79.1469 50.7872C78.3662 50.2119 77.5444 49.6367 76.7226 49.1436C75.9009 48.6094 75.038 48.1985 74.2162 47.7876C72.5316 47.0069 71.0525 46.555 69.7787 46.3495C68.4639 46.1441 67.3545 46.103 66.4916 46.1851C64.7248 46.3495 63.7798 46.8837 63.7798 46.8837C63.7798 46.8837 64.1907 47.3357 64.8481 48.0753C65.1768 48.4451 65.5877 48.856 66.0807 49.3491C66.5327 49.8421 67.0669 50.3763 67.6421 50.9515C68.2174 51.5268 68.8337 52.1021 69.4911 52.6773C70.1485 53.2526 70.847 53.8278 71.5455 54.4442C72.9425 55.6358 74.5039 56.7041 76.1063 57.5259C79.229 59.2106 82.0641 59.4982 84.1186 59.3338C85.4334 59.2517 86.3784 59.0051 86.9126 58.8408C90.6105 63.4839 94.1441 68.4146 97.3901 73.633C96.4862 72.5647 95.459 71.4553 94.3085 70.3869C93.61 69.7295 92.8704 69.0721 92.0897 68.4968C91.309 67.9216 90.4873 67.3874 89.6655 66.9354C88.022 66.0314 86.5017 65.4562 85.1047 65.1686C83.7077 64.8809 82.5161 64.8398 81.4889 64.8809C79.4756 65.0042 78.284 65.5384 78.284 65.5384C78.284 65.5384 78.6127 66.0314 79.1469 66.8121C79.681 67.5928 80.5439 68.6612 81.4889 69.8939C82.4339 71.1266 83.5844 72.4414 84.8992 73.7152C86.173 74.989 87.57 76.2217 89.1313 77.1667C89.912 77.6187 90.6927 78.0296 91.3912 78.3583C92.1308 78.687 92.8704 78.9336 93.61 79.139C95.0481 79.5089 96.3629 79.6732 97.5545 79.6732C98.7049 79.6732 99.6911 79.591 100.348 79.5089C100.513 79.5089 100.595 79.4678 100.759 79.4267C103.553 84.5629 106.101 89.9456 108.155 95.5338C107.457 94.3833 106.717 93.2328 105.854 92.0823C105.279 91.3016 104.539 90.603 103.841 89.9045C103.142 89.206 102.403 88.5897 101.622 88.0144C100.102 86.8639 98.4995 86.2065 97.0203 85.7545C95.5822 85.3025 94.2674 85.1381 93.1169 85.1381C90.8571 85.0559 89.419 85.549 89.419 85.549C89.419 85.549 90.2407 87.6446 91.8021 90.1922C92.213 90.8496 92.5828 91.5481 93.0347 92.2055C93.4867 92.9041 93.9798 93.6026 94.5139 94.3011C95.0481 94.9996 95.6644 95.6571 96.2396 96.3145C96.856 96.9719 97.5134 97.5883 98.2119 98.1635C99.6911 99.273 101.211 100.095 102.649 100.67C104.088 101.245 105.526 101.615 106.758 101.821C108.32 102.067 109.552 102.108 110.292 102.108C110.538 102.971 110.867 103.793 111.073 104.656C112.346 109.34 113.168 114.147 113.743 118.996C113.661 118.708 113.579 118.421 113.456 118.133C113.168 117.27 112.798 116.366 112.305 115.503C111.401 113.778 110.251 112.093 108.936 110.696C106.019 107.943 102.896 106.833 100.472 106.423C98.0064 106.012 96.2396 106.258 96.2396 106.258C96.2396 106.258 96.2396 106.381 96.3218 106.628C96.3629 106.875 96.4862 107.203 96.6094 107.655C96.8149 108.518 97.1025 109.71 97.5956 111.066C97.801 111.723 98.1708 112.463 98.4584 113.202C98.746 113.942 99.0747 114.682 99.4445 115.462C99.8554 116.202 100.307 116.983 100.8 117.722C101.335 118.462 101.828 119.16 102.444 119.859C103.636 121.215 105.074 122.324 106.512 123.187C107.95 124.05 109.306 124.707 110.579 125.201C112.182 125.817 113.497 126.104 114.277 126.269C114.319 127.543 114.36 128.816 114.36 130.09C114.36 133.008 114.277 135.843 114.113 138.76C114.031 140.28 113.908 141.842 113.784 143.362C113.784 143.116 113.743 142.91 113.702 142.664C113.538 141.719 113.291 140.815 113.004 139.828C112.716 138.883 112.387 137.938 111.977 136.993C111.566 136.048 111.031 135.185 110.456 134.322C109.306 132.638 107.95 131.323 106.594 130.255C105.238 129.227 103.759 128.57 102.526 128.118C100.02 127.173 98.0886 127.008 98.0886 127.008C98.0886 127.008 98.0886 127.502 98.0886 128.364C98.0886 128.775 98.1297 129.309 98.2119 129.885C98.2119 130.501 98.253 131.241 98.3352 132.021C98.4173 132.802 98.4995 133.624 98.6638 134.446C98.8282 135.309 99.0336 136.171 99.2802 137.075C99.7732 138.842 100.472 140.65 101.54 142.294C102.567 143.979 103.841 145.334 105.238 146.485C106.594 147.635 108.032 148.539 109.347 149.197C110.908 150.019 112.223 150.512 113.086 150.799C112.47 156.47 111.566 162.099 110.415 167.646C110.415 167.4 110.415 167.194 110.415 166.989C110.333 166.044 110.21 165.099 110.045 164.112C109.881 163.126 109.593 162.14 109.224 161.195C108.895 160.209 108.443 159.264 107.95 158.36C107.457 157.456 106.882 156.634 106.224 155.894C105.608 155.155 104.909 154.497 104.211 153.881C102.855 152.689 101.417 151.786 100.143 151.128C97.5955 149.772 95.5 149.32 95.5 149.32C95.5 149.32 95.3768 149.854 95.2124 150.799C95.0892 151.744 94.9248 153.018 94.9248 154.539C94.8426 156.059 94.9248 157.744 95.2124 159.51C95.3768 160.414 95.5411 161.318 95.8288 162.222C96.1164 163.126 96.4862 164.03 96.9381 164.893C97.9243 166.66 99.1569 168.221 100.513 169.536C101.869 170.851 103.348 171.961 104.745 172.865C106.388 173.933 107.827 174.631 108.731 175.042C107.292 180.589 105.567 186.054 103.553 191.314C103.553 191.067 103.594 190.862 103.636 190.656C103.636 189.711 103.636 188.725 103.594 187.739C103.553 186.753 103.348 185.684 103.101 184.657C102.814 183.63 102.485 182.603 102.033 181.617C101.17 179.644 99.8554 177.96 98.4584 176.563C97.0614 175.166 95.6233 174.056 94.2674 173.193C92.9115 172.33 91.6788 171.673 90.7749 171.262C89.8709 170.851 89.2957 170.646 89.2957 170.646C89.2957 170.646 89.0902 171.139 88.8026 172.002C88.515 172.865 88.1863 174.097 88.022 175.535C87.9398 176.275 87.8165 177.015 87.7754 177.836C87.7343 178.658 87.7754 179.521 87.8165 180.425C87.8987 181.329 88.0219 182.233 88.2274 183.137C88.4328 184.082 88.7615 185.027 89.1724 185.972C90.0764 187.903 91.2268 189.629 92.5417 191.232C93.8565 192.793 95.3357 194.19 96.6916 195.341C98.2941 196.697 99.6911 197.683 100.636 198.258C99.7732 200.23 98.8693 202.202 97.8832 204.093C96.3218 207.174 94.555 210.133 92.7471 213.009C92.7471 212.886 92.8293 212.804 92.8293 212.721C93.0347 211.776 93.1991 210.831 93.3224 209.804C93.4045 208.777 93.4456 207.75 93.3224 206.681C93.1991 205.613 92.9937 204.545 92.6649 203.476C92.3362 202.408 91.8843 201.381 91.3912 200.436C90.8571 199.491 90.2407 198.587 89.6244 197.724C88.3507 196.08 86.9126 194.683 85.5977 193.533C82.927 191.273 80.626 190.081 80.626 190.081C80.626 190.081 79.5988 191.848 79.0647 194.683C78.736 196.039 78.4894 197.683 78.5305 199.491C78.5305 200.395 78.5716 201.299 78.736 202.285C78.8593 203.271 79.1058 204.298 79.4345 205.325C80.0508 207.421 80.9547 209.352 81.982 211.16C83.0503 212.968 84.2007 214.612 85.3101 216.009C86.5428 217.57 87.6522 218.762 88.3918 219.501C85.7621 223.076 83.0092 226.528 80.0919 229.609C79.3934 230.349 78.6538 231.006 77.9553 231.705C78.3251 231.006 78.6538 230.226 78.9414 229.445C79.2701 228.5 79.5167 227.473 79.7221 226.445C79.8865 225.418 79.9275 224.309 79.8454 223.199C79.681 220.98 79.0647 218.926 78.1607 217.077C77.2568 215.187 76.1474 213.543 75.038 212.187C72.8603 209.475 70.847 207.832 70.847 207.832C70.847 207.832 70.5594 208.243 70.1896 208.982C69.9841 209.352 69.7787 209.804 69.5733 210.379C69.3678 210.914 69.0802 211.489 68.8748 212.187C68.6282 212.845 68.4228 213.584 68.2173 214.406C68.1352 214.817 68.053 215.228 67.9297 215.639C67.8476 216.05 67.7243 216.461 67.6421 216.913C67.4778 217.775 67.3545 218.721 67.3134 219.748C67.3134 220.241 67.3134 220.734 67.3134 221.268C67.3134 221.761 67.3134 222.295 67.3134 222.83C67.3956 224.925 67.7654 227.021 68.2584 228.911C68.7515 230.801 69.3267 232.527 69.9431 234.006C70.5594 235.526 71.1757 236.718 71.6688 237.581C67.6421 240.95 63.4922 243.908 59.3012 246.415C59.6299 246.045 59.9586 245.716 60.2462 245.347C60.8625 244.566 61.3967 243.662 61.8486 242.758C62.3006 241.854 62.6704 240.868 62.958 239.882C63.4922 237.827 63.4511 235.773 63.2046 233.924C62.9169 232.034 62.4239 230.39 61.7665 228.87C60.4927 225.911 59.1368 224.062 59.1368 224.062C59.1368 224.062 58.8081 224.432 58.2739 225.131C58.0274 225.5 57.6987 225.87 57.37 226.363C57.0413 226.856 56.6715 227.39 56.2606 228.007C55.8908 228.623 55.4799 229.322 55.0691 230.02C54.6582 230.719 54.2473 231.499 53.8775 232.321C53.4666 233.143 53.1379 234.088 52.7681 234.951C52.3983 235.855 52.0696 236.8 51.782 237.786C51.4944 238.772 51.2889 239.758 51.0835 240.704C50.9191 241.607 50.7548 242.511 50.6726 243.374C50.4672 245.1 50.4672 246.703 50.5493 248.059C50.5904 249.209 50.7137 250.154 50.878 250.894C46.6048 252.907 42.4138 254.51 38.3872 255.783C39.0446 255.372 39.6609 254.921 40.2361 254.345C40.9757 253.647 41.6332 252.907 42.2495 252.126C42.8247 251.346 43.3178 250.524 43.6876 249.702C44.0574 248.88 44.3039 248.017 44.5093 247.196C44.8791 245.552 44.9613 244.032 44.8791 242.676C44.7148 240.005 44.0985 238.238 44.0985 238.238C44.0985 238.238 43.6465 238.526 42.948 239.142C42.6193 239.43 42.1673 239.8 41.7153 240.21C41.2223 240.621 40.7292 241.155 40.154 241.69C39.0035 242.717 37.7298 243.95 36.456 245.388C35.7986 246.045 35.1412 246.744 34.4838 247.483C33.8264 248.223 33.1689 248.963 32.5937 249.784C31.4021 251.346 30.416 252.702 29.6764 253.975C28.9368 255.249 28.4027 256.359 28.0329 257.345C27.8275 257.797 27.7042 258.249 27.5809 258.619C27.2111 258.701 26.8413 258.783 26.4715 258.865C23.431 259.481 20.5959 259.851 18.0484 260.18C17.843 260.18 17.6375 260.221 17.4321 260.262C17.8841 260.057 18.3771 259.851 18.788 259.646C20.3905 258.742 21.6231 257.756 22.486 256.646C23.3488 255.578 23.9241 254.51 24.3349 253.565C25.0745 251.674 25.0745 250.401 25.0745 250.401C25.0745 250.401 24.5404 250.647 23.6775 251.14C23.2255 251.387 22.6914 251.716 22.0751 252.044C21.4588 252.373 20.8013 252.825 20.0617 253.195C19.3221 253.565 18.5415 254.058 17.6786 254.51C16.8569 254.962 16.0351 255.455 15.1311 255.989C13.4054 256.975 11.5975 257.92 9.954 258.865C9.54311 259.071 9.17331 259.317 8.76243 259.523C8.39263 259.687 8.02284 259.892 7.69414 260.057C7.07781 260.385 6.46147 260.673 5.88624 260.961C5.76297 261.002 5.6808 261.043 5.59862 261.084C4.53032 261.084 3.62638 261.084 3.05114 261.084C2.35264 261.084 1.98285 261.084 1.98285 261.084H1.90067C0.873463 261.084 0.0927734 261.906 0.0927734 262.892C0.0927734 263.878 0.955633 264.659 1.94175 264.659C1.94175 264.659 2.31155 264.659 3.05114 264.659C3.66747 264.659 4.65359 264.659 5.84516 264.618C5.88624 264.618 5.96842 264.659 6.00951 264.7C7.15999 265.152 8.59807 265.85 10.4471 266.467C11.351 266.795 12.3782 267.124 13.3643 267.453C14.3916 267.782 15.4188 268.151 16.4871 268.439C17.5553 268.686 18.6237 268.932 19.6509 269.179C20.6781 269.384 21.7053 269.631 22.6503 269.795C23.5953 270 24.4993 270.083 25.3211 270.165C26.1428 270.247 26.8413 270.329 27.4576 270.37C28.6492 270.493 29.3888 270.493 29.3888 270.493C29.3888 270.493 28.7725 269.302 27.2111 267.864C26.4304 267.124 25.4032 266.385 24.1295 265.686C22.8558 265.029 21.2944 264.33 19.4043 263.878C18.9524 263.755 18.5415 263.714 18.0895 263.632C18.2539 263.632 18.4182 263.632 18.5415 263.59C21.1711 263.262 24.0473 262.81 27.2111 262.152C27.5809 262.07 27.9918 261.988 28.3616 261.906C28.6492 262.193 28.9368 262.522 29.3477 262.892C30.1284 263.549 31.1556 264.33 32.5526 265.07C33.9496 265.809 35.6753 266.631 37.853 267.206C39.9896 267.74 42.4138 268.11 44.7559 268.275C47.0979 268.357 49.4399 268.275 51.4533 268.11C51.6587 268.11 51.8231 268.028 52.0285 268.028C53.7132 267.165 55.3567 266.22 57.0002 265.316C56.4661 264.782 55.8087 264.207 54.9458 263.549C53.7953 262.686 52.3983 261.782 50.7548 261.043C49.933 260.673 49.0702 260.344 48.1251 260.057C47.1801 259.728 46.194 259.481 45.1257 259.276C44.0574 259.071 43.0302 258.988 41.9619 258.947C41.099 258.947 40.2361 258.947 39.4144 258.947C43.5643 257.591 47.8786 255.907 52.3161 253.77C52.8503 254.304 53.5899 255.003 54.576 255.742C55.6854 256.564 57.1235 257.427 58.8903 258.126C59.7942 258.495 60.7393 258.824 61.8076 259.112C62.8759 259.399 63.9852 259.564 65.2179 259.646C65.5466 259.646 65.8753 259.646 66.2451 259.646C70.6416 256.687 74.8737 253.482 78.9003 250.072C77.832 249.661 76.7226 249.25 75.5311 248.921C73.5177 248.346 71.3401 248.059 69.0391 248.017C67.8886 248.017 66.7382 248.017 65.6288 248.182C64.5194 248.305 63.4922 248.552 62.4239 248.757C61.8897 248.839 61.4378 249.004 60.9036 249.127C65.1768 246.497 69.45 243.415 73.5588 239.882C74.3806 240.457 75.5722 241.197 77.1335 241.936C78.6127 242.635 80.4617 243.333 82.5572 243.785C83.4611 243.95 84.4883 244.073 85.5156 244.155C89.9942 239.882 94.2674 235.403 98.2119 230.595C97.4723 230.472 96.6916 230.39 95.9109 230.349C93.6921 230.185 91.2679 230.226 88.9259 230.678C87.7343 230.883 86.666 231.212 85.5156 231.541C84.4062 231.869 83.379 232.28 82.3929 232.732C81.4889 233.143 80.6671 233.595 79.8454 234.006C80.626 233.225 81.4067 232.486 82.1874 231.664C85.1458 228.459 87.9398 224.925 90.5694 221.227C91.5556 221.679 93.1169 222.254 95.2124 222.788C96.9381 223.199 98.9926 223.528 101.252 223.569C102.074 223.569 102.937 223.487 103.8 223.405C107.58 218.227 111.031 212.804 114.113 207.133C112.963 207.133 111.73 207.215 110.497 207.38C109.388 207.544 108.279 207.75 107.169 208.037C106.019 208.325 104.868 208.654 103.759 209.106C102.608 209.558 101.581 210.051 100.595 210.626C99.65 211.201 98.6638 211.776 97.801 212.434C96.9381 213.05 96.1164 213.708 95.3768 214.365C95.2124 214.488 95.1302 214.612 94.9659 214.735C96.8149 211.735 98.5817 208.612 100.225 205.366C101.211 203.435 102.074 201.422 102.937 199.408C104.005 199.655 105.772 199.943 107.95 200.066C109.758 200.148 111.812 200.066 113.949 199.655C115.551 199.367 117.154 198.751 118.715 198.011C121.262 192.423 123.522 186.712 125.412 180.754C125.125 180.754 124.878 180.795 124.591 180.836C122.947 181.082 121.057 181.493 119.126 182.151C117.154 182.808 115.222 183.753 113.25 185.027C112.264 185.684 111.36 186.383 110.538 187.123C109.717 187.862 108.977 188.643 108.237 189.424C107.498 190.204 106.84 190.985 106.265 191.766C106.06 192.012 105.936 192.259 105.731 192.546C107.744 187.123 109.47 181.534 110.908 175.823C111.894 175.823 113.538 175.823 115.551 175.576C117.195 175.33 119.044 174.919 120.893 174.138C122.742 173.358 124.632 172.248 126.193 170.687C127.015 169.906 127.713 169.002 128.33 168.098C128.658 167.605 128.905 167.071 129.193 166.578C130.096 162.263 130.795 157.867 131.329 153.429C130.425 153.593 129.193 153.84 127.713 154.333L127.631 153.717Z" fill="url(#paint0_linear_545_1340)"/>
<defs>
<linearGradient id="paint0_linear_545_1340" x1="0.051685" y1="134.98" x2="132.151" y2="134.98" gradientUnits="userSpaceOnUse">
<stop stop-color="#965B00"/>
<stop offset="0.01" stop-color="#9A6002"/>
<stop offset="0.12" stop-color="#C5901A"/>
<stop offset="0.22" stop-color="#E5B32C"/>
<stop offset="0.3" stop-color="#F8C937"/>
<stop offset="0.35" stop-color="#FFD13B"/>
<stop offset="0.43" stop-color="#F6C735"/>
<stop offset="0.55" stop-color="#E1AD28"/>
<stop offset="0.71" stop-color="#BE8412"/>
<stop offset="0.82" stop-color="#A16100"/>
<stop offset="0.98" stop-color="#F6BC4C"/>
<stop offset="1" stop-color="#FFC654"/>
</linearGradient>
</defs>
</svg>
