<svg width="95" height="193" viewBox="0 0 95 193" fill="none" xmlns="http://www.w3.org/2000/svg">
<path d="M91.746 109.984C90.7212 110.307 89.5794 110.805 88.4376 111.451C87.852 111.803 87.2664 112.184 86.7102 112.595C86.1246 113.035 85.5391 113.533 84.9828 114.091C83.8702 115.205 83.0211 116.467 82.2306 117.699C81.85 118.315 81.4987 118.96 81.2059 119.547C81.0888 119.752 81.0303 119.958 80.9131 120.163C81.7329 116.086 82.3185 111.979 82.7284 107.813C82.8455 107.813 82.9333 107.813 83.0797 107.784C83.7238 107.696 84.6314 107.52 85.6269 107.197C86.6516 106.875 87.7642 106.376 88.8475 105.672C89.9307 104.968 91.0433 104 91.9509 102.768C92.8293 101.536 93.4734 100.098 93.9418 98.6611C94.176 97.9571 94.3517 97.2237 94.4981 96.5197C94.6152 95.8157 94.7323 95.141 94.7909 94.4957C94.8494 93.8503 94.908 93.2636 94.9373 92.7063C94.9373 92.1196 94.9373 91.5916 94.908 91.1809C94.8787 90.3302 94.8202 89.8022 94.8202 89.8022C94.8202 89.8022 93.4734 90.0955 91.7167 91.0636C90.8383 91.5329 89.9015 92.2076 88.906 92.9996C87.9106 93.7916 86.9444 94.789 86.066 96.021C85.6269 96.637 85.2755 97.2824 84.9242 97.9277C84.5729 98.6024 84.2508 99.2478 83.9873 99.9224C83.7238 100.597 83.4896 101.242 83.2846 101.888C83.2261 102.123 83.1675 102.357 83.0797 102.592C83.1383 101.418 83.2554 100.245 83.2846 99.0718C83.3725 96.989 83.4018 94.9063 83.4018 92.8529C83.4018 91.9143 83.3725 91.0049 83.3139 90.0662C83.8702 89.8902 84.7486 89.5969 85.8318 89.0395C86.6809 88.5702 87.6763 87.9248 88.5547 87.0155C89.4037 86.1061 90.2235 84.9621 90.8091 83.5247C91.1019 82.7914 91.3946 82.0287 91.5117 81.266C91.6581 80.5033 91.7167 79.7113 91.7753 78.9193C91.8338 78.1273 91.8045 77.3646 91.7753 76.6019C91.746 75.8392 91.5996 75.1352 91.5117 74.4605C91.2775 73.1111 91.014 71.9671 90.7798 71.1457C90.6627 70.7351 90.5456 70.4417 90.4577 70.2071C90.3699 70.0017 90.3406 69.8844 90.3406 69.8844C90.3406 69.8844 89.2573 70.4711 87.9691 71.7618C86.6516 73.0525 85.0999 75.0472 84.2215 77.8339C83.6945 79.2419 83.4018 80.7086 83.1968 82.1167C83.109 82.8207 83.0211 83.5247 82.9333 84.1994C82.904 84.5221 82.8747 84.7861 82.8455 85.1088C82.4356 81.5007 81.7622 77.9512 80.796 74.5192C80.6204 73.9031 80.3861 73.3165 80.2104 72.7005C80.6496 72.4364 81.3816 71.9378 82.2306 71.1457C82.8748 70.5004 83.5481 69.679 84.1044 68.6524C84.69 67.5963 85.0706 66.3643 85.217 64.8976C85.2756 64.1642 85.3048 63.4016 85.217 62.6389C85.1877 61.8762 85.0413 61.1135 84.8657 60.3802C84.69 59.6468 84.485 58.9135 84.2801 58.2388C84.0459 57.5641 83.8409 56.8601 83.5481 56.2734C82.4649 53.868 81.4109 52.2253 81.4109 52.2253C81.4109 52.2253 80.5618 52.9293 79.742 54.3667C79.3321 55.0707 78.893 55.9507 78.5709 57.0067C78.2488 58.0628 78.0439 59.2655 77.9268 60.7028C77.8682 61.4068 77.8682 62.1402 77.9268 62.8442C77.9268 63.5482 78.0732 64.2522 78.1317 64.9563C78.2488 66.0123 78.3952 67.0097 78.6002 67.9483C77.0484 63.9296 75.2039 60.0575 73.1545 56.3907C73.4765 56.068 74.0328 55.4814 74.5598 54.572C74.9697 53.868 75.3503 52.988 75.5845 51.9319C75.7895 50.8759 75.9359 49.6146 75.7017 48.2359C75.4674 46.8572 74.999 45.4198 74.3841 44.0998C73.74 42.7797 72.9788 41.5477 72.2469 40.4917C71.5442 39.4063 70.8122 38.585 70.2852 37.9689C69.7582 37.3529 69.4362 37.0009 69.4362 37.0009C69.4362 37.0009 68.8506 37.7343 68.4407 39.113C68.2358 39.817 68.0601 40.6677 68.0308 41.6944C68.0308 42.6917 68.0308 43.8944 68.2943 45.2438C68.4114 45.9185 68.5871 46.5932 68.7921 47.2678C68.997 47.9425 69.2019 48.6172 69.4362 49.2919C69.7875 50.3479 70.2267 51.2866 70.6366 52.196C68.2943 48.4705 65.7471 44.9798 63.0829 41.6944C63.2878 41.3717 63.6684 40.7557 63.9319 39.8463C64.3418 38.4676 64.4882 36.4729 63.522 33.9208C62.995 32.6888 62.2631 31.4275 61.414 30.2541C61.0041 29.6674 60.5357 29.1101 60.0965 28.582C59.6281 28.054 59.1889 27.5554 58.7497 27.1153C58.3105 26.6753 57.9007 26.2353 57.52 25.8833C57.1102 25.5313 56.7588 25.2086 56.466 24.9446C55.8805 24.4166 55.4999 24.1233 55.4999 24.1233C55.4999 24.1233 55.1485 24.798 55.09 26.0593C55.0607 26.7047 55.09 27.4674 55.2949 28.3767C55.4706 29.3154 55.7926 30.4008 56.3196 31.6035C56.5831 32.2195 56.9052 32.8062 57.2273 33.4222C57.5493 34.0382 57.9007 34.6542 58.252 35.2409C58.6033 35.8276 58.9839 36.4142 59.3646 36.9716C59.5988 37.3529 59.833 37.7049 60.0672 38.0569C59.0718 36.9129 58.0763 35.7689 57.0516 34.7129C55.0314 32.5421 52.9527 30.5474 50.8739 28.6114C50.9911 28.318 51.196 27.7607 51.2253 26.8807C51.2838 25.6193 50.9618 23.8299 49.5272 21.6005C48.7952 20.5152 47.829 19.4592 46.8336 18.4618C46.3359 17.9631 45.7796 17.4938 45.2819 17.0538C44.7549 16.6138 44.2279 16.2031 43.7301 15.8217C42.764 15.0591 41.8271 14.4724 41.1829 14.0324C40.5095 13.6217 40.1289 13.3577 40.1289 13.3577C40.1289 13.3577 39.9825 13.9444 40.2168 15.0004C40.3339 15.5284 40.5681 16.2031 40.9487 16.9951C41.3293 17.7871 41.8563 18.7258 42.6176 19.7818C42.9982 20.3098 43.4081 20.8379 43.8472 21.3659C44.2864 21.8939 44.7256 22.4512 45.1647 22.9499C45.6039 23.4779 46.0724 23.9766 46.5408 24.4459C46.9214 24.8566 47.2728 25.238 47.6241 25.6193C45.7503 23.9766 43.9058 22.4219 42.0613 20.9552C40.3632 19.6058 38.6943 18.3738 37.0547 17.2004C37.084 16.9658 37.1426 16.4671 36.9669 15.7044C36.8498 15.1764 36.6156 14.531 36.1764 13.7977C35.7372 13.0643 35.1224 12.1843 34.1855 11.3336C33.2486 10.4536 32.1361 9.54425 30.9649 8.78157C30.3794 8.40023 29.7645 8.01888 29.179 7.66687C28.5934 7.31487 28.0079 6.99219 27.4516 6.72819C26.339 6.1415 25.3728 5.64283 24.6409 5.34949C23.9089 5.05615 23.4991 4.85081 23.4991 4.85081C23.4991 4.85081 23.4991 5.26148 24.0553 6.08284C24.3188 6.49351 24.7287 6.99219 25.2557 7.60821C25.812 8.22422 26.544 8.95757 27.4809 9.77893C27.9493 10.2189 28.447 10.6589 28.974 11.0696C29.5303 11.5096 30.0573 11.9496 30.5843 12.3897C31.6383 13.2697 32.7509 14.091 33.6878 14.8537C29.4425 11.979 25.4021 9.57359 21.8009 7.69621C21.8009 7.5202 21.6838 7.13886 21.3032 6.55218C21.0397 6.1415 20.6298 5.67216 20.015 5.14415C19.4001 4.61613 18.5804 4.00012 17.4385 3.3841C16.853 3.09076 16.2674 2.76809 15.6233 2.50408C14.9792 2.24008 14.3058 1.97607 13.6324 1.7414C12.959 1.50673 12.2563 1.30139 11.5829 1.12538C10.9095 0.920045 10.2361 0.802709 9.59203 0.685373C9.26997 0.626704 8.97718 0.568036 8.65512 0.509368C8.33307 0.480034 8.04029 0.4507 7.77679 0.421366C7.22051 0.362698 6.75206 0.30403 6.28362 0.333364C5.43456 0.333364 4.90755 0.362698 4.90755 0.362698C4.90755 0.362698 5.14178 0.509368 6.07867 0.773375C6.54712 0.861377 7.13267 1.09605 7.92318 1.36006C8.12812 1.41872 8.33308 1.50673 8.53802 1.56539C8.77224 1.6534 9.00647 1.7414 9.21141 1.8294C9.67986 2.03474 10.2361 2.21074 10.8217 2.44542C11.4365 2.70942 12.0514 2.97343 12.6369 3.23743C13.281 3.53077 13.8959 3.82412 14.5107 4.11746C15.1548 4.4108 15.7697 4.70414 16.3552 5.02681C16.9408 5.32015 17.5264 5.61349 18.0826 5.8775C18.2583 5.9655 18.3754 6.02417 18.5511 6.11217C17.702 5.70149 16.853 5.34949 16.0917 4.99748C12.6955 3.53077 9.8848 2.65075 7.92318 2.26941C6.957 2.06407 6.19579 2.0054 5.66878 1.94674C5.14178 1.94674 4.87828 1.94674 4.87828 1.94674C4.87828 1.94674 5.14178 1.94674 5.66878 1.97607C6.16651 2.03474 6.92772 2.09341 7.92318 2.32808C9.85552 2.73876 12.6662 3.61878 16.0625 5.11481C16.9408 5.49616 17.8777 5.93617 18.8439 6.40551C18.5804 6.28817 18.3461 6.17084 18.0534 6.0535C17.4971 5.81883 16.8822 5.58416 16.2674 5.34949C15.6526 5.11481 15.0084 4.85081 14.3643 4.6748C13.6909 4.46946 13.0468 4.23479 12.4027 4.05879C11.7879 3.91212 11.1438 3.76545 10.5289 3.58944C9.91409 3.44277 9.3578 3.3841 8.88935 3.32544C8.65513 3.2961 8.4209 3.26677 8.18668 3.23743C7.98173 3.23743 7.77679 3.23743 7.57184 3.23743C6.81062 3.23743 6.25434 3.2081 5.87373 3.2961C5.1125 3.41344 4.93683 3.53077 4.93683 3.53077C4.93683 3.53077 5.31744 3.61878 5.96156 3.73611C6.28361 3.76545 6.69351 3.91212 7.13268 4.02945C7.3669 4.08812 7.60112 4.14679 7.83534 4.23479C8.06957 4.32279 8.33308 4.4108 8.59658 4.4988C9.12358 4.70414 9.70914 4.85081 10.2947 5.11481C10.8803 5.34949 11.4951 5.58416 12.1099 5.81883C12.7248 6.08284 13.3396 6.31751 13.9544 6.55218C14.5693 6.75752 15.1548 7.02153 15.7404 7.22686C16.8822 7.60821 17.8484 7.87221 18.6389 8.01888C19.4294 8.16555 20.0443 8.19489 20.542 8.19489C21.2446 8.19489 21.6545 8.04822 21.8009 7.96022C25.3436 9.83759 29.2668 12.2137 33.4243 15.0884C32.4288 14.4724 31.287 13.8857 30.1159 13.2697C29.501 12.947 28.8569 12.683 28.2421 12.3897C27.6272 12.1257 27.0124 11.8616 26.4269 11.6563C25.2557 11.2163 24.2603 10.9816 23.4698 10.835C22.6793 10.6589 22.0352 10.6296 21.5667 10.6296C20.6298 10.6296 20.2785 10.8643 20.2785 10.8643C20.2785 10.8643 21.7131 11.803 23.704 13.0937C24.2017 13.4163 24.7287 13.739 25.285 14.091C25.8413 14.443 26.3976 14.7657 26.9831 15.1177C27.5687 15.4404 28.1543 15.7631 28.7105 16.0857C29.2961 16.3791 29.8817 16.6724 30.4379 16.9071C31.5798 17.3764 32.5459 17.6991 33.395 17.8165C34.2441 17.9631 34.9467 17.9925 35.503 17.9338C36.2642 17.8751 36.7327 17.6991 36.9669 17.6111C38.6065 18.8138 40.246 20.0752 41.9149 21.4245C43.6716 22.8619 45.4575 24.3873 47.2435 25.9713C46.8921 25.7073 46.5408 25.4433 46.1309 25.15C45.5746 24.7686 44.9891 24.4166 44.4035 24.0646C43.818 23.7126 43.2031 23.3606 42.6176 23.0379C42.0027 22.7152 41.3879 22.4512 40.8023 22.1872C39.6019 21.7179 38.6065 21.3952 37.7281 21.2779C36.8498 21.1312 36.1764 21.1019 35.6201 21.1605C34.5368 21.2485 34.0391 21.5419 34.0391 21.5419C34.0391 21.5419 34.3612 21.8352 34.9175 22.3046C35.4445 22.7739 36.2642 23.4193 37.1426 24.1526C37.611 24.534 38.0795 24.9153 38.5772 25.2966C39.0749 25.678 39.6605 26.0593 40.1875 26.4407C40.7145 26.822 41.2708 27.174 41.8563 27.526C42.4126 27.878 42.9982 28.1714 43.5837 28.4354C45.8381 29.5207 47.7119 29.6381 48.9709 29.5207C49.8199 29.4327 50.4055 29.2567 50.6983 29.1101C52.7477 31.0461 54.7679 33.0995 56.7881 35.2702C57.7835 36.3556 58.7497 37.4703 59.7159 38.6143C59.4231 38.321 59.1303 38.0569 58.8083 37.7636C58.2813 37.3529 57.7543 36.9129 57.198 36.5022C56.6417 36.0916 56.0561 35.6809 55.4706 35.3289C54.885 34.9475 54.2702 34.6542 53.6846 34.3609C52.4842 33.8035 51.4302 33.4808 50.5226 33.3342C49.5857 33.1875 48.7952 33.1582 48.1804 33.2168C46.9214 33.3342 46.248 33.7155 46.248 33.7155C46.248 33.7155 46.5408 34.0382 47.0093 34.5662C47.2435 34.8302 47.5363 35.1235 47.8876 35.4756C48.2097 35.8276 48.5903 36.2089 49.0002 36.6196C49.41 37.0303 49.8492 37.4409 50.3177 37.8516C50.7861 38.2623 51.2838 38.673 51.7816 39.113C52.777 39.9637 53.8896 40.7263 55.0314 41.313C57.2565 42.5157 59.2767 42.7211 60.7406 42.6037C61.6775 42.5451 62.3509 42.369 62.7315 42.2517C65.3665 45.5665 67.8844 49.0865 70.1974 52.812C69.5533 52.0493 68.8213 51.2573 68.0015 50.4946C67.5038 50.0252 66.9768 49.5559 66.4205 49.1452C65.8643 48.7345 65.2787 48.3532 64.6931 48.0305C63.522 47.3852 62.4387 46.9745 61.4433 46.7692C60.4478 46.5638 59.5988 46.5345 58.8668 46.5638C57.4322 46.6518 56.5831 47.0332 56.5831 47.0332C56.5831 47.0332 56.8174 47.3852 57.198 47.9425C57.5786 48.4999 58.1934 49.2626 58.8668 50.1426C59.5402 51.0226 60.36 51.9613 61.2969 52.8706C62.2045 53.78 63.2 54.66 64.3125 55.3347C64.8688 55.6574 65.4251 55.9507 65.9228 56.1854C66.4498 56.4201 66.9768 56.5961 67.5038 56.7427C68.5286 57.0067 69.4654 57.1241 70.3145 57.1241C71.1343 57.1241 71.837 57.0654 72.3054 57.0067C72.4225 57.0067 72.4811 56.9774 72.5982 56.9481C74.5891 60.6148 76.4043 64.4576 77.8682 68.447C77.3705 67.6257 76.8435 66.8043 76.2286 65.983C75.8188 65.4256 75.2918 64.9269 74.794 64.4282C74.2963 63.9296 73.7693 63.4896 73.213 63.0789C72.1297 62.2575 70.9879 61.7882 69.9339 61.4655C68.9092 61.1428 67.9723 61.0255 67.1525 61.0255C65.5422 60.9668 64.5175 61.3188 64.5175 61.3188C64.5175 61.3188 65.103 62.8149 66.2156 64.6336C66.5084 65.1029 66.7719 65.6016 67.0939 66.071C67.416 66.5696 67.7673 67.0683 68.1479 67.567C68.5286 68.0657 68.9677 68.535 69.3776 69.0044C69.8168 69.4737 70.2852 69.9137 70.783 70.3244C71.837 71.1164 72.9202 71.7031 73.945 72.1138C74.9697 72.5244 75.9944 72.7885 76.8728 72.9351C77.9853 73.1111 78.8637 73.1405 79.3907 73.1405C79.5663 73.7565 79.8006 74.3432 79.947 74.9592C80.8546 78.3033 81.4401 81.7353 81.85 85.1968C81.7915 84.9914 81.7329 84.7861 81.6451 84.5807C81.4401 83.9647 81.1766 83.3194 80.8253 82.7034C80.1812 81.4713 79.3614 80.2686 78.4245 79.2713C76.3458 77.3059 74.1206 76.5139 72.3932 76.2205C70.6366 75.9272 69.3776 76.1032 69.3776 76.1032C69.3776 76.1032 69.3776 76.1912 69.4362 76.3672C69.4654 76.5432 69.5533 76.7779 69.6411 77.1006C69.7875 77.7166 69.9925 78.5673 70.3438 79.5353C70.4902 80.0046 70.7537 80.5326 70.9586 81.0607C71.1636 81.5887 71.3978 82.1167 71.6613 82.674C71.9541 83.202 72.2761 83.7594 72.6275 84.2874C73.0081 84.8154 73.3594 85.3141 73.7986 85.8128C74.6477 86.7808 75.6724 87.5728 76.6971 88.1888C77.7218 88.8048 78.688 89.2742 79.5956 89.6262C80.7375 90.0662 81.6744 90.2715 82.2306 90.3889C82.2599 91.2982 82.2892 92.2076 82.2892 93.1169C82.2892 95.1997 82.2306 97.2237 82.1135 99.3064C82.055 100.392 81.9671 101.506 81.8793 102.592C81.8793 102.416 81.85 102.269 81.8207 102.093C81.7036 101.418 81.528 100.773 81.323 100.069C81.1181 99.3944 80.8839 98.7197 80.5911 98.0451C80.2983 97.3704 79.9177 96.7544 79.5078 96.1384C78.688 94.9357 77.7218 93.997 76.7557 93.2343C75.7895 92.5009 74.7355 92.0316 73.8571 91.7089C72.0712 91.0342 70.6951 90.9169 70.6951 90.9169C70.6951 90.9169 70.6951 91.2689 70.6951 91.8849C70.6951 92.1783 70.7244 92.5596 70.783 92.9703C70.783 93.4103 70.8122 93.9383 70.8708 94.4957C70.9294 95.053 70.9879 95.6397 71.105 96.2264C71.2221 96.8424 71.3685 97.4584 71.5442 98.1037C71.8955 99.3651 72.3932 100.656 73.1545 101.829C73.8864 103.032 74.794 104 75.7895 104.821C76.7557 105.643 77.7804 106.288 78.7173 106.757C79.8299 107.344 80.7667 107.696 81.3816 107.901C80.9424 111.949 80.2983 115.968 79.4785 119.928C79.4785 119.752 79.4785 119.606 79.4785 119.459C79.4199 118.784 79.3321 118.11 79.215 117.406C79.0979 116.702 78.893 115.997 78.6295 115.323C78.3952 114.619 78.0732 113.944 77.7218 113.299C77.3705 112.653 76.9606 112.067 76.4922 111.539C76.053 111.011 75.5553 110.541 75.0575 110.101C74.0914 109.251 73.0666 108.605 72.159 108.136C70.3438 107.168 68.8506 106.845 68.8506 106.845C68.8506 106.845 68.7628 107.227 68.6457 107.901C68.5578 108.576 68.4407 109.485 68.4407 110.571C68.3822 111.656 68.4407 112.859 68.6457 114.12C68.7628 114.765 68.8799 115.411 69.0848 116.056C69.2898 116.702 69.5533 117.347 69.8753 117.963C70.578 119.224 71.4564 120.339 72.4225 121.278C73.3887 122.216 74.4427 123.008 75.4382 123.654C76.6093 124.416 77.634 124.915 78.2781 125.208C77.2534 129.168 76.0237 133.07 74.5891 136.825C74.5891 136.649 74.6184 136.502 74.6477 136.355C74.6477 135.681 74.6477 134.977 74.6184 134.273C74.5891 133.569 74.4427 132.806 74.267 132.073C74.0621 131.339 73.8279 130.606 73.5058 129.902C72.891 128.494 71.9541 127.291 70.9586 126.294C69.9632 125.296 68.9384 124.504 67.9723 123.888C67.0061 123.272 66.1278 122.803 65.4836 122.51C64.8395 122.216 64.4296 122.07 64.4296 122.07C64.4296 122.07 64.2832 122.422 64.0783 123.038C63.8734 123.654 63.6391 124.534 63.522 125.56C63.4635 126.088 63.3756 126.616 63.3464 127.203C63.3171 127.79 63.3464 128.406 63.3756 129.051C63.4342 129.697 63.522 130.342 63.6684 130.987C63.8148 131.662 64.049 132.337 64.3418 133.011C64.9859 134.39 65.8057 135.622 66.7426 136.766C67.6795 137.881 68.7335 138.878 69.6997 139.699C70.8415 140.667 71.837 141.371 72.5104 141.782C71.8955 143.19 71.2514 144.598 70.5487 145.948C69.4362 148.148 68.1772 150.26 66.889 152.313C66.889 152.225 66.9475 152.166 66.9475 152.108C67.0939 151.433 67.2111 150.758 67.2989 150.025C67.3574 149.292 67.3867 148.558 67.2989 147.796C67.2111 147.033 67.0647 146.27 66.8304 145.508C66.5962 144.745 66.2742 144.012 65.9228 143.337C65.5422 142.662 65.103 142.017 64.6639 141.401C63.7562 140.227 62.7315 139.23 61.7946 138.409C59.8916 136.795 58.252 135.945 58.252 135.945C58.252 135.945 57.52 137.206 57.1394 139.23C56.9052 140.198 56.7295 141.371 56.7588 142.662C56.7588 143.307 56.7881 143.953 56.9052 144.657C56.993 145.361 57.1687 146.094 57.4029 146.828C57.8421 148.324 58.4862 149.702 59.2182 150.993C59.9794 152.284 60.7992 153.457 61.5897 154.454C62.468 155.569 63.2585 156.42 63.7855 156.948C61.9117 159.5 59.9501 161.964 57.8714 164.164C57.3737 164.692 56.8466 165.161 56.3489 165.66C56.6124 165.161 56.8467 164.604 57.0516 164.047C57.2858 163.372 57.4615 162.639 57.6079 161.905C57.725 161.172 57.7543 160.38 57.6957 159.588C57.5786 158.004 57.1394 156.537 56.4953 155.217C55.8512 153.868 55.0607 152.694 54.2702 151.726C52.7185 149.79 51.2838 148.617 51.2838 148.617C51.2838 148.617 51.0789 148.91 50.8154 149.438C50.669 149.702 50.5226 150.025 50.3762 150.436C50.2298 150.817 50.0249 151.228 49.8785 151.726C49.7028 152.196 49.5564 152.724 49.41 153.31C49.3515 153.604 49.2929 153.897 49.2051 154.19C49.1465 154.484 49.0587 154.777 49.0002 155.1C48.883 155.716 48.7952 156.39 48.7659 157.124C48.7659 157.476 48.7659 157.828 48.7659 158.209C48.7659 158.561 48.7659 158.943 48.7659 159.324C48.8245 160.82 49.088 162.316 49.4393 163.665C49.7907 165.015 50.2006 166.247 50.6397 167.303C51.0789 168.388 51.5181 169.239 51.8694 169.855C49.0002 172.26 46.0431 174.372 43.0567 176.162C43.291 175.898 43.5252 175.663 43.7301 175.399C44.1693 174.842 44.5499 174.196 44.872 173.551C45.194 172.906 45.4575 172.202 45.6625 171.498C46.0431 170.031 46.0138 168.564 45.8381 167.244C45.6332 165.895 45.2819 164.721 44.8134 163.636C43.9058 161.524 42.9396 160.204 42.9396 160.204C42.9396 160.204 42.7054 160.468 42.3248 160.967C42.1491 161.231 41.9149 161.495 41.6807 161.847C41.4464 162.199 41.1829 162.58 40.8902 163.02C40.6267 163.46 40.3339 163.959 40.0411 164.457C39.7483 164.956 39.4555 165.513 39.192 166.1C38.8993 166.687 38.665 167.361 38.4015 167.977C38.138 168.623 37.9038 169.297 37.6989 170.001C37.4939 170.705 37.3475 171.41 37.2011 172.084C37.084 172.73 36.9669 173.375 36.9084 173.991C36.762 175.223 36.762 176.367 36.8205 177.335C36.8498 178.156 36.9376 178.831 37.0547 179.359C34.0098 180.796 31.0235 181.94 28.1542 182.85C28.6227 182.556 29.0619 182.234 29.4718 181.823C29.9988 181.324 30.4672 180.796 30.9064 180.239C31.3163 179.682 31.6676 179.095 31.9311 178.508C32.1946 177.922 32.3703 177.306 32.5167 176.719C32.7802 175.546 32.8387 174.46 32.7802 173.492C32.6631 171.586 32.2239 170.324 32.2239 170.324C32.2239 170.324 31.9018 170.529 31.4041 170.969C31.1699 171.175 30.8478 171.439 30.5258 171.732C30.1744 172.026 29.8231 172.407 29.4132 172.788C28.5934 173.522 27.6858 174.402 26.7782 175.428C26.3097 175.898 25.8413 176.396 25.3728 176.924C24.9044 177.452 24.4359 177.98 24.0261 178.567C23.177 179.682 22.4743 180.65 21.9473 181.559C21.4203 182.468 21.0397 183.26 20.7762 183.964C20.6298 184.287 20.542 184.61 20.4541 184.874C20.1906 184.932 19.9271 184.991 19.6636 185.05C17.4971 185.49 15.4769 185.754 13.6617 185.989C13.5153 185.989 13.3689 186.018 13.2225 186.047C13.5445 185.901 13.8959 185.754 14.1887 185.607C15.3305 184.962 16.2088 184.258 16.8237 183.466C17.4385 182.703 17.8484 181.94 18.1412 181.266C18.6682 179.916 18.6682 179.007 18.6682 179.007C18.6682 179.007 18.2876 179.183 17.6727 179.535C17.3507 179.711 16.9701 179.946 16.5309 180.18C16.0917 180.415 15.6233 180.738 15.0963 181.002C14.5693 181.266 14.013 181.618 13.3982 181.94C12.8126 182.263 12.227 182.615 11.5829 182.996C10.3532 183.7 9.06502 184.375 7.8939 185.05C7.60112 185.197 7.33762 185.373 7.04484 185.519C6.78134 185.637 6.51784 185.783 6.28362 185.901C5.84445 186.135 5.40527 186.341 4.99538 186.546C4.90755 186.575 4.84899 186.605 4.79043 186.634C4.02921 186.634 3.3851 186.634 2.9752 186.634C2.47748 186.634 2.21398 186.634 2.21398 186.634H2.15542C1.42348 186.634 0.867188 187.221 0.867188 187.925C0.867188 188.629 1.48203 189.186 2.1847 189.186C2.1847 189.186 2.4482 189.186 2.9752 189.186C3.41437 189.186 4.11705 189.186 4.96611 189.157C4.99538 189.157 5.05394 189.186 5.08322 189.215C5.903 189.538 6.92773 190.037 8.24523 190.477C8.88935 190.711 9.62131 190.946 10.324 191.181C11.0559 191.415 11.7879 191.679 12.5491 191.885C13.3103 192.061 14.0716 192.237 14.8035 192.413C15.5355 192.559 16.2674 192.735 16.9408 192.853C17.6142 192.999 18.2583 193.058 18.8439 193.117C19.4294 193.175 19.9271 193.234 20.3663 193.263C21.2154 193.351 21.7424 193.351 21.7424 193.351C21.7424 193.351 21.3032 192.501 20.1906 191.474C19.6344 190.946 18.9024 190.418 17.9948 189.919C17.0872 189.45 15.9746 188.951 14.6278 188.629C14.3058 188.541 14.013 188.511 13.6909 188.453C13.808 188.453 13.9252 188.453 14.013 188.423C15.8868 188.189 17.9362 187.866 20.1906 187.397C20.4541 187.338 20.7469 187.279 21.0104 187.221C21.2154 187.426 21.4203 187.661 21.7131 187.925C22.2694 188.394 23.0013 188.951 23.9968 189.479C24.9922 190.007 26.2219 190.594 27.7736 191.005C29.2961 191.386 31.0235 191.65 32.6923 191.767C34.3612 191.826 36.03 191.767 37.4646 191.65C37.611 191.65 37.7281 191.591 37.8745 191.591C39.0749 190.975 40.246 190.301 41.4172 189.655C41.0366 189.274 40.5681 188.863 39.9533 188.394C39.1335 187.778 38.138 187.133 36.9669 186.605C36.3814 186.341 35.7665 186.106 35.0931 185.901C34.4197 185.666 33.7171 185.49 32.9558 185.343C32.1946 185.197 31.4627 185.138 30.7014 185.109C30.0866 185.109 29.4718 185.109 28.8862 185.109C31.8433 184.14 34.9175 182.938 38.0795 181.412C38.4601 181.794 38.9871 182.292 39.6898 182.82C40.4803 183.407 41.505 184.023 42.764 184.522C43.4081 184.786 44.0815 185.021 44.8427 185.226C45.6039 185.431 46.3944 185.549 47.2728 185.607C47.507 185.607 47.7412 185.607 48.0047 185.607C51.1375 183.495 54.1531 181.207 57.0223 178.772C56.2611 178.479 55.4706 178.186 54.6215 177.951C53.1869 177.54 51.6352 177.335 49.9956 177.306C49.1758 177.306 48.356 177.306 47.5655 177.423C46.775 177.511 46.0431 177.687 45.2819 177.834C44.9012 177.892 44.5792 178.01 44.1986 178.098C47.2435 176.22 50.2884 174.02 53.2162 171.498C53.8017 171.908 54.6508 172.436 55.7634 172.964C56.8174 173.463 58.1349 173.962 59.6281 174.284C60.2722 174.402 61.0041 174.49 61.7361 174.548C64.9274 171.498 67.9723 168.3 70.783 164.868C70.256 164.78 69.6997 164.721 69.1434 164.692C67.5624 164.575 65.835 164.604 64.1661 164.927C63.3171 165.073 62.5559 165.308 61.7361 165.543C60.9456 165.777 60.2136 166.071 59.5109 166.393C58.8668 166.687 58.2813 167.009 57.6957 167.303C58.252 166.745 58.8083 166.217 59.3646 165.631C61.4726 163.343 63.4635 160.82 65.3373 158.18C66.0399 158.503 67.1525 158.913 68.6457 159.295C69.8753 159.588 71.3392 159.823 72.9495 159.852C73.5351 159.852 74.1499 159.793 74.7647 159.735C77.4583 156.038 79.9177 152.166 82.1135 148.118C81.2937 148.118 80.4154 148.177 79.5371 148.294C78.7466 148.412 77.9561 148.558 77.1656 148.764C76.3458 148.969 75.526 149.204 74.7355 149.526C73.9157 149.849 73.1837 150.201 72.4811 150.612C71.8077 151.022 71.105 151.433 70.4902 151.902C69.8753 152.342 69.2898 152.812 68.7628 153.281C68.6457 153.369 68.5871 153.457 68.47 153.545C69.7875 151.404 71.0465 149.174 72.2176 146.857C72.9202 145.478 73.5351 144.041 74.1499 142.603C74.9111 142.779 76.1701 142.985 77.7218 143.073C79.0101 143.131 80.474 143.073 81.9964 142.779C83.1383 142.574 84.2801 142.134 85.3927 141.606C87.2079 137.617 88.8182 133.539 90.165 129.286C89.96 129.286 89.7844 129.315 89.5794 129.344C88.4083 129.52 87.0615 129.814 85.6854 130.283C84.2801 130.753 82.904 131.427 81.4987 132.337C80.796 132.806 80.1519 133.305 79.5664 133.833C78.9808 134.361 78.4538 134.918 77.9268 135.475C77.3998 136.033 76.9313 136.59 76.5214 137.147C76.3751 137.323 76.2872 137.499 76.1408 137.705C77.5754 133.833 78.8051 129.843 79.8298 125.766C80.5325 125.766 81.7036 125.766 83.1382 125.59C84.3094 125.414 85.6269 125.12 86.9444 124.563C88.2619 124.006 89.6087 123.214 90.7213 122.099C91.3068 121.542 91.8045 120.896 92.2437 120.251C92.4779 119.899 92.6536 119.518 92.8585 119.166C93.5026 116.086 94.0004 112.947 94.381 109.779C93.7369 109.896 92.8586 110.072 91.8045 110.424L91.746 109.984Z" fill="#B9B9B9"/>
</svg>
