<svg width="133" height="270" viewBox="0 0 133 270" fill="none" xmlns="http://www.w3.org/2000/svg">
<path d="M130.565 260.632H130.524C130.524 260.632 130.154 260.632 129.456 260.632C128.839 260.632 127.977 260.632 126.908 260.632C126.826 260.591 126.744 260.55 126.621 260.508C126.045 260.221 125.429 259.892 124.813 259.604C124.443 259.44 124.114 259.235 123.745 259.07C123.375 258.865 122.964 258.618 122.553 258.413C120.909 257.468 119.102 256.523 117.335 255.537C116.472 255.044 115.609 254.55 114.787 254.057C113.965 253.605 113.185 253.112 112.445 252.743C111.706 252.373 111.048 251.962 110.432 251.592C109.816 251.263 109.281 250.935 108.829 250.688C107.967 250.195 107.391 249.948 107.391 249.948C107.391 249.948 107.391 251.222 108.131 253.112C108.501 254.057 109.076 255.126 109.98 256.194C110.843 257.303 112.075 258.29 113.678 259.194C114.089 259.44 114.582 259.604 115.034 259.81C114.828 259.81 114.623 259.81 114.417 259.728C111.87 259.399 109.035 259.029 105.994 258.413C105.625 258.331 105.255 258.249 104.885 258.166C104.762 257.797 104.638 257.386 104.433 256.893C104.063 255.948 103.529 254.797 102.789 253.523C102.05 252.249 101.064 250.893 99.8311 249.332C99.2559 248.551 98.5984 247.771 97.941 247.031C97.2836 246.291 96.6262 245.593 95.9688 244.936C94.695 243.497 93.3802 242.224 92.2708 241.237C91.6956 240.703 91.2025 240.21 90.7095 239.758C90.2575 239.347 89.8055 238.977 89.4768 238.69C88.7783 238.115 88.3263 237.786 88.3263 237.786C88.3263 237.786 87.71 239.553 87.5457 242.224C87.4635 243.538 87.5457 245.1 87.9155 246.743C88.1209 247.565 88.3674 248.387 88.7372 249.25C89.107 250.031 89.6001 250.852 90.1753 251.674C90.7916 252.455 91.4491 253.236 92.1887 253.893C92.7639 254.468 93.3802 254.879 93.9965 255.331C90.011 254.057 85.8199 252.496 81.5468 250.442C81.67 249.702 81.7933 248.757 81.8344 247.606C81.9165 246.25 81.8755 244.648 81.7111 242.922C81.6289 242.059 81.5057 241.155 81.3002 240.251C81.1359 239.306 80.9304 238.32 80.6428 237.334C80.3552 236.348 80.0265 235.403 79.6567 234.499C79.2869 233.636 78.9171 232.691 78.5062 231.869C78.1364 231.047 77.7255 230.266 77.3146 229.568C76.9038 228.869 76.4929 228.171 76.1231 227.555C75.7533 226.938 75.3835 226.363 75.0137 225.911C74.685 225.418 74.3563 225.048 74.1097 224.678C73.6167 223.98 73.288 223.61 73.288 223.61C73.288 223.61 71.891 225.5 70.6583 228.417C70.042 229.897 69.5079 231.581 69.2202 233.471C68.9737 235.321 68.9326 237.416 69.4668 239.429C69.7544 240.457 70.1242 241.402 70.5762 242.306C71.0281 243.21 71.5623 244.114 72.1786 244.894C72.5073 245.264 72.836 245.593 73.1236 245.963C68.9326 243.456 64.7827 240.498 60.756 237.128C61.208 236.266 61.8654 235.074 62.4817 233.554C63.0981 232.074 63.6733 230.349 64.1664 228.459C64.6594 226.527 65.0292 224.473 65.1114 222.377C65.1114 221.843 65.1114 221.35 65.1114 220.857C65.1114 220.323 65.1114 219.83 65.0703 219.337C65.0292 218.35 64.9059 217.405 64.7416 216.501C64.6594 216.049 64.5772 215.639 64.454 215.228C64.3718 214.817 64.2896 214.365 64.1664 213.995C63.9609 213.214 63.7555 212.434 63.5089 211.776C63.2624 211.119 63.0159 210.543 62.8104 209.968C62.605 209.434 62.3996 208.941 62.1941 208.571C61.8243 207.832 61.5367 207.421 61.5367 207.421C61.5367 207.421 59.5234 209.064 57.3457 211.776C56.2363 213.132 55.1269 214.776 54.223 216.666C53.319 218.515 52.7027 220.569 52.5383 222.788C52.4562 223.898 52.4973 225.007 52.6616 226.034C52.826 227.061 53.1136 228.089 53.4423 229.034C53.7299 229.815 54.0586 230.595 54.4284 231.294C53.7299 230.595 52.9903 229.938 52.2918 229.198C49.3745 226.075 46.6216 222.665 43.992 219.09C44.7726 218.309 45.8409 217.159 47.0736 215.597C48.183 214.2 49.3334 212.557 50.4017 210.749C51.47 208.941 52.3329 206.969 52.9903 204.914C53.319 203.887 53.5245 202.86 53.6477 201.874C53.771 200.887 53.8121 199.983 53.8532 199.079C53.8532 197.272 53.6477 195.628 53.319 194.272C52.7438 191.478 51.7166 189.67 51.7166 189.67C51.7166 189.67 49.4156 190.862 46.7449 193.121C45.43 194.231 43.992 195.628 42.7182 197.313C42.0608 198.134 41.4856 199.038 40.9514 200.025C40.4584 200.97 40.0064 201.997 39.6777 203.065C39.349 204.133 39.1435 205.202 39.0203 206.27C38.897 207.338 38.9381 208.407 39.0203 209.393C39.1024 210.379 39.2668 211.365 39.4722 212.31C39.4722 212.392 39.5133 212.475 39.5544 212.598C37.7465 209.722 36.0208 206.763 34.4594 203.681C33.4733 201.791 32.6105 199.819 31.7065 197.847C32.6105 197.23 34.0075 196.285 35.651 194.929C37.0069 193.779 38.4861 192.382 39.8009 190.82C41.1158 189.259 42.3073 187.492 43.1702 185.561C43.5811 184.616 43.9098 183.63 44.1563 182.726C44.3618 181.822 44.485 180.877 44.5672 180.014C44.6494 179.11 44.6905 178.247 44.6083 177.425C44.6083 176.603 44.4439 175.864 44.3617 175.124C44.1974 173.686 43.8276 172.453 43.5811 171.59C43.2935 170.728 43.088 170.235 43.088 170.235C43.088 170.235 42.5128 170.44 41.6088 170.851C40.7049 171.262 39.4722 171.878 38.1163 172.782C36.7604 173.645 35.3223 174.754 33.9253 176.151C32.5694 177.548 31.2135 179.233 30.3506 181.205C29.8986 182.192 29.5288 183.219 29.2823 184.246C29.0358 185.273 28.8303 186.301 28.7892 187.328C28.7071 188.314 28.7071 189.3 28.7892 190.245C28.7892 190.492 28.8303 190.697 28.8714 190.903C26.8581 185.643 25.1324 180.219 23.6943 174.631C24.5982 174.22 26.0363 173.522 27.6799 172.453C29.0358 171.549 30.556 170.481 31.912 169.125C33.2679 167.81 34.5005 166.249 35.4867 164.482C35.9797 163.578 36.3084 162.674 36.596 161.811C36.8837 160.907 37.048 160.003 37.2124 159.099C37.5411 157.332 37.5411 155.607 37.5 154.127C37.5 152.607 37.3356 151.292 37.2124 150.388C37.0891 149.443 36.9248 148.909 36.9248 148.909C36.9248 148.909 34.8703 149.361 32.2818 150.717C31.008 151.374 29.5699 152.278 28.214 153.47C27.5155 154.086 26.8581 154.744 26.2007 155.483C25.5844 156.223 25.0091 157.045 24.475 157.949C23.9408 158.853 23.5299 159.798 23.2012 160.784C22.8314 161.77 22.5849 162.756 22.3795 163.701C22.2151 164.687 22.0508 165.632 22.0097 166.578C22.0097 166.824 22.0097 167.03 22.0097 167.235C20.8592 161.688 19.9552 156.059 19.3389 150.388C20.2018 150.101 21.5166 149.608 23.078 148.786C24.3928 148.087 25.8309 147.224 27.2279 146.074C28.5838 144.923 29.8575 143.567 30.9258 141.883C32.0352 140.198 32.7337 138.431 33.2268 136.664C33.4322 135.76 33.6788 134.897 33.8431 134.035C34.0075 133.172 34.0897 132.35 34.1718 131.61C34.254 130.83 34.2951 130.131 34.3362 129.474C34.3773 128.898 34.4184 128.364 34.4594 127.953C34.4594 127.09 34.4594 126.597 34.4594 126.597C34.4594 126.597 32.5283 126.762 30.0219 127.707C28.7482 128.2 27.3101 128.857 25.9541 129.843C24.5982 130.871 23.2423 132.186 22.0918 133.911C21.5166 134.774 21.0235 135.678 20.5716 136.582C20.1607 137.486 19.832 138.472 19.5444 139.417C19.2567 140.362 19.0102 141.307 18.8459 142.252C18.8048 142.499 18.8048 142.704 18.7637 142.951C18.6404 141.431 18.5172 139.869 18.435 138.349C18.2706 135.473 18.2295 132.596 18.1884 129.679C18.1884 128.405 18.1884 127.131 18.2706 125.858C19.0513 125.693 20.3661 125.406 21.9686 124.789C23.2423 124.296 24.5982 123.639 26.0363 122.776C27.4744 121.913 28.9125 120.804 30.1041 119.448C30.7204 118.749 31.1724 118.051 31.7476 117.311C32.2818 116.571 32.7337 115.832 33.1035 115.051C33.5144 114.312 33.8431 113.531 34.0896 112.791C34.3773 112.052 34.706 111.353 34.9525 110.655C35.4456 109.299 35.7332 108.107 35.9386 107.244C36.0208 106.792 36.1441 106.463 36.1852 106.217C36.2262 105.97 36.2673 105.847 36.2673 105.847C36.2673 105.847 34.5416 105.601 32.0352 106.011C29.611 106.422 26.4883 107.532 23.571 110.285C22.2562 111.682 21.1057 113.366 20.2018 115.092C19.7087 115.955 19.3389 116.859 19.0513 117.722C18.928 118.01 18.8869 118.256 18.8048 118.544C19.3389 113.695 20.2018 108.929 21.4755 104.245C21.722 103.382 22.0097 102.56 22.2562 101.697C22.9958 101.697 24.2284 101.697 25.7487 101.409C26.9814 101.204 28.4195 100.834 29.8575 100.259C31.2546 99.6425 32.8159 98.8618 34.2951 97.7524C35.0347 97.1772 35.6921 96.5608 36.2673 95.9034C36.8426 95.2459 37.4589 94.5474 37.993 93.89C38.5272 93.1915 39.0613 92.4929 39.4722 91.7944C39.9242 91.0959 40.294 90.3974 40.7049 89.781C42.2662 87.2335 43.088 85.1379 43.088 85.1379C43.088 85.1379 41.6088 84.6859 39.3901 84.727C38.2396 84.727 36.9248 84.9324 35.4867 85.3433C34.0486 85.7542 32.405 86.4528 30.8848 87.6033C30.1041 88.1785 29.3645 88.7949 28.666 89.4934C27.9675 90.1919 27.269 90.8904 26.6527 91.6711C25.7898 92.8216 25.0502 93.9722 24.3517 95.1227C26.4061 89.5345 28.9536 84.1517 31.7476 79.0155C31.8709 79.0155 31.9531 79.0566 32.1585 79.0977C32.8159 79.1799 33.802 79.3032 34.9525 79.2621C36.103 79.2621 37.4589 79.0977 38.897 78.7279C39.6366 78.5225 40.3351 78.2759 41.0747 77.9472C41.8143 77.6185 42.5539 77.2076 43.3756 76.7556C44.937 75.8105 46.334 74.5779 47.6077 73.3041C48.9226 72.0303 50.073 70.7154 51.0181 69.4827C51.9631 68.25 52.826 67.1817 53.3601 66.401C53.9353 65.6203 54.223 65.1272 54.223 65.1272C54.223 65.1272 53.0314 64.552 51.0181 64.4698C49.9909 64.4287 48.7993 64.4698 47.4023 64.7574C46.0053 65.0451 44.485 65.6203 42.8415 66.5243C42.0197 66.9763 41.1979 67.5104 40.4173 68.0857C39.5955 68.6609 38.897 69.3184 38.1574 69.9758C37.048 71.0441 35.9797 72.1536 35.0758 73.2219C38.3218 67.9624 41.8554 63.0728 45.5122 58.4296C46.0464 58.594 46.9914 58.8405 48.3062 58.9227C50.3607 59.046 53.2368 58.7994 56.3185 57.1147C57.9209 56.293 59.4823 55.2246 60.8793 54.033C61.5778 53.4167 62.2763 52.8825 62.9337 52.2662C63.5911 51.6909 64.2074 51.1157 64.7827 50.5404C65.3579 49.9652 65.8921 49.431 66.344 48.9379C66.8371 48.4448 67.248 48.0339 67.5767 47.6641C68.2752 46.9245 68.645 46.4725 68.645 46.4725C68.645 46.4725 67.7 45.9384 65.9332 45.774C65.0292 45.6918 63.9609 45.6918 62.6461 45.9384C61.3723 46.1438 59.8932 46.6369 58.2085 47.3765C57.3868 47.7874 56.5239 48.1983 55.7021 48.7325C54.8804 49.2255 54.0586 49.8008 53.2779 50.376C52.4972 50.9513 51.7166 51.5676 51.0181 52.1429C50.525 52.5127 50.1552 52.9236 49.7443 53.2934C51.1002 51.732 52.4973 50.1295 53.8943 48.6503C56.6883 45.6096 59.5645 42.7745 62.4406 40.0215C62.8515 40.1858 63.6733 40.4734 64.8649 40.5967C66.6317 40.7611 69.2613 40.5967 72.4251 39.0764C73.2058 38.7066 74.0276 38.2957 74.8083 37.8026C75.5889 37.3506 76.3696 36.8165 77.1503 36.2823C77.8899 35.7481 78.6706 35.214 79.3691 34.6798C80.0676 34.1456 80.7661 33.6115 81.4235 33.0773C82.6561 32.0501 83.8066 31.1872 84.5462 30.4887C85.3269 29.8312 85.7789 29.4203 85.7789 29.4203C85.7789 29.4203 85.0804 28.9683 83.5601 28.8862C82.7794 28.8451 81.8344 28.8862 80.6017 29.0505C79.3691 29.256 77.9721 29.6669 76.2874 30.3243C75.4657 30.6941 74.6028 31.0639 73.74 31.5159C72.9182 31.9679 72.0553 32.461 71.2336 32.954C70.4118 33.4471 69.59 33.9813 68.8093 34.4744C68.2752 34.8442 67.7411 35.2551 67.248 35.6249C69.7544 33.406 72.2608 31.2283 74.7672 29.256C77.1092 27.3659 79.4102 25.599 81.7111 23.9143C82.0398 24.0787 82.6972 24.2841 83.7655 24.3663C84.5462 24.4485 85.5323 24.4074 86.7239 24.202C87.9155 23.9965 89.2714 23.5445 90.8738 22.9282C91.6545 22.5995 92.4763 22.1886 93.298 21.7777C94.1198 21.3257 94.9416 20.8737 95.7222 20.4217C96.544 19.9697 97.3247 19.4766 98.1054 18.9836C98.8861 18.4905 99.6256 18.0385 100.324 17.5865C103.118 15.7786 105.131 14.4637 105.131 14.4637C105.131 14.4637 104.638 14.1761 103.324 14.135C102.666 14.135 101.762 14.135 100.653 14.4226C99.5435 14.6281 98.1465 14.9979 96.4618 15.5731C95.6401 15.9018 94.7772 16.2306 93.9144 16.6004C93.0515 16.9702 92.1476 17.3811 91.2847 17.8331C89.6412 18.6959 88.0387 19.5177 86.6417 20.3806C92.4763 16.3538 97.9821 13.0256 102.954 10.3958C103.159 10.478 103.734 10.6835 104.721 10.7245C105.378 10.7245 106.282 10.7245 107.391 10.478C108.501 10.2726 109.816 9.90275 111.459 9.36859C112.281 9.08096 113.103 8.75224 113.965 8.42353C114.828 8.09481 115.691 7.76609 116.554 7.39629C117.417 7.06757 118.28 6.73885 119.102 6.41014C119.923 6.04033 120.745 5.83488 121.485 5.54725C121.854 5.42398 122.224 5.25963 122.594 5.17745C122.964 5.09527 123.293 4.972 123.58 4.88982C124.197 4.72546 124.772 4.52001 125.224 4.47892C126.128 4.31456 126.662 4.1913 126.662 4.1913C126.662 4.1913 126.415 4.02694 125.347 3.86258C124.813 3.73931 124.032 3.73931 122.964 3.7804C122.676 3.7804 122.389 3.7804 122.101 3.7804C121.772 3.7804 121.444 3.86258 121.115 3.90367C120.416 4.02694 119.636 4.10912 118.814 4.27347C117.91 4.47892 117.006 4.72546 116.143 4.93091C115.239 5.17745 114.335 5.50616 113.39 5.79379C112.486 6.08142 111.582 6.41014 110.72 6.73885C109.857 7.06757 108.994 7.39629 108.213 7.725C107.802 7.88936 107.474 8.05372 107.063 8.21808C108.419 7.56065 109.733 6.9443 110.966 6.41014C115.732 4.31456 119.636 3.08187 122.389 2.50662C123.745 2.21899 124.813 2.09572 125.552 2.01354C126.292 2.01354 126.662 1.97245 126.662 1.97245C126.662 1.97245 126.292 1.97245 125.552 1.97245C124.854 2.05463 123.786 2.13681 122.389 2.42444C119.636 2.95861 115.732 4.1913 110.925 6.24578C109.816 6.73885 108.665 7.23193 107.432 7.80718C107.679 7.68391 107.843 7.60174 108.09 7.47847C108.829 7.06757 109.651 6.69776 110.473 6.28687C111.295 5.87597 112.158 5.42398 113.062 5.01309C113.924 4.60219 114.787 4.1913 115.691 3.7804C116.513 3.41059 117.376 3.04079 118.239 2.67098C119.06 2.34226 119.841 2.05463 120.499 1.8081C120.827 1.68483 121.156 1.56156 121.444 1.43829C121.731 1.35611 122.019 1.23284 122.306 1.15066C123.416 0.780855 124.238 0.493228 124.895 0.328869C126.169 0.000151932 126.539 -0.246386 126.539 -0.246386C126.539 -0.246386 125.799 -0.246386 124.607 -0.287476C123.991 -0.287476 123.293 -0.205296 122.512 -0.164207C122.101 -0.164207 121.69 -0.0820274 121.279 -0.0409377C120.868 0.000151902 120.416 0.123421 119.964 0.2056C119.06 0.369959 118.115 0.534317 117.17 0.821945C116.225 1.06848 115.239 1.35611 114.294 1.68483C113.349 2.01354 112.404 2.38335 111.5 2.75316C110.596 3.12296 109.774 3.57495 108.953 3.98585C107.35 4.80764 106.2 5.67052 105.337 6.45123C104.474 7.19084 103.899 7.84827 103.529 8.42353C102.995 9.24532 102.872 9.77949 102.831 10.026C97.7767 12.6558 92.1476 15.984 86.1897 20.0108C87.5046 18.9425 89.0659 17.8331 90.504 16.6004C91.2436 16.0251 91.9832 15.4088 92.7639 14.7513C93.5035 14.135 94.202 13.5186 94.8594 12.9434C96.1742 11.7518 97.2014 10.7656 97.9821 9.90275C98.7628 9.03987 99.2969 8.34135 99.6667 7.76609C100.406 6.65667 100.447 6.04033 100.447 6.04033C100.447 6.04033 99.8722 6.28687 98.845 6.73885C97.8178 7.14975 96.4618 7.84827 94.9005 8.67006C94.1198 9.08096 93.298 9.49186 92.4763 9.98493C91.6545 10.478 90.7916 11.0122 89.9699 11.5463C88.2852 12.6147 86.765 13.8884 85.4501 15.1211C84.1353 16.3538 83.2725 17.5454 82.6561 18.5727C82.0398 19.5999 81.7111 20.5039 81.5468 21.2435C81.3002 22.3118 81.3824 23.0103 81.4235 23.3391C79.1225 25.0237 76.7805 26.7495 74.3974 28.5985C71.8088 30.653 69.2202 32.8308 66.5906 35.1318C67.0836 34.5976 67.5767 34.0635 68.1108 33.4882C68.7683 32.8308 69.3846 32.0912 70.042 31.3926C70.6583 30.653 71.3157 29.9134 71.891 29.1738C72.5073 28.4342 73.0825 27.6946 73.6167 26.955C74.685 25.4757 75.3835 24.1609 75.9587 23.0514C76.4929 21.942 76.8216 20.997 76.9859 20.2573C77.3146 18.737 77.1092 17.9563 77.1092 17.9563C77.1092 17.9563 76.5751 18.285 75.63 18.9014C74.7261 19.5177 73.4112 20.3395 72.0553 21.4079C71.3568 21.942 70.6172 22.5173 69.8776 23.1336C69.1381 23.75 68.3985 24.4074 67.7 25.1059C66.303 26.503 64.947 27.9822 63.9198 29.5025C61.9065 32.5842 61.4545 35.1318 61.5367 36.8986C61.6189 38.0902 61.8654 38.912 62.0298 39.3229C59.1125 42.0349 56.2363 44.87 53.3601 47.8696C51.922 49.3899 50.525 50.9513 49.128 52.5538C49.4567 52.0607 49.7854 51.5676 50.1141 51.0746C50.6483 50.2939 51.1824 49.4721 51.6755 48.6503C52.1685 47.8285 52.6616 46.9656 53.1136 46.1027C53.5655 45.2398 54.0175 44.4181 54.3873 43.5552C55.1269 41.8705 55.5789 40.3502 55.8254 39.0353C56.0719 37.7615 56.1541 36.6521 56.113 35.7892C56.0309 34.0224 55.5378 33.0773 55.5378 33.0773C55.5378 33.0773 55.0447 33.4882 54.1819 34.2278C53.771 34.5976 53.2779 35.0496 52.7027 35.5427C52.1685 36.0358 51.5933 36.6521 50.977 37.2685C50.3607 37.9259 49.7443 38.5833 49.0869 39.3229C48.4295 40.0625 47.7721 40.8022 47.2379 41.665C46.0464 43.3086 45.0192 45.0755 44.2796 46.8013C42.9237 50.376 43.1291 53.2112 43.7043 55.1014C44.1152 56.3751 44.6083 57.238 44.8959 57.69C41.1569 62.292 37.5822 67.1817 34.2951 72.4001C34.8703 71.1263 35.4456 69.8114 35.9797 68.3322C36.3084 67.4282 36.596 66.4421 36.8837 65.497C37.1713 64.552 37.4178 63.6069 37.5822 62.6618C37.952 60.7717 37.993 59.0871 37.952 57.69C37.9109 56.2519 37.6643 55.0603 37.3767 54.0741C36.8015 52.1429 35.9797 51.1157 35.9797 51.1157C35.9797 51.1157 35.5277 51.6087 34.7882 52.4716C34.0896 53.3345 33.0624 54.5261 32.0352 56.0053C31.0491 57.4846 29.9808 59.2514 29.0769 61.0594C28.214 62.9495 27.5566 64.9218 27.2279 66.853C26.8581 68.7842 27.0635 70.5511 27.3922 72.0303C27.7209 73.5095 28.2551 74.7422 28.8303 75.7284C29.5699 77.0021 30.3506 77.8239 30.8026 78.2759C27.9264 83.4121 25.3378 88.836 23.1601 94.4652C23.4478 93.1504 23.6532 91.7533 23.8176 90.2741C23.8997 89.2879 24.0641 88.3018 24.1052 87.3156C24.1873 86.3295 24.1873 85.3022 24.1052 84.3161C23.9408 82.3027 23.6532 80.618 23.2012 79.1388C22.7493 77.6596 22.174 76.4269 21.5577 75.4407C20.4072 73.4684 19.2157 72.4412 19.2157 72.4412C19.2157 72.4412 17.7365 74.7422 16.2162 78.1116C15.8464 78.9333 15.5177 79.8784 15.189 80.8646C14.8603 81.8507 14.6138 82.8369 14.3672 83.8641C14.1207 84.8913 13.9152 85.9597 13.8742 87.028C13.792 88.0963 13.8331 89.1647 13.8742 90.1919C14.0796 92.2464 14.6138 93.9722 15.4355 95.4514C16.2162 96.8895 17.1612 98.04 18.0652 98.944C19.2157 100.095 20.2429 100.793 20.9003 101.122C20.6537 101.985 20.325 102.806 20.0785 103.669C18.7226 108.477 17.7776 113.49 17.2023 118.503C17.2023 118.092 17.1612 117.681 17.1201 117.27C16.9969 116.325 16.8325 115.339 16.7503 114.353C16.5038 112.38 16.0518 110.326 15.3123 108.354C14.0796 104.491 11.943 101.697 10.094 99.848C8.28614 98.04 6.76587 97.2182 6.76587 97.2182C6.76587 97.2182 6.72478 97.3826 6.60151 97.6702C6.47825 97.9989 6.3139 98.4098 6.14954 98.9851C5.82084 100.136 5.45104 101.738 5.12233 103.628C4.99907 104.573 4.79363 105.559 4.75254 106.628C4.71145 107.696 4.71145 108.764 4.75254 109.874C4.79363 110.983 4.91689 112.093 5.12233 113.161C5.28669 114.229 5.69757 115.339 6.10845 116.325C6.97131 118.338 8.0807 119.941 9.27226 121.215C10.4638 122.488 11.9019 123.392 13.0935 124.05C14.6138 124.872 15.8464 125.282 16.6271 125.488C16.586 126.803 16.5038 128.077 16.5038 129.391C16.5038 132.268 16.5038 135.185 16.6682 138.102C16.7503 139.746 16.8736 141.39 16.9558 143.033C16.8736 142.704 16.7914 142.417 16.6682 142.047C16.3806 141.143 16.0929 140.198 15.7231 139.294C15.3533 138.349 14.9014 137.404 14.4083 136.5C13.9152 135.596 13.4222 134.692 12.8059 133.829C11.6143 132.103 10.2173 130.747 8.82029 129.597C7.46437 128.487 6.10845 127.542 4.8758 126.885C2.45159 125.529 0.520433 125.118 0.520433 125.118C0.520433 125.118 0.438256 125.858 0.397168 127.049C0.397168 127.666 0.356079 128.364 0.397168 129.186C0.397168 129.926 0.520433 130.788 0.60261 131.692C0.725875 132.596 0.84914 133.541 1.01349 134.528C1.21894 135.514 1.42438 136.5 1.79417 137.527C2.45159 139.541 3.35553 141.513 4.62927 143.28C5.90301 145.005 7.46437 146.32 8.98464 147.348C10.5049 148.334 12.1074 149.032 13.5044 149.484C14.9014 149.936 16.1751 150.183 17.0791 150.306C17.2845 150.306 17.4078 150.306 17.5721 150.347C18.1474 156.182 19.0102 161.934 20.1607 167.646C20.0374 167.358 19.9142 167.071 19.7498 166.783C19.3389 165.92 18.8459 165.057 18.3117 164.194C17.2023 162.427 16.0108 160.661 14.4494 159.14C13.6687 158.36 12.888 157.661 12.0252 157.045C11.2034 156.428 10.4227 155.894 9.60097 155.442C7.95743 154.497 6.35498 153.84 4.95798 153.388C3.4788 152.895 2.20506 152.648 1.3422 152.484C1.87635 156.921 2.57485 161.318 3.4788 165.632C3.76642 166.167 4.01295 166.66 4.34165 167.153C4.95798 168.057 5.65648 168.92 6.47825 169.741C8.03961 171.303 9.92968 172.412 11.7787 173.193C13.6276 173.974 15.4766 174.385 17.1201 174.631C19.1335 174.919 20.777 174.919 21.7631 174.878C23.1601 180.589 24.8859 186.177 26.9403 191.601C26.7759 191.355 26.6116 191.108 26.4061 190.82C25.8309 190.04 25.1735 189.259 24.4339 188.478C23.6943 187.698 22.9547 186.917 22.1329 186.177C21.3112 185.438 20.4072 184.739 19.4211 184.082C17.4489 182.808 15.4766 181.863 13.5455 181.205C11.6143 180.548 9.72423 180.137 8.03961 179.891C7.75199 179.891 7.50546 179.85 7.21784 179.808C9.10791 185.725 11.3678 191.478 13.9152 197.066C15.4766 197.847 17.0791 198.422 18.6815 198.71C20.8181 199.121 22.9136 199.203 24.6804 199.121C26.817 199.038 28.5838 198.71 29.6521 198.463C30.515 200.477 31.4189 202.49 32.3639 204.421C33.9664 207.667 35.7743 210.749 37.6233 213.79C37.4589 213.666 37.3767 213.543 37.2124 213.42C36.4728 212.762 35.6921 212.105 34.7882 211.489C33.9253 210.872 32.9392 210.297 31.9941 209.681C31.008 209.105 29.9397 208.571 28.8303 208.16C27.7209 207.708 26.5294 207.38 25.3789 207.092C24.2695 206.804 23.1601 206.599 22.0508 206.435C20.777 206.27 19.5854 206.229 18.3939 206.188C21.4755 211.858 24.968 217.282 28.7071 222.459C29.5699 222.542 30.4328 222.624 31.2546 222.624C33.5144 222.624 35.5688 222.295 37.2945 221.843C39.349 221.309 40.9103 220.734 41.9375 220.282C44.5672 223.98 47.3612 227.513 50.3196 230.718C51.1003 231.54 51.8809 232.28 52.6616 233.061C51.8398 232.65 51.0181 232.157 50.1141 231.746C49.128 231.294 48.1008 230.883 46.9914 230.554C45.882 230.225 44.7726 229.897 43.5811 229.691C41.1979 229.239 38.8148 229.198 36.596 229.363C35.8154 229.404 35.0758 229.527 34.2951 229.609C38.2396 234.375 42.5128 238.895 46.9914 243.169C48.0186 243.086 49.0458 243.004 49.9498 242.799C52.0453 242.347 53.8943 241.648 55.3734 240.95C56.9348 240.21 58.1264 239.429 58.9481 238.895C63.057 242.429 67.3302 245.511 71.6034 248.14C71.1103 248.017 70.6172 247.853 70.0831 247.771C69.0559 247.565 68.0287 247.319 66.9193 247.195C65.8099 247.072 64.7005 246.99 63.5089 247.031C61.208 247.031 59.0303 247.401 57.017 247.935C55.8254 248.264 54.716 248.675 53.6477 249.086C57.7155 252.496 61.9065 255.701 66.303 258.659C66.6317 258.659 67.0015 258.659 67.3302 258.659C68.5628 258.577 69.6722 258.372 70.7405 258.125C71.8088 257.838 72.7949 257.509 73.6578 257.139C75.4246 256.4 76.8627 255.537 77.9721 254.756C78.9582 254.016 79.6978 253.359 80.2319 252.784C84.6695 254.92 88.9837 256.605 93.1337 257.961C92.2708 257.961 91.4491 257.961 90.5862 257.961C89.559 257.961 88.4907 258.084 87.4224 258.29C86.3541 258.495 85.368 258.742 84.4229 259.07C83.4779 259.358 82.6151 259.687 81.7933 260.056C80.1497 260.796 78.7527 261.7 77.6023 262.563C76.7394 263.22 76.082 263.796 75.5478 264.33C77.1914 265.275 78.8349 266.179 80.5195 267.042C80.725 267.042 80.8893 267.124 81.0948 267.124C83.1492 267.288 85.4912 267.37 87.7922 267.288C90.1753 267.124 92.5584 266.754 94.695 266.22C96.8727 265.645 98.5984 264.864 99.9954 264.083C101.392 263.344 102.42 262.604 103.2 261.906C103.611 261.577 103.94 261.207 104.186 260.919C104.556 261.002 104.967 261.084 105.337 261.166C108.46 261.823 111.377 262.275 114.007 262.604C114.171 262.604 114.294 262.604 114.5 262.645C114.048 262.727 113.596 262.768 113.185 262.892C111.295 263.344 109.774 264.042 108.46 264.7C107.145 265.357 106.159 266.138 105.337 266.877C103.734 268.315 103.159 269.507 103.159 269.507C103.159 269.507 103.858 269.507 105.09 269.384C105.666 269.302 106.405 269.261 107.227 269.178C108.049 269.096 108.912 269.014 109.898 268.809C110.843 268.644 111.87 268.398 112.897 268.192C113.924 267.946 114.993 267.699 116.061 267.453C117.129 267.165 118.198 266.795 119.225 266.466C120.252 266.138 121.238 265.809 122.183 265.48C124.032 264.864 125.47 264.165 126.621 263.713C126.662 263.713 126.744 263.672 126.785 263.631C127.936 263.672 128.922 263.672 129.538 263.672C130.278 263.672 130.647 263.672 130.647 263.672C131.675 263.672 132.496 262.892 132.496 261.906C132.496 260.919 131.675 260.139 130.688 260.098L130.565 260.632Z" fill="url(#paint0_linear_545_1341)"/>
<defs>
<linearGradient id="paint0_linear_545_1341" x1="0.273903" y1="0.000152426" x2="132.373" y2="0.000152426" gradientUnits="userSpaceOnUse">
<stop stop-color="#965B00"/>
<stop offset="0.01" stop-color="#9A6002"/>
<stop offset="0.12" stop-color="#C5901A"/>
<stop offset="0.22" stop-color="#E5B32C"/>
<stop offset="0.3" stop-color="#F8C937"/>
<stop offset="0.35" stop-color="#FFD13B"/>
<stop offset="0.43" stop-color="#F6C735"/>
<stop offset="0.55" stop-color="#E1AD28"/>
<stop offset="0.71" stop-color="#BE8412"/>
<stop offset="0.82" stop-color="#A16100"/>
<stop offset="0.98" stop-color="#F6BC4C"/>
<stop offset="1" stop-color="#FFC654"/>
</linearGradient>
</defs>
</svg>
