<svg width="95" height="193" viewBox="0 0 95 193" fill="none" xmlns="http://www.w3.org/2000/svg">
<path d="M92.8408 186.311H92.8115C92.8115 186.311 92.548 186.311 92.0503 186.311C91.6111 186.311 90.9963 186.311 90.2351 186.311C90.1765 186.282 90.1179 186.253 90.0301 186.223C89.6202 186.018 89.181 185.783 88.7419 185.578C88.4784 185.461 88.2441 185.314 87.9806 185.197C87.7171 185.05 87.4244 184.874 87.1316 184.727C85.9605 184.053 84.6722 183.378 83.4133 182.674C82.7984 182.322 82.1836 181.97 81.5981 181.618C81.0125 181.295 80.4562 180.943 79.9292 180.679C79.4022 180.415 78.9338 180.122 78.4946 179.858C78.0554 179.623 77.6748 179.388 77.3528 179.212C76.7379 178.86 76.328 178.684 76.328 178.684C76.328 178.684 76.328 179.594 76.855 180.943C77.1185 181.618 77.5284 182.381 78.1725 183.143C78.7874 183.935 79.6657 184.639 80.8075 185.285C81.1003 185.461 81.4517 185.578 81.7737 185.725C81.6273 185.725 81.4809 185.725 81.3346 185.666C79.5193 185.431 77.4991 185.167 75.3326 184.727C75.0691 184.669 74.8056 184.61 74.5421 184.551C74.4542 184.287 74.3664 183.994 74.22 183.642C73.9565 182.967 73.5759 182.146 73.0489 181.237C72.5219 180.327 71.8192 179.359 70.9409 178.244C70.531 177.687 70.0625 177.13 69.5941 176.602C69.1256 176.074 68.6572 175.575 68.1888 175.106C67.2811 174.079 66.3442 173.17 65.5537 172.466C65.1438 172.084 64.7925 171.732 64.4412 171.41C64.1191 171.116 63.7971 170.852 63.5628 170.647C63.0651 170.236 62.743 170.002 62.743 170.002C62.743 170.002 62.3039 171.263 62.1868 173.17C62.1282 174.108 62.1868 175.223 62.4503 176.396C62.5967 176.983 62.7723 177.57 63.0358 178.186C63.2993 178.743 63.6507 179.33 64.0606 179.917C64.4997 180.474 64.9682 181.031 65.4952 181.501C65.9051 181.911 66.3442 182.205 66.7834 182.527C63.9434 181.618 60.9571 180.503 57.9122 179.036C58 178.508 58.0879 177.834 58.1171 177.012C58.1757 176.044 58.1464 174.9 58.0293 173.668C57.9707 173.052 57.8829 172.407 57.7365 171.762C57.6194 171.087 57.473 170.383 57.2681 169.679C57.0631 168.975 56.8289 168.3 56.5654 167.655C56.3019 167.039 56.0384 166.364 55.7456 165.777C55.4821 165.191 55.1893 164.633 54.8966 164.135C54.6038 163.636 54.311 163.137 54.0475 162.697C53.784 162.257 53.5205 161.847 53.257 161.524C53.0228 161.172 52.7885 160.908 52.6129 160.644C52.2615 160.145 52.0273 159.881 52.0273 159.881C52.0273 159.881 51.0319 161.231 50.1535 163.313C49.7144 164.369 49.3337 165.572 49.1288 166.922C48.9531 168.242 48.9239 169.738 49.3045 171.175C49.5094 171.908 49.7729 172.583 50.095 173.228C50.417 173.874 50.7976 174.519 51.2368 175.076C51.471 175.34 51.7053 175.575 51.9102 175.839C48.9238 174.05 45.9668 171.938 43.0975 169.532C43.4196 168.916 43.888 168.066 44.3272 166.98C44.7664 165.924 45.1763 164.692 45.5276 163.343C45.8789 161.964 46.1424 160.497 46.201 159.001C46.201 158.62 46.201 158.268 46.201 157.916C46.201 157.535 46.201 157.183 46.1717 156.831C46.1424 156.127 46.0546 155.452 45.9375 154.807C45.8789 154.484 45.8204 154.191 45.7325 153.897C45.674 153.604 45.6154 153.281 45.5276 153.017C45.3812 152.46 45.2348 151.902 45.0592 151.433C44.8835 150.964 44.7078 150.553 44.5614 150.142C44.415 149.761 44.2687 149.409 44.1223 149.145C43.8588 148.617 43.6538 148.324 43.6538 148.324C43.6538 148.324 42.2192 149.497 40.6675 151.433C39.877 152.401 39.0865 153.575 38.4423 154.924C37.7982 156.244 37.3591 157.711 37.2419 159.295C37.1834 160.087 37.2127 160.879 37.3298 161.612C37.4469 162.345 37.6518 163.079 37.8861 163.753C38.091 164.311 38.3252 164.868 38.5887 165.367C38.091 164.868 37.564 164.399 37.0663 163.871C34.9875 161.641 33.0259 159.207 31.1521 156.655C31.7084 156.097 32.4696 155.276 33.348 154.161C34.1385 153.164 34.9583 151.99 35.7195 150.7C36.4807 149.409 37.0956 148.001 37.564 146.534C37.7982 145.801 37.9446 145.068 38.0324 144.364C38.1203 143.66 38.1496 143.014 38.1788 142.369C38.1788 141.078 38.0324 139.905 37.7982 138.937C37.3883 136.942 36.6564 135.651 36.6564 135.651C36.6564 135.651 35.0168 136.502 33.1138 138.115C32.1769 138.908 31.1521 139.905 30.2445 141.108C29.7761 141.694 29.3662 142.34 28.9856 143.044C28.6342 143.718 28.3122 144.452 28.0779 145.214C27.8437 145.977 27.6973 146.74 27.6095 147.502C27.5217 148.265 27.5509 149.028 27.6095 149.732C27.668 150.436 27.7852 151.14 27.9315 151.814C27.9315 151.873 27.9608 151.932 27.9901 152.02C26.7019 149.966 25.4722 147.854 24.3596 145.654C23.657 144.305 23.0421 142.897 22.398 141.489C23.0421 141.049 24.0376 140.374 25.2087 139.406C26.1749 138.585 27.2289 137.587 28.1658 136.473C29.1027 135.358 29.9517 134.097 30.5666 132.718C30.8593 132.043 31.0936 131.339 31.2692 130.694C31.4156 130.049 31.5035 129.374 31.562 128.758C31.6206 128.113 31.6498 127.497 31.5913 126.91C31.5913 126.323 31.4742 125.795 31.4156 125.267C31.2985 124.24 31.035 123.36 30.8593 122.744C30.6544 122.128 30.508 121.776 30.508 121.776C30.508 121.776 30.0981 121.923 29.454 122.216C28.8099 122.51 27.9315 122.95 26.9654 123.595C25.9992 124.211 24.9745 125.003 23.979 126.001C23.0128 126.998 22.0467 128.201 21.4318 129.609C21.1098 130.313 20.8463 131.046 20.6706 131.779C20.4949 132.513 20.3486 133.246 20.3193 133.979C20.2607 134.683 20.2607 135.387 20.3193 136.062C20.3193 136.238 20.3486 136.385 20.3778 136.531C18.9432 132.777 17.7135 128.905 16.6888 124.915C17.3329 124.622 18.3577 124.123 19.5288 123.36C20.4949 122.715 21.5782 121.952 22.5444 120.984C23.5106 120.046 24.3889 118.931 25.0916 117.67C25.4429 117.024 25.6771 116.379 25.8821 115.763C26.087 115.118 26.2041 114.472 26.3213 113.827C26.5555 112.566 26.5555 111.334 26.5262 110.277C26.5262 109.192 26.4091 108.253 26.3213 107.608C26.2334 106.933 26.1163 106.552 26.1163 106.552C26.1163 106.552 24.6524 106.875 22.8079 107.843C21.9003 108.312 20.8756 108.957 19.9094 109.808C19.4117 110.248 18.9432 110.717 18.4748 111.246C18.0356 111.774 17.6257 112.36 17.2451 113.006C16.8645 113.651 16.5717 114.326 16.3375 115.03C16.074 115.734 15.8983 116.438 15.7519 117.112C15.6348 117.816 15.5177 118.491 15.4884 119.166C15.4884 119.342 15.4884 119.488 15.4884 119.635C14.6686 115.675 14.0245 111.656 13.5853 107.608C14.2002 107.403 15.1371 107.051 16.2496 106.464C17.1865 105.965 18.2113 105.349 19.2067 104.528C20.1729 103.707 21.0805 102.739 21.8417 101.536C22.6322 100.333 23.13 99.0719 23.4813 97.8105C23.6277 97.1652 23.8034 96.5492 23.9205 95.9331C24.0376 95.3171 24.0961 94.7304 24.1547 94.2024C24.2132 93.6451 24.2425 93.1464 24.2718 92.6771C24.3011 92.2664 24.3304 91.885 24.3596 91.5917C24.3596 90.9757 24.3596 90.6237 24.3596 90.6237C24.3596 90.6237 22.9836 90.741 21.1976 91.4157C20.29 91.7677 19.2653 92.2371 18.2991 92.9411C17.3329 93.6744 16.3668 94.6131 15.547 95.8451C15.1371 96.4612 14.7857 97.1065 14.4637 97.7519C14.1709 98.3972 13.9367 99.1012 13.7317 99.7759C13.5268 100.451 13.3511 101.125 13.234 101.8C13.2047 101.976 13.2047 102.123 13.1755 102.299C13.0876 101.213 12.9998 100.099 12.9412 99.0132C12.8241 96.9598 12.7948 94.9064 12.7656 92.8237C12.7656 91.9144 12.7656 91.005 12.8241 90.0957C13.3804 89.9783 14.3173 89.773 15.4591 89.333C16.3668 88.981 17.3329 88.5116 18.3577 87.8956C19.3824 87.2796 20.4071 86.4876 21.2562 85.5196C21.6953 85.0209 22.0174 84.5222 22.4273 83.9942C22.8079 83.4662 23.13 82.9382 23.3935 82.3808C23.6862 81.8528 23.9205 81.2955 24.0961 80.7674C24.3011 80.2394 24.5353 79.7408 24.711 79.2421C25.0623 78.274 25.2673 77.4234 25.4136 76.8074C25.4722 76.4847 25.56 76.25 25.5893 76.074C25.6186 75.898 25.6479 75.81 25.6479 75.81C25.6479 75.81 24.4182 75.634 22.6322 75.9273C20.9048 76.2207 18.6797 77.0127 16.601 78.9781C15.6641 79.9754 14.8443 81.1781 14.2002 82.4101C13.8488 83.0262 13.5853 83.6715 13.3804 84.2875C13.2926 84.4929 13.2633 84.6689 13.2047 84.8742C13.5853 81.4128 14.2002 78.01 15.1078 74.666C15.2835 74.0499 15.4884 73.4633 15.6641 72.8473C16.1911 72.8473 17.0694 72.8473 18.1527 72.6419C19.031 72.4952 20.0558 72.2312 21.0805 71.8206C22.076 71.3805 23.1885 70.8232 24.2425 70.0312C24.7695 69.6205 25.238 69.1805 25.6479 68.7112C26.0578 68.2418 26.4969 67.7431 26.8775 67.2738C27.2582 66.7751 27.6388 66.2764 27.9315 65.7777C28.2536 65.2791 28.5171 64.7804 28.8099 64.3404C29.9225 62.5217 30.508 61.0256 30.508 61.0256C30.508 61.0256 29.454 60.703 27.873 60.7323C27.0532 60.7323 26.1163 60.879 25.0916 61.1723C24.0669 61.4656 22.8957 61.9643 21.8125 62.7857C21.2562 63.1964 20.7292 63.6364 20.2314 64.135C19.7337 64.6337 19.236 65.1324 18.7968 65.6897C18.182 66.5111 17.655 67.3325 17.1573 68.1538C18.6212 64.1644 20.4364 60.3216 22.4273 56.6549C22.5151 56.6549 22.5737 56.6842 22.7201 56.7135C23.1885 56.7722 23.8912 56.8602 24.711 56.8309C25.5308 56.8309 26.4969 56.7135 27.5217 56.4495C28.0487 56.3029 28.5464 56.1268 29.0734 55.8922C29.6004 55.6575 30.1274 55.3642 30.713 55.0415C31.8255 54.3668 32.821 53.4868 33.7286 52.5774C34.6655 51.6681 35.4853 50.7294 36.1587 49.8494C36.8321 48.9693 37.4469 48.2067 37.8275 47.6493C38.2374 47.092 38.4423 46.74 38.4423 46.74C38.4423 46.74 37.5933 46.3293 36.1587 46.2706C35.4267 46.2413 34.5776 46.2706 33.5822 46.4759C32.5867 46.6813 31.5035 47.092 30.3323 47.7373C29.7468 48.06 29.1612 48.4413 28.6049 48.852C28.0194 49.2627 27.5217 49.732 26.9947 50.2014C26.2041 50.9641 25.4429 51.7561 24.7988 52.5188C27.1118 48.764 29.6297 45.2733 32.2354 41.9585C32.616 42.0758 33.2894 42.2518 34.2263 42.3105C35.6902 42.3985 37.7397 42.2225 39.9355 41.0198C41.0774 40.4331 42.1899 39.6704 43.1854 38.8198C43.6831 38.3798 44.1808 37.9984 44.6493 37.5584C45.1177 37.1477 45.5569 36.737 45.9668 36.3264C46.3767 35.9157 46.7573 35.5344 47.0793 35.1823C47.4307 34.8303 47.7234 34.537 47.9577 34.273C48.4554 33.745 48.7189 33.4223 48.7189 33.4223C48.7189 33.4223 48.0455 33.041 46.7866 32.9236C46.1424 32.865 45.3812 32.865 44.4443 33.041C43.5367 33.1876 42.4827 33.5396 41.2823 34.0676C40.6967 34.361 40.0819 34.6543 39.4963 35.0357C38.9108 35.3877 38.3252 35.7984 37.7689 36.209C37.2127 36.6197 36.6564 37.0597 36.1587 37.4704C35.8073 37.7344 35.5438 38.0277 35.251 38.2918C36.2172 37.1771 37.2127 36.033 38.2081 34.977C40.199 32.8063 42.2485 30.7822 44.2979 28.8169C44.5907 28.9342 45.1763 29.1395 46.0253 29.2275C47.2843 29.3449 49.1581 29.2275 51.4125 28.1422C51.9688 27.8782 52.5543 27.5848 53.1106 27.2328C53.6669 26.9101 54.2232 26.5288 54.7794 26.1475C55.3064 25.7661 55.8627 25.3848 56.3605 25.0034C56.8582 24.6221 57.3559 24.2407 57.8243 23.8594C58.7027 23.1261 59.5225 22.51 60.0495 22.0114C60.6058 21.542 60.9278 21.2487 60.9278 21.2487C60.9278 21.2487 60.4301 20.926 59.3468 20.8673C58.7905 20.838 58.1171 20.8673 57.2388 20.9847C56.3605 21.1313 55.365 21.4247 54.1646 21.894C53.579 22.158 52.9642 22.422 52.3494 22.7447C51.7638 23.0674 51.149 23.4194 50.5634 23.7714C49.9779 24.1234 49.3923 24.5048 48.836 24.8568C48.4554 25.1208 48.0748 25.4141 47.7234 25.6781C49.5094 24.0941 51.2954 22.5394 53.0813 21.1313C54.7502 19.782 56.3897 18.5206 58.0293 17.3179C58.2635 17.4352 58.732 17.5819 59.4932 17.6406C60.0495 17.6993 60.7521 17.6699 61.6012 17.5233C62.4503 17.3766 63.4164 17.0539 64.5583 16.6139C65.1146 16.3792 65.7001 16.0859 66.2857 15.7925C66.8712 15.4699 67.4568 15.1472 68.0131 14.8245C68.5986 14.5018 69.1549 14.1498 69.7112 13.7978C70.2675 13.4458 70.7945 13.1231 71.2922 12.8005C73.2831 11.5098 74.7177 10.5711 74.7177 10.5711C74.7177 10.5711 74.3664 10.3657 73.4295 10.3364C72.9611 10.3364 72.3169 10.3364 71.5264 10.5417C70.7359 10.6884 69.7405 10.9524 68.5401 11.3631C67.9545 11.5978 67.3397 11.8324 66.7249 12.0965C66.11 12.3605 65.4659 12.6538 64.8511 12.9765C63.6799 13.5925 62.5381 14.1792 61.5427 14.7952C65.7001 11.9204 69.6234 9.54439 73.166 7.66701C73.3124 7.72568 73.7223 7.87235 74.425 7.90168C74.8934 7.90168 75.5375 7.90168 76.328 7.72568C77.1185 7.57901 78.0554 7.315 79.2265 6.93366C79.8121 6.72832 80.3977 6.49365 81.0125 6.25898C81.6273 6.02431 82.2422 5.78963 82.857 5.52563C83.4718 5.29095 84.0867 5.05628 84.6722 4.82161C85.2578 4.5576 85.8434 4.41093 86.3704 4.2056C86.6339 4.11759 86.8974 4.00026 87.1609 3.94159C87.4244 3.88292 87.6586 3.79492 87.8635 3.73625C88.3027 3.61891 88.7126 3.47224 89.0347 3.44291C89.6788 3.32557 90.0594 3.23757 90.0594 3.23757C90.0594 3.23757 89.8837 3.12024 89.1225 3.0029C88.7419 2.9149 88.1856 2.9149 87.4244 2.94423C87.2194 2.94423 87.0145 2.94423 86.8095 2.94423C86.5753 2.94423 86.3411 3.0029 86.1069 3.03223C85.6091 3.12024 85.0529 3.1789 84.4673 3.29624C83.8232 3.44291 83.1791 3.61891 82.5642 3.76558C81.9201 3.94159 81.276 4.17626 80.6026 4.3816C79.9585 4.58694 79.3144 4.82161 78.6995 5.05628C78.0847 5.29095 77.4699 5.52563 76.9136 5.7603C76.6208 5.87764 76.3866 5.99497 76.0938 6.11231C77.06 5.64296 77.9969 5.20295 78.8752 4.82161C82.2714 3.32557 85.0528 2.44555 87.0145 2.03488C87.9807 1.82954 88.7419 1.74154 89.2689 1.68287C89.7959 1.68287 90.0594 1.65353 90.0594 1.65353C90.0594 1.65353 89.7959 1.65353 89.2689 1.65353C88.7712 1.7122 88.0099 1.77087 87.0145 1.97621C85.0528 2.35755 82.2714 3.23757 78.8459 4.70427C78.0554 5.05628 77.2356 5.40829 76.3573 5.81897C76.533 5.73097 76.6501 5.6723 76.8257 5.5843C77.3528 5.29096 77.9383 5.02695 78.5239 4.73361C79.1094 4.44027 79.7243 4.11759 80.3684 3.82425C80.9832 3.53091 81.5981 3.23757 82.2422 2.94423C82.8277 2.68022 83.4426 2.41622 84.0574 2.15221C84.643 1.91754 85.1992 1.7122 85.6677 1.5362C85.9019 1.4482 86.1361 1.36019 86.3411 1.27219C86.546 1.21352 86.751 1.12552 86.9559 1.06685C87.7464 0.802846 88.332 0.597508 88.8004 0.480172C89.708 0.245499 89.9715 0.0694952 89.9715 0.0694952C89.9715 0.0694952 89.4445 0.0694952 88.5955 0.0401611C88.1563 0.0401611 87.6586 0.0988292 87.1023 0.128163C86.8095 0.128163 86.5168 0.186831 86.224 0.216165C85.9312 0.245499 85.6091 0.333502 85.2871 0.39217C84.643 0.509506 83.9696 0.626842 83.2962 0.83218C82.6228 1.00818 81.9201 1.21352 81.2467 1.4482C80.5733 1.68287 79.8999 1.94687 79.2558 2.21088C78.6117 2.47489 78.0261 2.79756 77.4406 3.0909C76.2987 3.67758 75.479 4.2936 74.8641 4.85094C74.2493 5.37896 73.8394 5.8483 73.5759 6.25898C73.1953 6.84566 73.1074 7.227 73.0782 7.40301C69.477 9.28038 65.4659 11.6564 61.2206 14.5312C62.1575 13.7685 63.27 12.9765 64.2948 12.0965C64.8218 11.6858 65.3488 11.2458 65.9051 10.7764C66.4321 10.3364 66.9298 9.8964 67.3982 9.48572C68.3351 8.63504 69.0671 7.93102 69.6234 7.315C70.1796 6.69899 70.5603 6.20031 70.8238 5.78963C71.3508 4.99761 71.38 4.5576 71.38 4.5576C71.38 4.5576 70.9702 4.73361 70.2382 5.05628C69.5063 5.34962 68.5401 5.8483 67.4275 6.43498C66.8712 6.72832 66.2857 7.02166 65.7001 7.37367C65.1146 7.72568 64.4997 8.10702 63.9142 8.48837C62.7138 9.25105 61.6305 10.1604 60.6936 11.0404C59.7567 11.9204 59.1419 12.7711 58.7027 13.5045C58.2635 14.2378 58.0293 14.8832 57.9122 15.4112C57.7365 16.1739 57.7951 16.6726 57.8243 16.9072C56.1848 18.1099 54.5159 19.342 52.8178 20.662C50.9733 22.1287 49.1288 23.6834 47.255 25.3261C47.6063 24.9448 47.9577 24.5634 48.3383 24.1527C48.8067 23.6834 49.2459 23.1554 49.7144 22.6567C50.1535 22.1287 50.622 21.6007 51.0319 21.0727C51.471 20.5447 51.8809 20.0166 52.2615 19.4886C53.0228 18.4326 53.5205 17.4939 53.9304 16.7019C54.311 15.9099 54.5452 15.2352 54.6623 14.7072C54.8966 13.6218 54.7502 13.0645 54.7502 13.0645C54.7502 13.0645 54.3696 13.2991 53.6962 13.7392C53.052 14.1792 52.1151 14.7659 51.149 15.5285C50.6512 15.9099 50.1242 16.3206 49.5972 16.7606C49.0702 17.2006 48.5432 17.6699 48.0455 18.1686C47.0501 19.166 46.0839 20.222 45.3519 21.3073C43.9173 23.5074 43.5953 25.3261 43.6538 26.5875C43.7124 27.4382 43.888 28.0248 44.0051 28.3182C41.9264 30.2542 39.877 32.2783 37.8275 34.4197C36.8028 35.505 35.8073 36.6197 34.8119 37.7637C35.0461 37.4117 35.2803 37.0597 35.5145 36.7077C35.8952 36.1504 36.2758 35.5637 36.6271 34.977C36.9784 34.3903 37.3298 33.7743 37.6518 33.1583C37.9739 32.5423 38.2959 31.9556 38.5594 31.3396C39.0865 30.1369 39.4085 29.0515 39.5842 28.1128C39.7598 27.2035 39.8184 26.4115 39.7891 25.7955C39.7306 24.5341 39.3792 23.8594 39.3792 23.8594C39.3792 23.8594 39.0279 24.1527 38.4131 24.6808C38.1203 24.9448 37.7689 25.2674 37.3591 25.6194C36.9784 25.9715 36.5685 26.4115 36.1294 26.8515C35.6902 27.3208 35.251 27.7902 34.7826 28.3182C34.3141 28.8462 33.8457 29.3742 33.4651 29.9902C32.616 31.1636 31.8841 32.4249 31.3571 33.657C30.3909 36.209 30.5373 38.2331 30.9472 39.5824C31.24 40.4918 31.5913 41.1078 31.7962 41.4305C29.1319 44.7159 26.5848 48.2067 24.2425 51.9321C24.6524 51.0227 25.0623 50.084 25.4429 49.028C25.6771 48.3827 25.8821 47.6786 26.087 47.004C26.292 46.3293 26.4677 45.6546 26.5848 44.9799C26.8483 43.6305 26.8775 42.4279 26.8483 41.4305C26.819 40.4038 26.6433 39.5531 26.4384 38.8491C26.0285 37.4704 25.4429 36.737 25.4429 36.737C25.4429 36.737 25.1209 37.0891 24.5939 37.7051C24.0961 38.3211 23.3642 39.1718 22.6322 40.2278C21.9296 41.2838 21.1683 42.5452 20.5242 43.8359C19.9094 45.1852 19.4409 46.5933 19.2067 47.972C18.9432 49.3507 19.0896 50.612 19.3238 51.6681C19.5581 52.7241 19.9387 53.6041 20.3486 54.3081C20.8756 55.2175 21.4318 55.8042 21.7539 56.1268C19.7044 59.7936 17.8599 63.6657 16.3082 67.6845C16.5131 66.7458 16.6595 65.7484 16.7766 64.6924C16.8352 63.9884 16.9523 63.2844 16.9816 62.5803C17.0401 61.8763 17.0401 61.143 16.9816 60.439C16.8645 59.0016 16.6595 57.7989 16.3375 56.7429C16.0154 55.6868 15.6055 54.8068 15.1664 54.1028C14.3466 52.6948 13.4975 51.9614 13.4975 51.9614C13.4975 51.9614 12.4435 53.6041 11.3602 56.0095C11.0967 56.5962 10.8625 57.2709 10.6283 57.9749C10.3941 58.6789 10.2184 59.3829 10.0427 60.1163C9.86705 60.8496 9.72066 61.6123 9.69138 62.375C9.63282 63.1377 9.6621 63.9004 9.69138 64.6337C9.83777 66.1004 10.2184 67.3325 10.8039 68.3885C11.3602 69.4152 12.0336 70.2365 12.6777 70.8819C13.4975 71.7032 14.2295 72.2019 14.6979 72.4366C14.5222 73.0526 14.288 73.6393 14.1124 74.2553C13.1462 77.6874 12.4728 81.2661 12.0629 84.8449C12.0629 84.5515 12.0336 84.2582 12.0043 83.9649C11.9165 83.2902 11.7994 82.5862 11.7408 81.8821C11.5652 80.4741 11.2431 79.0074 10.7161 77.5994C9.83777 74.842 8.31532 72.8473 6.99781 71.5272C5.70958 70.2365 4.62629 69.6498 4.62629 69.6498C4.62629 69.6498 4.59701 69.7672 4.50918 69.9725C4.42135 70.2072 4.30423 70.5005 4.18712 70.9112C3.9529 71.7326 3.6894 72.8766 3.45517 74.226C3.36734 74.9006 3.22095 75.6047 3.19167 76.3673C3.16239 77.13 3.16239 77.8927 3.19167 78.6847C3.22095 79.4767 3.30878 80.2688 3.45517 81.0315C3.57228 81.7941 3.86506 82.5862 4.15784 83.2902C4.77268 84.7275 5.56319 85.8716 6.41225 86.7809C7.26131 87.6903 8.28604 88.3356 9.1351 88.805C10.2184 89.3917 11.0967 89.685 11.653 89.8317C11.6237 90.7704 11.5652 91.6797 11.5652 92.6184C11.5652 94.6718 11.5652 96.7545 11.6823 98.8372C11.7408 100.011 11.8287 101.184 11.8872 102.357C11.8287 102.123 11.7701 101.917 11.6823 101.653C11.4773 101.008 11.2724 100.333 11.0089 99.6879C10.7454 99.0132 10.4233 98.3385 10.072 97.6932C9.72066 97.0478 9.36932 96.4025 8.93015 95.7865C8.08109 94.5544 7.08564 93.5864 6.09019 92.7651C5.12402 91.9731 4.15784 91.2984 3.27951 90.829C1.55211 89.861 0.176042 89.5677 0.176042 89.5677C0.176042 89.5677 0.117486 90.0957 0.0882077 90.9464C0.0882077 91.3864 0.0589298 91.885 0.0882077 92.4717C0.0882077 92.9997 0.176042 93.6158 0.234598 94.2611C0.322431 94.9064 0.410265 95.5811 0.527377 96.2852C0.673767 96.9892 0.820157 97.6932 1.08366 98.4265C1.55211 99.8639 2.19622 101.272 3.10384 102.533C4.01145 103.765 5.12402 104.704 6.2073 105.437C7.29059 106.141 8.43243 106.64 9.42788 106.963C10.4233 107.285 11.3309 107.461 11.9751 107.549C12.1215 107.549 12.2093 107.549 12.3264 107.579C12.7363 111.744 13.3511 115.851 14.1709 119.928C14.0831 119.723 13.9952 119.518 13.8781 119.312C13.5853 118.696 13.234 118.08 12.8534 117.464C12.0629 116.203 11.2138 114.942 10.1013 113.856C9.54499 113.299 8.98871 112.8 8.37387 112.36C7.78831 111.92 7.23203 111.539 6.64647 111.216C5.47535 110.542 4.33351 110.072 3.33806 109.749C2.28405 109.397 1.37644 109.221 0.761601 109.104C1.14221 112.272 1.63994 115.411 2.28405 118.491C2.489 118.872 2.66467 119.224 2.89889 119.576C3.33806 120.222 3.83579 120.838 4.42135 121.424C5.53391 122.539 6.88069 123.331 8.1982 123.888C9.51571 124.446 10.8332 124.739 12.0043 124.915C13.439 125.121 14.6101 125.121 15.3127 125.091C16.3082 129.169 17.5379 133.158 19.0018 137.03C18.8847 136.854 18.7675 136.678 18.6212 136.473C18.2113 135.915 17.7428 135.358 17.2158 134.801C16.6888 134.243 16.1618 133.686 15.5762 133.158C14.9907 132.63 14.3466 132.131 13.6439 131.662C12.2386 130.753 10.8332 130.078 9.45716 129.609C8.08109 129.139 6.7343 128.846 5.53391 128.67C5.32896 128.67 5.1533 128.641 4.94835 128.611C6.29514 132.835 7.90542 136.942 9.72066 140.932C10.8332 141.489 11.9751 141.9 13.1169 142.105C14.6394 142.398 16.1325 142.457 17.3915 142.398C18.9139 142.34 20.1729 142.105 20.9341 141.929C21.549 143.366 22.1931 144.804 22.8665 146.182C24.0083 148.5 25.2965 150.7 26.614 152.871C26.4969 152.783 26.4384 152.695 26.3213 152.607C25.7943 152.137 25.238 151.668 24.5939 151.228C23.979 150.788 23.2764 150.377 22.603 149.937C21.9003 149.526 21.1391 149.145 20.3486 148.852C19.5581 148.529 18.709 148.294 17.8892 148.089C17.0987 147.884 16.3082 147.737 15.5177 147.62C14.6101 147.502 13.761 147.473 12.912 147.444C15.1078 151.492 17.5964 155.364 20.2607 159.06C20.8756 159.119 21.4904 159.177 22.076 159.177C23.6862 159.177 25.1501 158.943 26.3798 158.62C27.8437 158.239 28.9563 157.828 29.6882 157.505C31.562 160.145 33.5529 162.668 35.6609 164.956C36.2172 165.543 36.7735 166.071 37.3298 166.628C36.7442 166.335 36.1587 165.983 35.5145 165.689C34.8119 165.367 34.0799 165.073 33.2894 164.839C32.4989 164.604 31.7084 164.369 30.8593 164.223C29.1612 163.9 27.4631 163.871 25.8821 163.988C25.3258 164.017 24.7988 164.105 24.2425 164.164C27.0532 167.567 30.0981 170.794 33.2894 173.844C34.0214 173.786 34.7533 173.727 35.3974 173.58C36.8906 173.258 38.2081 172.759 39.2621 172.26C40.3747 171.732 41.2237 171.175 41.8093 170.794C44.7371 173.316 47.782 175.516 50.8269 177.394C50.4756 177.306 50.1242 177.188 49.7436 177.13C49.0117 176.983 48.2797 176.807 47.4892 176.719C46.6987 176.631 45.9082 176.572 45.0592 176.602C43.4196 176.602 41.8679 176.866 40.4332 177.247C39.5842 177.482 38.7937 177.775 38.0324 178.068C40.931 180.503 43.9173 182.791 47.0501 184.903C47.2843 184.903 47.5478 184.903 47.782 184.903C48.6603 184.845 49.4509 184.698 50.2121 184.522C50.9733 184.317 51.676 184.082 52.2908 183.818C53.5498 183.29 54.5745 182.674 55.365 182.117C56.0677 181.589 56.5947 181.119 56.9753 180.709C60.1373 182.234 63.2115 183.437 66.1686 184.405C65.5537 184.405 64.9682 184.405 64.3533 184.405C63.6214 184.405 62.8602 184.493 62.0989 184.639C61.3377 184.786 60.635 184.962 59.9616 185.197C59.2882 185.402 58.6734 185.637 58.0879 185.901C56.9167 186.429 55.9213 187.074 55.1015 187.69C54.4867 188.159 54.0182 188.57 53.6376 188.951C54.8087 189.626 55.9798 190.271 57.1802 190.887C57.3266 190.887 57.4437 190.946 57.5901 190.946C59.054 191.063 60.7229 191.122 62.3624 191.063C64.0606 190.946 65.7587 190.682 67.2811 190.301C68.8329 189.89 70.0625 189.333 71.058 188.775C72.0534 188.247 72.7854 187.719 73.3417 187.221C73.6344 186.986 73.8687 186.722 74.0443 186.517C74.3078 186.575 74.6006 186.634 74.8641 186.693C77.0892 187.162 79.168 187.485 81.0418 187.719C81.1589 187.719 81.2467 187.719 81.3931 187.749C81.0711 187.807 80.749 187.837 80.4562 187.925C79.1094 188.247 78.0261 188.746 77.0892 189.215C76.1524 189.685 75.4497 190.242 74.8641 190.77C73.7223 191.797 73.3124 192.647 73.3124 192.647C73.3124 192.647 73.8101 192.647 74.6885 192.559C75.0984 192.501 75.6254 192.471 76.2109 192.413C76.7965 192.354 77.4113 192.295 78.114 192.149C78.7874 192.031 79.5193 191.855 80.2513 191.709C80.9832 191.533 81.7444 191.357 82.5057 191.181C83.2669 190.975 84.0281 190.711 84.7601 190.477C85.492 190.242 86.1947 190.007 86.8681 189.773C88.1856 189.333 89.2103 188.834 90.0301 188.511C90.0594 188.511 90.1179 188.482 90.1472 188.453C90.967 188.482 91.6697 188.482 92.1088 188.482C92.6358 188.482 92.8993 188.482 92.8993 188.482C93.6313 188.482 94.2169 187.925 94.2169 187.221C94.2169 186.517 93.6313 185.959 92.9286 185.93L92.8408 186.311Z" fill="#B9B9B9"/>
</svg>
