<svg width="81" height="73" viewBox="0 0 81 73" fill="none" xmlns="http://www.w3.org/2000/svg">
<g clip-path="url(#clip0_604_1826)">
<path d="M79.1608 41.5877C78.7742 41.7098 78.3434 41.8985 77.9126 42.1427C77.6917 42.2759 77.4708 42.4202 77.2609 42.5756C77.04 42.7421 76.8191 42.9308 76.6092 43.1417C76.1895 43.5635 75.8692 44.0408 75.5709 44.5071C75.4273 44.7402 75.2948 44.9844 75.1843 45.2064C75.1402 45.2841 75.1181 45.3618 75.0739 45.4395C75.3832 43.8965 75.6041 42.3425 75.7587 40.7663C75.8029 40.7663 75.836 40.7663 75.8913 40.7552C76.1343 40.7219 76.4767 40.6553 76.8522 40.5332C77.2388 40.4111 77.6586 40.2224 78.0673 39.956C78.476 39.6896 78.8957 39.3233 79.2381 38.8571C79.5695 38.3909 79.8125 37.847 79.9892 37.3031C80.0776 37.0367 80.1439 36.7592 80.1991 36.4928C80.2433 36.2264 80.2874 35.9711 80.3095 35.7269C80.3316 35.4827 80.3537 35.2607 80.3648 35.0498C80.3648 34.8278 80.3648 34.628 80.3537 34.4726C80.3427 34.1507 80.3206 33.9509 80.3206 33.9509C80.3206 33.9509 79.8125 34.0619 79.1497 34.4282C78.8184 34.6058 78.4649 34.8611 78.0894 35.1608C77.7138 35.4605 77.3493 35.8379 77.0179 36.3041C76.8522 36.5372 76.7197 36.7814 76.5871 37.0256C76.4546 37.2809 76.3331 37.5251 76.2337 37.7804C76.1343 38.0357 76.0459 38.2799 75.9686 38.5241C75.9465 38.6129 75.9244 38.7017 75.8913 38.7905C75.9134 38.3465 75.9575 37.9025 75.9686 37.4585C76.0017 36.6704 76.0128 35.8823 76.0128 35.1053C76.0128 34.7501 76.0017 34.406 75.9796 34.0508C76.1895 33.9842 76.5209 33.8732 76.9296 33.6623C77.2499 33.4847 77.6254 33.2405 77.9568 32.8964C78.2771 32.5523 78.5864 32.1194 78.8073 31.5755C78.9178 31.298 79.0282 31.0094 79.0724 30.7208C79.1276 30.4322 79.1497 30.1325 79.1718 29.8328C79.1939 29.5331 79.1829 29.2445 79.1718 28.9559C79.1608 28.6673 79.1056 28.4009 79.0724 28.1456C78.9841 27.635 78.8846 27.2021 78.7963 26.8913C78.7521 26.7359 78.7079 26.6249 78.6748 26.5361C78.6416 26.4584 78.6306 26.414 78.6306 26.414C78.6306 26.414 78.2219 26.636 77.7359 27.1244C77.2388 27.6128 76.6534 28.3676 76.322 29.4221C76.1232 29.9549 76.0128 30.5099 75.9355 31.0427C75.9023 31.3091 75.8692 31.5755 75.836 31.8308C75.825 31.9529 75.8139 32.0528 75.8029 32.1749C75.6483 30.8096 75.3942 29.4665 75.0297 28.1678C74.9634 27.9347 74.8751 27.7127 74.8088 27.4796C74.9745 27.3797 75.2506 27.191 75.5709 26.8913C75.8139 26.6471 76.068 26.3363 76.2779 25.9478C76.4988 25.5482 76.6424 25.082 76.6976 24.527C76.7197 24.2494 76.7307 23.9608 76.6976 23.6722C76.6866 23.3836 76.6313 23.095 76.5651 22.8175C76.4988 22.54 76.4215 22.2625 76.3441 22.0072C76.2558 21.7519 76.1785 21.4855 76.068 21.2635C75.6593 20.3533 75.2617 19.7317 75.2617 19.7317C75.2617 19.7317 74.9413 19.9981 74.6321 20.542C74.4774 20.8084 74.3117 21.1414 74.1902 21.541C74.0687 21.9406 73.9914 22.3957 73.9472 22.9396C73.9251 23.206 73.9251 23.4835 73.9472 23.7499C73.9472 24.0163 74.0025 24.2827 74.0245 24.5491C74.0687 24.9488 74.124 25.3262 74.2013 25.6814C73.6159 24.1606 72.92 22.6954 72.1468 21.3079C72.2683 21.1858 72.4781 20.9638 72.677 20.6197C72.8316 20.3533 72.9752 20.0203 73.0636 19.6207C73.1409 19.2211 73.1961 18.7438 73.1078 18.2221C73.0194 17.7004 72.8427 17.1565 72.6107 16.657C72.3677 16.1575 72.0805 15.6913 71.8044 15.2917C71.5393 14.881 71.2631 14.5702 71.0643 14.3371C70.8655 14.104 70.744 13.9708 70.744 13.9708C70.744 13.9708 70.5231 14.2483 70.3684 14.77C70.2911 15.0364 70.2248 15.3583 70.2138 15.7468C70.2138 16.1242 70.2138 16.5793 70.3132 17.0899C70.3574 17.3452 70.4237 17.6005 70.501 17.8558C70.5783 18.1111 70.6556 18.3664 70.744 18.6217C70.8765 19.0213 71.0422 19.3765 71.1969 19.7206C70.3132 18.3109 69.3522 16.99 68.3471 15.7468C68.4244 15.6247 68.568 15.3916 68.6674 15.0475C68.822 14.5258 68.8773 13.771 68.5128 12.8053C68.3139 12.3391 68.0378 11.8618 67.7175 11.4178C67.5628 11.1958 67.3861 10.9849 67.2204 10.7851C67.0437 10.5853 66.878 10.3966 66.7123 10.2301C66.5466 10.0636 66.392 9.89708 66.2484 9.76388C66.0938 9.63067 65.9612 9.50857 65.8507 9.40867C65.6298 9.20887 65.4862 9.09787 65.4862 9.09787C65.4862 9.09787 65.3537 9.35317 65.3316 9.83048C65.3206 10.0747 65.3316 10.3633 65.4089 10.7074C65.4752 11.0626 65.5967 11.4733 65.7955 11.9284C65.8949 12.1615 66.0164 12.3835 66.1379 12.6166C66.2594 12.8497 66.392 13.0828 66.5245 13.3048C66.6571 13.5268 66.8007 13.7488 66.9443 13.9597C67.0326 14.104 67.121 14.2372 67.2094 14.3704C66.8338 13.9375 66.4583 13.5046 66.0717 13.105C65.3095 12.2836 64.5253 11.5288 63.741 10.7962C63.7852 10.6852 63.8625 10.4743 63.8736 10.1413C63.8957 9.66397 63.7742 8.98687 63.2329 8.14327C62.9568 7.73256 62.5923 7.33296 62.2167 6.95556C62.0289 6.76686 61.8191 6.58926 61.6313 6.42276C61.4325 6.25626 61.2337 6.10086 61.0459 5.95656C60.6814 5.66795 60.3279 5.44595 60.0849 5.27945C59.8308 5.12405 59.6873 5.02415 59.6873 5.02415C59.6873 5.02415 59.632 5.24615 59.7204 5.64575C59.7646 5.84556 59.8529 6.10086 59.9965 6.40056C60.1401 6.70026 60.339 7.05546 60.6261 7.45506C60.7697 7.65486 60.9244 7.85467 61.0901 8.05447C61.2557 8.25427 61.4214 8.46517 61.5871 8.65387C61.7528 8.85367 61.9295 9.04237 62.1063 9.21997C62.2499 9.37537 62.3824 9.51967 62.5149 9.66397C61.808 9.04237 61.1121 8.45407 60.4163 7.89907C59.7756 7.38846 59.146 6.92226 58.5275 6.47826C58.5385 6.38946 58.5606 6.20076 58.4943 5.91216C58.4501 5.71235 58.3618 5.46815 58.1961 5.19065C58.0304 4.91315 57.7984 4.58015 57.445 4.25825C57.0915 3.92525 56.6718 3.58114 56.23 3.29254C56.009 3.14824 55.7771 3.00394 55.5562 2.87074C55.3353 2.73754 55.1143 2.61544 54.9045 2.51554C54.4847 2.29354 54.1202 2.10484 53.8441 1.99384C53.568 1.88283 53.4133 1.80513 53.4133 1.80513C53.4133 1.80513 53.4133 1.96054 53.6232 2.27134C53.7226 2.42674 53.8772 2.61544 54.0761 2.84854C54.2859 3.08164 54.5621 3.35914 54.9155 3.66994C55.0923 3.83644 55.28 4.00295 55.4789 4.15835C55.6887 4.32485 55.8875 4.49135 56.0864 4.65785C56.484 4.99085 56.9037 5.30165 57.2572 5.59025C55.6556 4.50245 54.1313 3.59224 52.7727 2.88184C52.7727 2.81524 52.7285 2.67094 52.5849 2.44894C52.4855 2.29354 52.3308 2.11594 52.0989 1.91614C51.8669 1.71633 51.5576 1.48323 51.1269 1.25013C50.9059 1.13913 50.685 1.01703 50.442 0.91713C50.199 0.81723 49.945 0.717329 49.6909 0.628529C49.4369 0.539728 49.1718 0.462028 48.9177 0.395427C48.6637 0.317727 48.4096 0.273327 48.1666 0.228927C48.0451 0.206726 47.9347 0.184526 47.8132 0.162326C47.6916 0.151226 47.5812 0.140126 47.4818 0.129026C47.2719 0.106826 47.0952 0.0846258 46.9185 0.0957259C46.5981 0.0957259 46.3993 0.106826 46.3993 0.106826C46.3993 0.106826 46.4877 0.162326 46.8411 0.262227C47.0179 0.295527 47.2388 0.384327 47.537 0.484228C47.6143 0.506428 47.6917 0.539728 47.769 0.561928C47.8573 0.595228 47.9457 0.628529 48.023 0.661829C48.1998 0.739529 48.4096 0.80613 48.6305 0.89493C48.8625 0.99483 49.0944 1.09473 49.3154 1.19463C49.5584 1.30563 49.7903 1.41663 50.0223 1.52763C50.2653 1.63863 50.4973 1.74963 50.7182 1.87173C50.9391 1.98274 51.16 2.09374 51.3699 2.19364C51.4361 2.22694 51.4803 2.24914 51.5466 2.28244C51.2263 2.12704 50.9059 1.99384 50.6188 1.86063C49.3375 1.30563 48.2771 0.97263 47.537 0.82833C47.1725 0.750629 46.8853 0.728429 46.6865 0.706229C46.4877 0.706229 46.3883 0.706229 46.3883 0.706229C46.3883 0.706229 46.4877 0.706229 46.6865 0.717329C46.8743 0.739529 47.1615 0.761729 47.537 0.85053C48.266 1.00593 49.3264 1.33893 50.6077 1.90504C50.9391 2.04934 51.2925 2.21584 51.6571 2.39344C51.5576 2.34904 51.4693 2.30464 51.3588 2.26024C51.1489 2.17144 50.917 2.08264 50.685 1.99384C50.4531 1.90504 50.2101 1.80513 49.9671 1.73853C49.713 1.66083 49.47 1.57203 49.227 1.50543C48.995 1.44993 48.752 1.39443 48.5201 1.32783C48.2881 1.27233 48.0782 1.25013 47.9015 1.22793C47.8132 1.21683 47.7248 1.20573 47.6364 1.19463C47.5591 1.19463 47.4818 1.19463 47.4045 1.19463C47.1173 1.19463 46.9074 1.18353 46.7638 1.21683C46.4766 1.26123 46.4104 1.30563 46.4104 1.30563C46.4104 1.30563 46.5539 1.33893 46.7969 1.38333C46.9185 1.39443 47.0731 1.44993 47.2388 1.49433C47.3271 1.51653 47.4155 1.53873 47.5039 1.57203C47.5922 1.60533 47.6917 1.63863 47.7911 1.67193C47.9899 1.74963 48.2108 1.80513 48.4317 1.90504C48.6526 1.99384 48.8846 2.08264 49.1165 2.17144C49.3485 2.27134 49.5805 2.36014 49.8124 2.44894C50.0444 2.52664 50.2653 2.62654 50.4862 2.70424C50.917 2.84854 51.2815 2.94844 51.5797 3.00394C51.878 3.05944 52.1099 3.07054 52.2977 3.07054C52.5628 3.07054 52.7174 3.01504 52.7727 2.98174C54.1092 3.69214 55.5893 4.59125 57.1578 5.67905C56.7822 5.44595 56.3515 5.22395 55.9096 4.99085C55.6777 4.86875 55.4347 4.76885 55.2027 4.65785C54.9708 4.55795 54.7388 4.45805 54.5179 4.38035C54.0761 4.21385 53.7005 4.12505 53.4023 4.06955C53.104 4.00295 52.861 3.99185 52.6843 3.99185C52.3308 3.99185 52.1983 4.08065 52.1983 4.08065C52.1983 4.08065 52.7395 4.43585 53.4906 4.92425C53.6784 5.04635 53.8772 5.16845 54.0871 5.30165C54.297 5.43485 54.5068 5.55695 54.7277 5.69015C54.9487 5.81226 55.1696 5.93436 55.3794 6.05646C55.6004 6.16746 55.8213 6.27846 56.0311 6.36726C56.4619 6.54486 56.8264 6.66696 57.1467 6.71136C57.4671 6.76686 57.7322 6.77796 57.942 6.75576C58.2292 6.73356 58.406 6.66696 58.4943 6.63366C59.1129 7.08876 59.7314 7.56606 60.361 8.07667C61.0238 8.62057 61.6976 9.19777 62.3714 9.79718C62.2388 9.69728 62.1063 9.59737 61.9516 9.48637C61.7418 9.34207 61.5208 9.20887 61.2999 9.07567C61.079 8.94247 60.8471 8.80927 60.6261 8.68717C60.3942 8.56507 60.1622 8.46517 59.9413 8.36527C59.4884 8.18767 59.1129 8.06557 58.7815 8.02117C58.4501 7.96567 58.1961 7.95457 57.9862 7.97677C57.5775 8.01007 57.3898 8.12107 57.3898 8.12107C57.3898 8.12107 57.5113 8.23207 57.7211 8.40967C57.9199 8.58727 58.2292 8.83147 58.5606 9.10897C58.7373 9.25327 58.9141 9.39757 59.1018 9.54187C59.2896 9.68617 59.5105 9.83048 59.7093 9.97478C59.9082 10.1191 60.118 10.2523 60.339 10.3855C60.5488 10.5187 60.7697 10.6297 60.9906 10.7296C61.8412 11.1403 62.5481 11.1847 63.0231 11.1403C63.3434 11.107 63.5643 11.0404 63.6747 10.9849C64.4479 11.7175 65.2101 12.4945 65.9722 13.3159C66.3478 13.7266 66.7123 14.1484 67.0768 14.5813C66.9664 14.4703 66.8559 14.3704 66.7344 14.2594C66.5356 14.104 66.3368 13.9375 66.1269 13.7821C65.917 13.6267 65.6961 13.4713 65.4752 13.3381C65.2543 13.1938 65.0223 13.0828 64.8014 12.9718C64.3485 12.7609 63.9509 12.6388 63.6085 12.5833C63.255 12.5278 62.9568 12.5167 62.7248 12.5389C62.2499 12.5833 61.9958 12.7276 61.9958 12.7276C61.9958 12.7276 62.1063 12.8497 62.283 13.0495C62.3714 13.1494 62.4818 13.2604 62.6144 13.3936C62.7359 13.5268 62.8795 13.6711 63.0341 13.8265C63.1887 13.9819 63.3544 14.1373 63.5312 14.2927C63.7079 14.4481 63.8957 14.6035 64.0834 14.77C64.459 15.0919 64.8787 15.3805 65.3095 15.6025C66.149 16.0576 66.9111 16.1353 67.4634 16.0909C67.8169 16.0687 68.0709 16.0021 68.2145 15.9577C69.2086 17.212 70.1586 18.544 71.0312 19.9537C70.7882 19.6651 70.512 19.3654 70.2027 19.0768C70.015 18.8992 69.8161 18.7216 69.6063 18.5662C69.3964 18.4108 69.1755 18.2665 68.9546 18.1444C68.5128 17.9002 68.1041 17.7448 67.7285 17.6671C67.353 17.5894 67.0326 17.5783 66.7565 17.5894C66.2153 17.6227 65.8949 17.767 65.8949 17.767C65.8949 17.767 65.9833 17.9002 66.1269 18.1111C66.2705 18.322 66.5024 18.6106 66.7565 18.9436C67.0105 19.2766 67.3198 19.6318 67.6733 19.9759C68.0157 20.32 68.3913 20.653 68.811 20.9083C69.0209 21.0304 69.2307 21.1414 69.4185 21.2302C69.6173 21.319 69.8161 21.3856 70.015 21.4411C70.4016 21.541 70.755 21.5854 71.0754 21.5854C71.3846 21.5854 71.6497 21.5632 71.8265 21.541C71.8706 21.541 71.8927 21.5299 71.9369 21.5188C72.688 22.9063 73.3729 24.3604 73.9251 25.8701C73.7374 25.5593 73.5385 25.2485 73.3066 24.9377C73.1519 24.7268 72.9531 24.538 72.7653 24.3493C72.5776 24.1606 72.3787 23.9941 72.1689 23.8387C71.7602 23.5279 71.3294 23.3503 70.9318 23.2282C70.5452 23.1061 70.1917 23.0617 69.8824 23.0617C69.2749 23.0395 68.8883 23.1727 68.8883 23.1727C68.8883 23.1727 69.1092 23.7388 69.529 24.427C69.6394 24.6047 69.7388 24.7934 69.8603 24.971C69.9818 25.1597 70.1144 25.3484 70.258 25.5371C70.4016 25.7258 70.5673 25.9034 70.7219 26.081C70.8876 26.2586 71.0643 26.4251 71.2521 26.5805C71.6497 26.8802 72.0584 27.1022 72.445 27.2576C72.8316 27.413 73.2182 27.5129 73.5496 27.5684C73.9693 27.635 74.3007 27.6461 74.4995 27.6461C74.5658 27.8792 74.6542 28.1012 74.7094 28.3343C75.0518 29.5997 75.2727 30.8984 75.4274 32.2082C75.4053 32.1305 75.3832 32.0528 75.35 31.9751C75.2727 31.742 75.1733 31.4978 75.0408 31.2647C74.7978 30.7985 74.4885 30.3434 74.135 29.966C73.3508 29.2223 72.5113 28.9226 71.8596 28.8116C71.1969 28.7006 70.7219 28.7672 70.7219 28.7672C70.7219 28.7672 70.7219 28.8005 70.744 28.8671C70.755 28.9337 70.7882 29.0225 70.8213 29.1446C70.8765 29.3777 70.9539 29.6996 71.0864 30.0659C71.1416 30.2435 71.241 30.4433 71.3184 30.6431C71.3957 30.8429 71.484 31.0427 71.5835 31.2536C71.6939 31.4534 71.8154 31.6643 71.948 31.8641C72.0916 32.0639 72.2241 32.2526 72.3898 32.4413C72.7101 32.8076 73.0967 33.1073 73.4833 33.3404C73.8699 33.5735 74.2344 33.7511 74.5768 33.8843C75.0076 34.0508 75.3611 34.1285 75.5709 34.1729C75.582 34.517 75.593 34.8611 75.593 35.2052C75.593 35.9933 75.5709 36.7592 75.5268 37.5473C75.5047 37.958 75.4715 38.3798 75.4384 38.7905C75.4384 38.7239 75.4273 38.6684 75.4163 38.6018C75.3721 38.3465 75.3058 38.1023 75.2285 37.8359C75.1512 37.5806 75.0628 37.3253 74.9524 37.07C74.8419 36.8147 74.6983 36.5816 74.5437 36.3485C74.2344 35.8934 73.8699 35.5382 73.5054 35.2496C73.1409 34.9721 72.7432 34.7945 72.4119 34.6724C71.7381 34.4171 71.2189 34.3727 71.2189 34.3727C71.2189 34.3727 71.2189 34.5059 71.2189 34.739C71.2189 34.85 71.23 34.9943 71.2521 35.1497C71.2521 35.3162 71.2631 35.516 71.2852 35.7269C71.3073 35.9378 71.3294 36.1598 71.3736 36.3818C71.4178 36.6149 71.473 36.848 71.5393 37.0922C71.6718 37.5695 71.8596 38.0579 72.1468 38.5019C72.4229 38.957 72.7653 39.3233 73.1409 39.6341C73.5054 39.9449 73.892 40.1891 74.2455 40.3667C74.6652 40.5887 75.0187 40.7219 75.2506 40.7996C75.0849 42.3314 74.8419 43.8521 74.5326 45.3507C74.5326 45.2841 74.5326 45.2286 74.5326 45.1731C74.5106 44.9178 74.4774 44.6624 74.4332 44.396C74.3891 44.1296 74.3117 43.8632 74.2123 43.6079C74.124 43.3415 74.0025 43.0862 73.8699 42.842C73.7374 42.5978 73.5827 42.3758 73.406 42.176C73.2403 41.9762 73.0525 41.7986 72.8648 41.6321C72.5002 41.3102 72.1136 41.066 71.7712 40.8884C71.0864 40.5221 70.5231 40.4 70.5231 40.4C70.5231 40.4 70.4899 40.5443 70.4457 40.7996C70.4126 41.0549 70.3684 41.399 70.3684 41.8097C70.3463 42.2204 70.3684 42.6755 70.4457 43.1528C70.4899 43.397 70.5341 43.6412 70.6114 43.8854C70.6888 44.1297 70.7882 44.3739 70.9097 44.607C71.1748 45.0843 71.5061 45.5061 71.8706 45.8613C72.2351 46.2165 72.6328 46.5162 73.0083 46.7604C73.4502 47.049 73.8368 47.2377 74.0798 47.3487C73.6932 48.8472 73.2293 50.3235 72.688 51.7443C72.688 51.6777 72.6991 51.6222 72.7101 51.5667C72.7101 51.3114 72.7101 51.045 72.6991 50.7786C72.688 50.5122 72.6328 50.2236 72.5665 49.9461C72.4892 49.6686 72.4008 49.3911 72.2793 49.1247C72.0474 48.5919 71.6939 48.1368 71.3184 47.7594C70.9428 47.382 70.5562 47.0823 70.1917 46.8492C69.8272 46.6161 69.4958 46.4385 69.2528 46.3275C69.0098 46.2165 68.8552 46.161 68.8552 46.161C68.8552 46.161 68.7999 46.2942 68.7226 46.5273C68.6453 46.7604 68.5569 47.0934 68.5128 47.4819C68.4907 47.6817 68.4575 47.8815 68.4465 48.1035C68.4354 48.3255 68.4465 48.5586 68.4575 48.8028C68.4796 49.047 68.5128 49.2912 68.568 49.5354C68.6232 49.7907 68.7116 50.046 68.822 50.3013C69.065 50.823 69.3743 51.2892 69.7278 51.7221C70.0812 52.1439 70.4789 52.5213 70.8434 52.8321C71.2742 53.1984 71.6497 53.4648 71.9038 53.6202C71.6718 54.153 71.4288 54.6858 71.1637 55.1964C70.744 56.0289 70.269 56.8281 69.783 57.6051C69.783 57.5718 69.8051 57.5496 69.8051 57.5274C69.8603 57.2721 69.9045 57.0168 69.9376 56.7393C69.9597 56.4618 69.9708 56.1843 69.9376 55.8957C69.9045 55.6071 69.8493 55.3185 69.7609 55.0299C69.6726 54.7413 69.551 54.4638 69.4185 54.2085C69.2749 53.9532 69.1092 53.709 68.9435 53.4759C68.6011 53.0319 68.2145 52.6545 67.8611 52.3437C67.1431 51.7332 66.5245 51.4113 66.5245 51.4113C66.5245 51.4113 66.2484 51.8886 66.1048 52.6545C66.0164 53.0208 65.9502 53.4648 65.9612 53.9532C65.9612 54.1974 65.9722 54.4416 66.0164 54.708C66.0496 54.9744 66.1158 55.2519 66.2042 55.5294C66.3699 56.0955 66.6129 56.6172 66.889 57.1056C67.1762 57.594 67.4855 58.038 67.7837 58.4154C68.1151 58.8372 68.4133 59.1591 68.6122 59.3589C67.9052 60.3246 67.1652 61.257 66.3809 62.0895C66.1932 62.2893 65.9943 62.4669 65.8066 62.6556C65.906 62.4669 65.9943 62.256 66.0717 62.0451C66.16 61.7898 66.2263 61.5123 66.2815 61.2348C66.3257 60.9573 66.3368 60.6576 66.3147 60.3579C66.2705 59.7585 66.1048 59.2035 65.8618 58.704C65.6188 58.1934 65.3206 57.7494 65.0223 57.3831C64.4369 56.6505 63.8957 56.2065 63.8957 56.2065C63.8957 56.2065 63.8183 56.3175 63.7189 56.5173C63.6637 56.6172 63.6085 56.7393 63.5532 56.8947C63.498 57.039 63.4207 57.1944 63.3655 57.3831C63.2992 57.5607 63.244 57.7605 63.1887 57.9825C63.1666 58.0935 63.1446 58.2045 63.1114 58.3155C63.0893 58.4265 63.0562 58.5375 63.0341 58.6596C62.9899 58.8927 62.9568 59.148 62.9457 59.4255C62.9457 59.5587 62.9457 59.6919 62.9457 59.8362C62.9457 59.9694 62.9457 60.1137 62.9457 60.258C62.9678 60.8241 63.0672 61.3902 63.1998 61.9008C63.3323 62.4114 63.487 62.8776 63.6527 63.2772C63.8183 63.688 63.984 64.0098 64.1166 64.243C63.0341 65.1532 61.9185 65.9524 60.7918 66.6295C60.8802 66.5296 60.9686 66.4408 61.0459 66.3409C61.2116 66.13 61.3552 65.8858 61.4767 65.6416C61.5982 65.3974 61.6976 65.131 61.7749 64.8646C61.9185 64.3096 61.9074 63.7545 61.8412 63.255C61.7638 62.7444 61.6313 62.3004 61.4546 61.8897C61.1122 61.0905 60.7476 60.591 60.7476 60.591C60.7476 60.591 60.6593 60.6909 60.5157 60.8796C60.4494 60.9795 60.361 61.0794 60.2727 61.2126C60.1843 61.3458 60.0849 61.4901 59.9744 61.6566C59.875 61.8231 59.7646 62.0118 59.6541 62.2005C59.5437 62.3892 59.4332 62.6001 59.3338 62.8221C59.2233 63.0441 59.135 63.2994 59.0356 63.5325C58.9361 63.7767 58.8478 64.032 58.7705 64.2984C58.6931 64.5648 58.6379 64.8313 58.5827 65.0866C58.5385 65.3308 58.4943 65.575 58.4722 65.8081C58.417 66.2743 58.417 66.7072 58.4391 67.0735C58.4501 67.3843 58.4833 67.6396 58.5275 67.8394C57.3787 68.3833 56.252 68.8162 55.1696 69.1603C55.3463 69.0493 55.512 68.9272 55.6666 68.7718C55.8655 68.5831 56.0422 68.3833 56.2079 68.1724C56.3625 67.9615 56.4951 67.7395 56.5945 67.5175C56.6939 67.2955 56.7602 67.0624 56.8154 66.8404C56.9148 66.3964 56.9369 65.9857 56.9148 65.6194C56.8706 64.8979 56.7049 64.4205 56.7049 64.4205C56.7049 64.4205 56.5834 64.4983 56.3956 64.6648C56.3073 64.7425 56.1858 64.8424 56.0643 64.9534C55.9317 65.0644 55.7992 65.2087 55.6445 65.353C55.3353 65.6305 54.9928 65.9635 54.6504 66.352C54.4737 66.5296 54.297 66.7183 54.1202 66.9181C53.9435 67.1179 53.7668 67.3177 53.6121 67.5397C53.2918 67.9615 53.0267 68.3278 52.8279 68.6719C52.6291 69.016 52.4855 69.3157 52.3861 69.5821C52.3308 69.7042 52.2977 69.8263 52.2646 69.9262C52.1652 69.9484 52.0657 69.9706 51.9663 69.9928C51.1489 70.1593 50.3868 70.2592 49.702 70.348C49.6467 70.348 49.5915 70.3591 49.5363 70.3702C49.6578 70.3147 49.7903 70.2592 49.9008 70.2037C50.3316 69.9595 50.6629 69.6931 50.8949 69.3934C51.1269 69.1048 51.2815 68.8162 51.392 68.5609C51.5908 68.0503 51.5908 67.7062 51.5908 67.7062C51.5908 67.7062 51.4472 67.7728 51.2152 67.906C51.0937 67.9726 50.9501 68.0614 50.7844 68.1502C50.6188 68.239 50.442 68.3611 50.2432 68.461C50.0444 68.5609 49.8345 68.6941 49.6026 68.8162C49.3816 68.9383 49.1607 69.0715 48.9177 69.2158C48.4538 69.4822 47.9678 69.7375 47.526 69.9928C47.4155 70.0483 47.3161 70.1149 47.2056 70.1704C47.1062 70.2148 47.0068 70.2703 46.9185 70.3147C46.7528 70.4035 46.5871 70.4812 46.4324 70.5589C46.3993 70.57 46.3772 70.5811 46.3551 70.5922C46.0679 70.5922 45.8249 70.5922 45.6703 70.5922C45.4825 70.5922 45.3831 70.5922 45.3831 70.5922H45.361C45.0849 70.5922 44.875 70.8142 44.875 71.0806C44.875 71.347 45.107 71.5579 45.3721 71.5579C45.3721 71.5579 45.4715 71.5579 45.6703 71.5579C45.836 71.5579 46.1011 71.5579 46.4214 71.5468C46.4324 71.5468 46.4545 71.5579 46.4656 71.569C46.7749 71.6911 47.1615 71.8798 47.6585 72.0463C47.9015 72.1351 48.1777 72.2239 48.4428 72.3127C48.7189 72.4015 48.995 72.5014 49.2822 72.5791C49.5694 72.6457 49.8566 72.7123 50.1327 72.7789C50.4089 72.8344 50.685 72.901 50.9391 72.9454C51.1931 73.0009 51.4361 73.0231 51.6571 73.0453C51.878 73.0675 52.0657 73.0897 52.2314 73.1008C52.5517 73.1341 52.7506 73.1341 52.7506 73.1341C52.7506 73.1341 52.5849 72.8122 52.1652 72.4237C51.9553 72.2239 51.6791 72.0241 51.3367 71.8354C50.9943 71.6578 50.5746 71.4691 50.0665 71.347C49.945 71.3137 49.8345 71.3026 49.713 71.2804C49.7572 71.2804 49.8014 71.2804 49.8345 71.2693C50.5414 71.1805 51.3146 71.0584 52.1652 70.8808C52.2646 70.8586 52.375 70.8364 52.4744 70.8142C52.5517 70.8919 52.6291 70.9807 52.7395 71.0806C52.9494 71.2582 53.2255 71.4691 53.6011 71.6689C53.9766 71.8687 54.4406 72.0907 55.026 72.2461C55.6004 72.3904 56.2521 72.4903 56.8817 72.5347C57.5113 72.5569 58.1409 72.5347 58.6821 72.4903C58.7373 72.4903 58.7815 72.4681 58.8367 72.4681C59.2896 72.235 59.7314 71.9797 60.1733 71.7355C60.0297 71.5912 59.8529 71.4358 59.621 71.2582C59.3117 71.0251 58.9362 70.7809 58.4943 70.5811C58.2734 70.4812 58.0415 70.3924 57.7874 70.3147C57.5334 70.2259 57.2683 70.1593 56.9811 70.1038C56.6939 70.0483 56.4177 70.0261 56.1305 70.015C55.8986 70.015 55.6666 70.015 55.4457 70.015C56.5613 69.6487 57.7211 69.1936 58.9141 68.6164C59.0577 68.7607 59.2565 68.9494 59.5216 69.1492C59.8198 69.3712 60.2064 69.6043 60.6814 69.793C60.9244 69.8929 61.1784 69.9817 61.4656 70.0594C61.7528 70.1371 62.051 70.1815 62.3824 70.2037C62.4708 70.2037 62.5591 70.2037 62.6585 70.2037C63.8404 69.4045 64.9781 68.5387 66.0606 67.6174C65.7734 67.5064 65.4752 67.3954 65.1549 67.3066C64.6136 67.1512 64.0282 67.0735 63.4097 67.0624C63.1004 67.0624 62.7911 67.0624 62.4929 67.1068C62.1946 67.1401 61.9185 67.2067 61.6313 67.2622C61.4877 67.2844 61.3662 67.3288 61.2226 67.3621C62.3714 66.6517 63.5201 65.8192 64.6247 64.8646C64.8456 65.02 65.1659 65.2198 65.5856 65.4196C65.9833 65.6083 66.4803 65.797 67.0437 65.9191C67.2867 65.9635 67.5628 65.9968 67.839 66.019C69.0429 64.8646 70.1917 63.6546 71.2521 62.3559C71.0533 62.3226 70.8434 62.3004 70.6335 62.2893C70.0371 62.2449 69.3854 62.256 68.7558 62.3781C68.4354 62.4336 68.1482 62.5224 67.839 62.6112C67.5407 62.7 67.2646 62.811 66.9995 62.9331C66.7565 63.0441 66.5356 63.1662 66.3147 63.2772C66.5245 63.0663 66.7344 62.8665 66.9443 62.6445C67.7396 61.7787 68.4907 60.8241 69.1976 59.8251C69.4627 59.9472 69.8824 60.1026 70.4457 60.2469C70.9097 60.3579 71.462 60.4467 72.0695 60.4578C72.2904 60.4578 72.5223 60.4356 72.7543 60.4134C73.7705 59.0148 74.6983 57.5496 75.5268 56.0178C75.2175 56.0178 74.8861 56.04 74.5547 56.0844C74.2565 56.1288 73.9583 56.1843 73.66 56.262C73.3508 56.3397 73.0415 56.4285 72.7433 56.5506C72.434 56.6727 72.1578 56.8059 71.8927 56.9613C71.6387 57.1167 71.3736 57.2721 71.1416 57.4497C70.9097 57.6162 70.6888 57.7938 70.4899 57.9714C70.4457 58.0047 70.4237 58.038 70.3795 58.0713C70.8765 57.261 71.3515 56.4174 71.7933 55.5405C72.0584 55.0188 72.2904 54.4749 72.5223 53.931C72.8095 53.9976 73.2845 54.0753 73.8699 54.1086C74.3559 54.1308 74.9082 54.1086 75.4826 53.9976C75.9134 53.9199 76.3441 53.7534 76.7639 53.5536C77.4487 52.044 78.0562 50.5011 78.5643 48.8916C78.487 48.8916 78.4207 48.9027 78.3434 48.9138C77.9016 48.9804 77.3935 49.0914 76.8743 49.269C76.3441 49.4466 75.825 49.7019 75.2948 50.046C75.0297 50.2236 74.7867 50.4123 74.5658 50.6121C74.3449 50.8119 74.146 51.0228 73.9472 51.2337C73.7484 51.4446 73.5717 51.6555 73.417 51.8664C73.3618 51.933 73.3287 51.9996 73.2734 52.0773C73.8147 50.6121 74.2786 49.1025 74.6652 47.5596C74.9303 47.5596 75.3721 47.5596 75.9134 47.493C76.3552 47.4264 76.8522 47.3154 77.3493 47.1045C77.8464 46.8936 78.3545 46.5939 78.7742 46.1721C78.9951 45.9612 79.1829 45.717 79.3486 45.4728C79.4369 45.3396 79.5032 45.1953 79.5805 45.0621C79.8235 43.8965 80.0113 42.7088 80.1549 41.51C79.9119 41.5544 79.5805 41.621 79.1829 41.7542L79.1608 41.5877Z" fill="#B9B9B9"/>
<path d="M35.0552 70.4697H35.0442C35.0442 70.4697 34.9448 70.4697 34.757 70.4697C34.5913 70.4697 34.3594 70.4697 34.0722 70.4697C34.0501 70.4586 34.028 70.4475 33.9949 70.4364C33.8402 70.3587 33.6745 70.2699 33.5088 70.1922C33.4094 70.1478 33.3211 70.0923 33.2217 70.0479C33.1222 69.9924 33.0118 69.9258 32.9013 69.8703C32.4595 69.615 31.9735 69.3597 31.4985 69.0933C31.2666 68.9601 31.0346 68.8269 30.8137 68.6937C30.5928 68.5716 30.3829 68.4384 30.1841 68.3385C29.9853 68.2386 29.8085 68.1276 29.6429 68.0277C29.4772 67.9389 29.3336 67.8501 29.2121 67.7835C28.9801 67.6503 28.8255 67.5837 28.8255 67.5837C28.8255 67.5837 28.8255 67.9278 29.0243 68.4384C29.1237 68.6937 29.2783 68.9823 29.5214 69.2709C29.7533 69.5706 30.0847 69.837 30.5155 70.0812C30.6259 70.1478 30.7585 70.1922 30.88 70.2477C30.8247 70.2477 30.7695 70.2477 30.7143 70.2255C30.0295 70.1367 29.2673 70.0368 28.4499 69.8703C28.3505 69.8481 28.2511 69.8259 28.1517 69.8037C28.1186 69.7038 28.0854 69.5928 28.0302 69.4596C27.9308 69.2043 27.7872 68.8935 27.5884 68.5494C27.3895 68.2053 27.1244 67.839 26.7931 67.4172C26.6384 67.2063 26.4617 66.9954 26.285 66.7956C26.1082 66.5958 25.9315 66.4071 25.7548 66.2295C25.4124 65.841 25.0589 65.4969 24.7607 65.2305C24.606 65.0862 24.4735 64.953 24.3409 64.8309C24.2194 64.7199 24.0979 64.62 24.0096 64.5423C23.8218 64.3869 23.7003 64.2981 23.7003 64.2981C23.7003 64.2981 23.5346 64.7754 23.4904 65.4969C23.4683 65.8521 23.4904 66.2739 23.5898 66.7179C23.6451 66.9399 23.7113 67.1619 23.8107 67.395C23.9101 67.6059 24.0427 67.8279 24.1973 68.0499C24.363 68.2608 24.5398 68.4717 24.7386 68.6493C24.8932 68.8047 25.0589 68.9157 25.2246 69.0378C24.1532 68.6937 23.0265 68.2719 21.8777 67.7169C21.9109 67.5171 21.944 67.2618 21.9551 66.951C21.9772 66.5847 21.9661 66.1518 21.9219 65.6856C21.8998 65.4525 21.8667 65.2083 21.8115 64.9641C21.7673 64.7088 21.7121 64.4424 21.6347 64.176C21.5574 63.9096 21.4691 63.6543 21.3696 63.4101C21.2702 63.177 21.1708 62.9217 21.0604 62.6997C20.961 62.4777 20.8505 62.2668 20.74 62.0781C20.6296 61.8894 20.5191 61.7007 20.4197 61.5342C20.3203 61.3677 20.2209 61.2123 20.1215 61.0902C20.0331 60.957 19.9447 60.8571 19.8785 60.7572C19.7459 60.5685 19.6576 60.4686 19.6576 60.4686C19.6576 60.4686 19.282 60.9792 18.9506 61.7673C18.785 62.1669 18.6414 62.622 18.564 63.1326C18.4978 63.6321 18.4867 64.1982 18.6303 64.7421C18.7076 65.0196 18.807 65.2749 18.9285 65.5191C19.0501 65.7633 19.1936 66.0075 19.3593 66.2184C19.4477 66.3183 19.5361 66.4071 19.6134 66.507C18.4867 65.8299 17.3711 65.0307 16.2886 64.1205C16.4101 63.8874 16.5869 63.5655 16.7525 63.1548C16.9182 62.7552 17.0729 62.289 17.2054 61.7784C17.338 61.2567 17.4374 60.7017 17.4595 60.1356C17.4595 59.9913 17.4595 59.8581 17.4595 59.7249C17.4595 59.5806 17.4595 59.4474 17.4484 59.3142C17.4374 59.0478 17.4042 58.7925 17.3601 58.5483C17.338 58.4262 17.3159 58.3152 17.2827 58.2042C17.2606 58.0932 17.2386 57.9711 17.2054 57.8712C17.1502 57.6603 17.095 57.4494 17.0287 57.2718C16.9624 57.0942 16.8961 56.9388 16.8409 56.7834C16.7857 56.6391 16.7305 56.5059 16.6752 56.406C16.5758 56.2062 16.4985 56.0952 16.4985 56.0952C16.4985 56.0952 15.9573 56.5392 15.3718 57.2718C15.0736 57.6381 14.7754 58.0821 14.5324 58.5927C14.2894 59.0922 14.1237 59.6472 14.0795 60.2466C14.0574 60.5463 14.0684 60.846 14.1126 61.1235C14.1568 61.401 14.2341 61.6785 14.3225 61.9338C14.3998 62.1447 14.4882 62.3556 14.5876 62.5443C14.3998 62.3556 14.201 62.178 14.0132 61.9782C13.229 61.1346 12.4889 60.2133 11.782 59.2476C11.9919 59.0367 12.279 58.7259 12.6104 58.3041C12.9087 57.9267 13.2179 57.4827 13.5051 56.9943C13.7923 56.5059 14.0243 55.9731 14.201 55.4181C14.2894 55.1406 14.3446 54.8631 14.3777 54.5967C14.4109 54.3302 14.4219 54.086 14.433 53.8418C14.433 53.3534 14.3777 52.9094 14.2894 52.5431C14.1347 51.7883 13.8586 51.2999 13.8586 51.2999C13.8586 51.2999 13.24 51.6218 12.5221 52.2323C12.1686 52.532 11.782 52.9094 11.4396 53.3645C11.2628 53.5865 11.1082 53.8307 10.9646 54.0971C10.8321 54.3525 10.7106 54.6299 10.6222 54.9186C10.5338 55.2072 10.4786 55.4958 10.4455 55.7844C10.4123 56.073 10.4234 56.3616 10.4455 56.628C10.4676 56.8944 10.5117 57.1608 10.567 57.4161C10.567 57.4383 10.578 57.4605 10.5891 57.4938C10.103 56.7168 9.63913 55.9176 9.21939 55.0851C8.9543 54.5745 8.72234 54.0416 8.47933 53.5088C8.72234 53.3423 9.09789 53.087 9.53972 52.7207C9.90423 52.4099 10.3019 52.0325 10.6553 51.6107C11.0088 51.1889 11.3291 50.7116 11.5611 50.1899C11.6715 49.9346 11.7599 49.6682 11.8262 49.424C11.8814 49.1798 11.9145 48.9245 11.9366 48.6914C11.9587 48.4472 11.9698 48.2141 11.9477 47.9921C11.9477 47.7701 11.9035 47.5703 11.8814 47.3705C11.8372 46.982 11.7378 46.649 11.6715 46.4159C11.5942 46.1828 11.539 46.0496 11.539 46.0496C11.539 46.0496 11.3843 46.1051 11.1413 46.2161C10.8983 46.3271 10.567 46.4936 10.2025 46.7378C9.83795 46.9709 9.45135 47.2706 9.0758 47.648C8.71129 48.0254 8.34679 48.4805 8.11483 49.0133C7.99332 49.2797 7.89391 49.5572 7.82764 49.8347C7.76136 50.1122 7.70614 50.3897 7.69509 50.6672C7.673 50.9336 7.673 51.2 7.69509 51.4553C7.69509 51.5219 7.70614 51.5774 7.71718 51.6329C7.17594 50.2121 6.71202 48.7469 6.32543 47.2373C6.56843 47.1263 6.95503 46.9376 7.39686 46.649C7.76136 46.4048 8.17005 46.1162 8.53456 45.7499C8.89907 45.3947 9.23044 44.9729 9.49554 44.4956C9.62808 44.2514 9.71645 44.0072 9.79377 43.7741C9.87109 43.5299 9.91527 43.2857 9.95945 43.0415C10.0478 42.5642 10.0478 42.098 10.0368 41.6984C10.0368 41.2877 9.99259 40.9325 9.95945 40.6883C9.92632 40.433 9.88213 40.2887 9.88213 40.2887C9.88213 40.2887 9.32985 40.4108 8.63397 40.7771C8.29156 40.9547 7.90496 41.1989 7.54045 41.5208C7.35267 41.6873 7.17594 41.8649 6.99921 42.0647C6.83353 42.2645 6.67889 42.4865 6.53529 42.7307C6.3917 42.9749 6.28124 43.2302 6.19288 43.4966C6.09347 43.763 6.02719 44.0294 5.97196 44.2847C5.92778 44.5511 5.8836 44.8064 5.87255 45.0617C5.87255 45.1283 5.87255 45.1838 5.87255 45.2393C5.56327 43.7408 5.32027 42.2201 5.15458 40.6883C5.38654 40.6106 5.74001 40.4774 6.15974 40.2554C6.5132 40.0667 6.8998 39.8336 7.27535 39.5228C7.63986 39.212 7.98228 38.8457 8.26947 38.3906C8.5677 37.9355 8.75548 37.4582 8.88802 36.9809C8.94325 36.7367 9.00953 36.5036 9.05371 36.2705C9.09789 36.0374 9.11998 35.8154 9.14207 35.6156C9.16417 35.4047 9.17521 35.216 9.18626 35.0384C9.1973 34.8829 9.20835 34.7387 9.21939 34.6276C9.21939 34.3945 9.21939 34.2613 9.21939 34.2613C9.21939 34.2613 8.70025 34.3057 8.02646 34.5611C7.68404 34.6943 7.29745 34.8719 6.93294 35.1383C6.56843 35.4158 6.20392 35.771 5.89464 36.2372C5.74001 36.4703 5.60746 36.7145 5.48595 36.9587C5.3755 37.2029 5.28713 37.4693 5.20981 37.7246C5.13249 37.9799 5.06622 38.2352 5.02204 38.4905C5.01099 38.5571 5.01099 38.6126 4.99994 38.6792C4.96681 38.2685 4.93367 37.8467 4.91158 37.436C4.8674 36.659 4.85635 35.882 4.84531 35.0939C4.84531 34.7497 4.84531 34.4056 4.8674 34.0615C5.07726 34.0171 5.43073 33.9394 5.86151 33.7729C6.20392 33.6397 6.56843 33.4621 6.95503 33.229C7.34163 32.9959 7.72823 32.6962 8.04855 32.3299C8.21424 32.1412 8.33574 31.9525 8.49038 31.7527C8.63397 31.5529 8.75548 31.3531 8.85489 31.1422C8.96534 30.9424 9.05371 30.7315 9.11998 30.5317C9.1973 30.3319 9.28567 30.1432 9.35194 29.9545C9.48449 29.5882 9.56181 29.2663 9.61704 29.0332C9.63913 28.9111 9.67227 28.8223 9.68331 28.7557C9.69436 28.6891 9.7054 28.6558 9.7054 28.6558C9.7054 28.6558 9.24149 28.5892 8.5677 28.7002C7.916 28.8112 7.07653 29.1109 6.29229 29.8546C5.93883 30.232 5.62955 30.6871 5.38654 31.1533C5.254 31.3864 5.15458 31.6306 5.07726 31.8637C5.04413 31.9414 5.03308 32.008 5.01099 32.0857C5.15458 30.7759 5.38654 29.4883 5.72896 28.2229C5.79523 27.9898 5.87255 27.7678 5.93883 27.5347C6.13765 27.5347 6.46902 27.5347 6.87771 27.457C7.20908 27.4015 7.59568 27.3016 7.98228 27.1462C8.35783 26.9797 8.77757 26.7688 9.17521 26.4691C9.37403 26.3137 9.55077 26.1472 9.7054 25.9696C9.86004 25.792 10.0257 25.6033 10.1693 25.4257C10.3129 25.237 10.4565 25.0483 10.567 24.8596C10.6885 24.6709 10.7879 24.4822 10.8983 24.3157C11.3181 23.6275 11.539 23.0614 11.539 23.0614C11.539 23.0614 11.1413 22.9393 10.5449 22.9504C10.2356 22.9504 9.88213 23.0059 9.49554 23.1169C9.10894 23.2279 8.66711 23.4166 8.25842 23.7274C8.04855 23.8828 7.84973 24.0493 7.66195 24.238C7.47418 24.4267 7.2864 24.6154 7.12072 24.8263C6.88876 25.1371 6.68993 25.4479 6.50216 25.7587C7.05444 24.2491 7.73927 22.795 8.49038 21.4075C8.52352 21.4075 8.54561 21.4186 8.60084 21.4297C8.77757 21.4519 9.04266 21.4852 9.35194 21.4741C9.66122 21.4741 10.0257 21.4297 10.4123 21.3298C10.6111 21.2743 10.7989 21.2077 10.9977 21.1189C11.1966 21.0301 11.3954 20.9191 11.6163 20.797C12.036 20.5417 12.4116 20.2087 12.754 19.8646C13.1075 19.5205 13.4168 19.1653 13.6708 18.8323C13.9249 18.4993 14.1568 18.2107 14.3004 17.9998C14.455 17.7889 14.5324 17.6557 14.5324 17.6557C14.5324 17.6557 14.212 17.5003 13.6708 17.4781C13.3947 17.467 13.0743 17.4781 12.6988 17.5558C12.3232 17.6335 11.9145 17.7889 11.4727 18.0331C11.2518 18.1552 11.0309 18.2995 10.821 18.4549C10.6001 18.6103 10.4123 18.7879 10.2135 18.9655C9.91527 19.2541 9.62808 19.5538 9.38508 19.8424C10.2577 18.4216 11.2076 17.1007 12.1907 15.8464C12.3343 15.8908 12.5883 15.9574 12.9418 15.9796C13.4941 16.0129 14.2673 15.9463 15.0957 15.4912C15.5265 15.2692 15.9462 14.9805 16.3218 14.6586C16.5095 14.4921 16.6973 14.3478 16.8741 14.1813C17.0508 14.0259 17.2165 13.8705 17.3711 13.7151C17.5257 13.5597 17.6693 13.4154 17.7908 13.2822C17.9234 13.149 18.0338 13.038 18.1222 12.9381C18.31 12.7383 18.4094 12.6162 18.4094 12.6162C18.4094 12.6162 18.1553 12.4719 17.6804 12.4275C17.4374 12.4053 17.1502 12.4053 16.7967 12.4719C16.4543 12.5274 16.0567 12.6606 15.6038 12.8604C15.3829 12.9714 15.1509 13.0824 14.93 13.2267C14.7091 13.3599 14.4882 13.5153 14.2783 13.6707C14.0684 13.8261 13.8586 13.9926 13.6708 14.148C13.5383 14.2479 13.4388 14.3589 13.3284 14.4588C13.6929 14.037 14.0684 13.6041 14.444 13.2045C15.1951 12.3831 15.9683 11.6172 16.7415 10.8735C16.852 10.9179 17.0729 10.9956 17.3932 11.0289C17.8682 11.0733 18.5751 11.0289 19.4256 10.6182C19.6355 10.5183 19.8564 10.4073 20.0663 10.2741C20.2761 10.152 20.486 10.0077 20.6959 9.86342C20.8947 9.71912 21.1045 9.57482 21.2923 9.43052C21.4801 9.28622 21.6679 9.14192 21.8446 8.99762C22.176 8.72012 22.4853 8.48702 22.6841 8.29832C22.8939 8.12072 23.0154 8.00972 23.0154 8.00972C23.0154 8.00972 22.8277 7.88762 22.419 7.86542C22.2091 7.85432 21.9551 7.86542 21.6237 7.90982C21.2923 7.96532 20.9168 8.07632 20.4639 8.25392C20.243 8.35382 20.011 8.45372 19.7791 8.57582C19.5581 8.69792 19.3262 8.83112 19.1053 8.96432C18.8844 9.09752 18.6635 9.24182 18.4536 9.37502C18.31 9.47492 18.1664 9.58592 18.0338 9.68582C18.7076 9.08642 19.3814 8.49812 20.0552 7.96532C20.6848 7.45471 21.3034 6.97741 21.9219 6.52231C22.0103 6.56671 22.187 6.62221 22.4742 6.64441C22.6841 6.66661 22.9492 6.65551 23.2695 6.60001C23.5898 6.54451 23.9543 6.42241 24.3851 6.25591C24.595 6.16711 24.8159 6.05611 25.0368 5.94511C25.2577 5.823 25.4786 5.7009 25.6885 5.5788C25.9094 5.4567 26.1193 5.3235 26.3292 5.1903C26.539 5.0571 26.7378 4.935 26.9256 4.8129C27.6767 4.3245 28.218 3.9693 28.218 3.9693C28.218 3.9693 28.0854 3.89159 27.732 3.88049C27.5552 3.88049 27.3122 3.88049 27.014 3.95819C26.7158 4.0137 26.3402 4.1136 25.8873 4.269C25.6664 4.3578 25.4345 4.4466 25.2025 4.5465C24.9705 4.6464 24.7275 4.7574 24.4956 4.8795C24.0537 5.1126 23.623 5.3346 23.2474 5.5677C24.8159 4.4799 26.296 3.58079 27.6325 2.87039C27.6878 2.89259 27.8424 2.94809 28.1075 2.95919C28.2842 2.95919 28.5272 2.95919 28.8255 2.89259C29.1237 2.83709 29.4772 2.73719 29.919 2.59289C30.1399 2.51519 30.3608 2.42639 30.5928 2.33759C30.8247 2.24879 31.0567 2.15999 31.2887 2.06009C31.5206 1.97129 31.7526 1.88248 31.9735 1.79368C32.1944 1.69378 32.4153 1.63828 32.6141 1.56058C32.7136 1.52728 32.813 1.48288 32.9124 1.46068C33.0118 1.43848 33.1002 1.40518 33.1775 1.38298C33.3432 1.33858 33.4978 1.28308 33.6193 1.27198C33.8623 1.22758 34.0059 1.19428 34.0059 1.19428C34.0059 1.19428 33.9396 1.14988 33.6524 1.10548C33.5088 1.07218 33.299 1.07218 33.0118 1.08328C32.9345 1.08328 32.8571 1.08328 32.7798 1.08328C32.6915 1.08328 32.6031 1.10548 32.5147 1.11658C32.327 1.14988 32.1171 1.17208 31.8962 1.21648C31.6532 1.27198 31.4102 1.33858 31.1782 1.39408C30.9352 1.46068 30.6922 1.54948 30.4381 1.62718C30.1951 1.70488 29.9521 1.79368 29.7202 1.88248C29.4882 1.97129 29.2563 2.06009 29.0464 2.14889C28.9359 2.19329 28.8476 2.23769 28.7371 2.28209C29.1016 2.10449 29.4551 1.93798 29.7864 1.79368C31.0677 1.22758 32.1171 0.89458 32.8571 0.739179C33.2217 0.661478 33.5088 0.628178 33.7077 0.605978C33.9065 0.605978 34.0059 0.594878 34.0059 0.594878C34.0059 0.594878 33.9065 0.594878 33.7077 0.594878C33.5199 0.617078 33.2327 0.639278 32.8571 0.716979C32.1171 0.861279 31.0677 1.19428 29.7754 1.74928C29.4772 1.88248 29.1679 2.01569 28.8365 2.17109C28.9028 2.13779 28.947 2.11559 29.0133 2.08229C29.2121 1.97129 29.433 1.87138 29.6539 1.76038C29.8748 1.64938 30.1068 1.52728 30.3498 1.41628C30.5817 1.30528 30.8137 1.19428 31.0567 1.08328C31.2776 0.98338 31.5096 0.88348 31.7415 0.783579C31.9624 0.694779 32.1723 0.617078 32.349 0.550478C32.4374 0.517178 32.5258 0.483878 32.6031 0.450577C32.6804 0.428377 32.7577 0.395077 32.8351 0.372877C33.1333 0.272976 33.3542 0.195276 33.5309 0.150876C33.8734 0.0620754 33.9728 -0.00452494 33.9728 -0.00452494C33.9728 -0.00452494 33.7739 -0.00452494 33.4536 -0.015625C33.2879 -0.015625 33.1002 0.00657511 32.8903 0.0176752C32.7798 0.0176752 32.6694 0.0398753 32.5589 0.0509753C32.4485 0.0620754 32.327 0.0953756 32.2055 0.117576C31.9624 0.161976 31.7084 0.206376 31.4543 0.284077C31.2003 0.350677 30.9352 0.428377 30.6811 0.517178C30.4271 0.605978 30.173 0.705879 29.93 0.805779C29.687 0.90568 29.4661 1.02778 29.2452 1.13878C28.8144 1.36078 28.5051 1.59388 28.2732 1.80478C28.0412 2.00459 27.8866 2.18219 27.7872 2.33759C27.6436 2.55959 27.6104 2.70389 27.5994 2.77049C26.2408 3.48089 24.7275 4.38 23.1259 5.4678C23.4794 5.1792 23.8991 4.8795 24.2857 4.5465C24.4845 4.3911 24.6833 4.2246 24.8932 4.047C25.092 3.88049 25.2798 3.71399 25.4565 3.55859C25.81 3.23669 26.0861 2.97029 26.296 2.73719C26.5059 2.50409 26.6495 2.31539 26.7489 2.15999C26.9477 1.86028 26.9588 1.69378 26.9588 1.69378C26.9588 1.69378 26.8041 1.76038 26.528 1.88248C26.2518 1.99349 25.8873 2.18219 25.4676 2.40419C25.2577 2.51519 25.0368 2.62619 24.8159 2.75939C24.595 2.89259 24.363 3.03689 24.1421 3.18119C23.6892 3.46979 23.2805 3.81389 22.9271 4.1469C22.5736 4.4799 22.3417 4.8018 22.176 5.0793C22.0103 5.3568 21.9219 5.601 21.8777 5.8008C21.8115 6.08941 21.8336 6.27811 21.8446 6.36691C21.226 6.82201 20.5964 7.28821 19.9558 7.78771C19.2599 8.34272 18.564 8.93102 17.8571 9.55262C17.9897 9.40832 18.1222 9.26402 18.2658 9.10862C18.4425 8.93102 18.6082 8.73122 18.785 8.54252C18.9506 8.34272 19.1274 8.14292 19.282 7.94312C19.4477 7.74331 19.6023 7.54351 19.7459 7.34371C20.0331 6.94411 20.2209 6.58891 20.3755 6.28921C20.5191 5.98951 20.6075 5.7342 20.6517 5.5344C20.74 5.1237 20.6848 4.9128 20.6848 4.9128C20.6848 4.9128 20.5412 5.0016 20.2872 5.1681C20.0442 5.3346 19.6907 5.5566 19.3262 5.8452C19.1384 5.98951 18.9396 6.14491 18.7408 6.31141C18.5419 6.47791 18.3431 6.65551 18.1553 6.84421C17.7798 7.22161 17.4153 7.62121 17.1391 8.03192C16.5979 8.86442 16.4764 9.55262 16.4985 10.0299C16.5206 10.3518 16.5869 10.5738 16.631 10.6848C15.8468 11.4174 15.0736 12.1833 14.3004 12.9936C13.9138 13.4043 13.5383 13.8261 13.1627 14.259C13.2511 14.1258 13.3394 13.9926 13.4278 13.8594C13.5714 13.6485 13.715 13.4265 13.8475 13.2045C13.9801 12.9825 14.1126 12.7494 14.2341 12.5163C14.3556 12.2832 14.4771 12.0612 14.5765 11.8281C14.7754 11.373 14.8969 10.9623 14.9631 10.6071C15.0294 10.263 15.0515 9.96333 15.0405 9.73022C15.0184 9.25292 14.8858 8.99762 14.8858 8.99762C14.8858 8.99762 14.7533 9.10862 14.5213 9.30842C14.4109 9.40832 14.2783 9.53042 14.1237 9.66362C13.9801 9.79682 13.8254 9.96332 13.6598 10.1298C13.4941 10.3074 13.3284 10.485 13.1517 10.6848C12.9749 10.8846 12.7982 11.0844 12.6546 11.3175C12.3343 11.7615 12.0581 12.2388 11.8593 12.705C11.4948 13.6707 11.55 14.4366 11.7047 14.9473C11.8151 15.2914 11.9477 15.5245 12.025 15.6466C11.0198 16.8898 10.0589 18.2107 9.17521 19.6204C9.32985 19.2763 9.48449 18.9211 9.62808 18.5215C9.71645 18.2773 9.79377 18.0109 9.87109 17.7556C9.94841 17.5003 10.0147 17.245 10.0589 16.9897C10.1583 16.4791 10.1693 16.024 10.1583 15.6466C10.1472 15.2581 10.081 14.9362 10.0036 14.6697C9.849 14.148 9.62808 13.8705 9.62808 13.8705C9.62808 13.8705 9.50658 14.0037 9.30776 14.2368C9.11998 14.4699 8.84384 14.7919 8.5677 15.1915C8.3026 15.5911 8.01542 16.0684 7.77241 16.5568C7.54045 17.0674 7.36372 17.6002 7.27535 18.1219C7.17594 18.6436 7.23117 19.1209 7.31954 19.5205C7.4079 19.9201 7.5515 20.2531 7.70614 20.5195C7.90496 20.8636 8.11483 21.0856 8.23633 21.2077C7.46313 22.5952 6.76725 24.0604 6.18183 25.5811C6.25915 25.2259 6.31438 24.8485 6.35856 24.4489C6.38065 24.1825 6.42484 23.9161 6.43588 23.6497C6.45797 23.3833 6.45797 23.1058 6.43588 22.8394C6.3917 22.2955 6.31438 21.8404 6.19288 21.4408C6.07138 21.0412 5.91674 20.7082 5.75105 20.4418C5.44177 19.909 5.12145 19.6315 5.12145 19.6315C5.12145 19.6315 4.7238 20.2531 4.31511 21.1633C4.2157 21.3853 4.12734 21.6406 4.03897 21.907C3.95061 22.1734 3.88433 22.4398 3.81806 22.7173C3.75178 22.9948 3.69655 23.2834 3.68551 23.572C3.66342 23.8606 3.67446 24.1492 3.68551 24.4267C3.74074 24.9817 3.88433 25.4479 4.10524 25.8475C4.31511 26.236 4.56916 26.5468 4.81217 26.791C5.12145 27.1018 5.39759 27.2905 5.57432 27.3793C5.50805 27.6124 5.41968 27.8344 5.35341 28.0675C4.9889 29.3662 4.73485 30.7204 4.58021 32.0746C4.58021 31.9636 4.56916 31.8526 4.55812 31.7416C4.52498 31.4863 4.4808 31.2199 4.45871 30.9535C4.39243 30.4207 4.27093 29.8657 4.07211 29.3329C3.74074 28.2895 3.16636 27.5347 2.66931 27.0352C2.1833 26.5468 1.77461 26.3248 1.77461 26.3248C1.77461 26.3248 1.76356 26.3692 1.73042 26.4469C1.69729 26.5357 1.6531 26.6467 1.60892 26.8021C1.52056 27.1129 1.42114 27.5458 1.33278 28.0564C1.29964 28.3117 1.24441 28.5781 1.23337 28.8667C1.22232 29.1553 1.22232 29.4439 1.23337 29.7436C1.24441 30.0433 1.27755 30.343 1.33278 30.6316C1.37696 30.9202 1.48742 31.2199 1.59788 31.4863C1.82983 32.0302 2.12807 32.4631 2.44839 32.8072C2.76872 33.1513 3.15532 33.3955 3.47564 33.5731C3.88433 33.7951 4.2157 33.9061 4.42557 33.9616C4.41452 34.3168 4.39243 34.6609 4.39243 35.0162C4.39243 35.7932 4.39243 36.5813 4.43661 37.3694C4.45871 37.8134 4.49184 38.2574 4.51393 38.7014C4.49184 38.6126 4.46975 38.5349 4.43661 38.435C4.3593 38.1908 4.28198 37.9355 4.18256 37.6913C4.08315 37.436 3.96165 37.1807 3.8291 36.9365C3.69655 36.6923 3.56401 36.4481 3.39832 36.215C3.078 35.7488 2.70244 35.3825 2.32689 35.0717C1.96238 34.772 1.59788 34.5166 1.26651 34.339C0.61481 33.9727 0.0956634 33.8617 0.0956634 33.8617C0.0956634 33.8617 0.0735721 34.0615 0.0625264 34.3834C0.0625264 34.5499 0.0514807 34.7387 0.0625264 34.9607C0.0625264 35.1605 0.0956634 35.3936 0.117755 35.6378C0.150892 35.882 0.184029 36.1373 0.228212 36.4037C0.28344 36.6701 0.338668 36.9365 0.438079 37.214C0.61481 37.7579 0.857815 38.2907 1.20023 38.768C1.54265 39.2342 1.96238 39.5894 2.37107 39.8669C2.77976 40.1333 3.21054 40.322 3.5861 40.4441C3.96165 40.5662 4.30407 40.6328 4.54707 40.6661C4.6023 40.6661 4.63544 40.6661 4.67962 40.6772C4.83426 42.2534 5.06622 43.8074 5.3755 45.3503C5.34236 45.2726 5.30922 45.1949 5.26504 45.1172C5.15458 44.8841 5.02204 44.651 4.87844 44.4179C4.58021 43.9406 4.25988 43.4633 3.84015 43.0526C3.63028 42.8417 3.42041 42.653 3.18845 42.4865C2.96754 42.32 2.75767 42.1757 2.53676 42.0536C2.09493 41.7983 1.66415 41.6207 1.2886 41.4986C0.890952 41.3654 0.548536 41.2988 0.316577 41.2544C0.460171 42.4532 0.647947 43.6409 0.890952 44.8064C0.968272 44.9507 1.03455 45.0839 1.12291 45.2171C1.2886 45.4613 1.47637 45.6944 1.69729 45.9164C2.11702 46.3382 2.62512 46.6379 3.12218 46.8488C3.61923 47.0597 4.11629 47.1707 4.55812 47.2373C5.09936 47.315 5.54118 47.315 5.80628 47.3039C6.18183 48.8468 6.64575 50.3564 7.19803 51.8216C7.15385 51.755 7.10967 51.6884 7.05444 51.6107C6.8998 51.3998 6.72307 51.1889 6.52425 50.978C6.32543 50.7671 6.1266 50.5562 5.90569 50.3564C5.68478 50.1566 5.44177 49.9679 5.17668 49.7903C4.64648 49.4462 4.11629 49.1909 3.59714 49.0133C3.078 48.8357 2.5699 48.7247 2.11702 48.6581C2.0397 48.6581 1.97343 48.647 1.89611 48.6359C2.40421 50.2343 3.01172 51.7883 3.69655 53.2979C4.11629 53.5088 4.54707 53.6642 4.97785 53.7419C5.55223 53.8529 6.11556 53.8751 6.59052 53.8529C7.1649 53.8307 7.63986 53.7419 7.92705 53.6753C8.15901 54.2192 8.40201 54.7632 8.65606 55.2849C9.08685 56.1618 9.57286 56.9943 10.0699 57.8157C10.0257 57.7824 10.0036 57.7491 9.95945 57.7158C9.76063 57.5382 9.55076 57.3606 9.30776 57.1941C9.0758 57.0276 8.8107 56.8722 8.55665 56.7057C8.29156 56.5503 8.00437 56.406 7.70614 56.295C7.4079 56.1729 7.08758 56.0841 6.7783 56.0064C6.48007 55.9287 6.18183 55.8732 5.8836 55.8288C5.54118 55.7844 5.22086 55.7733 4.90053 55.7622C5.72896 57.294 6.66784 58.7592 7.673 60.1578C7.90496 60.18 8.13692 60.2022 8.35783 60.2022C8.96534 60.2022 9.51763 60.1134 9.98155 59.9913C10.5338 59.847 10.9536 59.6916 11.2297 59.5695C11.9366 60.5685 12.6877 61.5231 13.483 62.3889C13.6929 62.6109 13.9028 62.8107 14.1126 63.0216C13.8917 62.9106 13.6708 62.7774 13.4278 62.6664C13.1627 62.5443 12.8866 62.4333 12.5883 62.3445C12.2901 62.2557 11.9919 62.1669 11.6715 62.1114C11.0309 61.9893 10.3902 61.9782 9.79377 62.0226C9.5839 62.0337 9.38508 62.067 9.17521 62.0892C10.2356 63.3768 11.3843 64.5978 12.5883 65.7522C12.8645 65.73 13.1406 65.7078 13.3836 65.6523C13.9469 65.5302 14.444 65.3415 14.8416 65.1528C15.2614 64.953 15.5817 64.7421 15.8026 64.5978C16.9072 65.5524 18.0559 66.3849 19.2047 67.0953C19.0721 67.062 18.9396 67.0176 18.796 66.9954C18.5199 66.9399 18.2437 66.8733 17.9455 66.84C17.6472 66.8067 17.349 66.7845 17.0287 66.7956C16.4101 66.7956 15.8247 66.8955 15.2835 67.0398C14.9631 67.1286 14.6649 67.2396 14.3777 67.3506C15.4712 68.2719 16.5979 69.1377 17.7798 69.9369C17.8682 69.9369 17.9676 69.9369 18.0559 69.9369C18.3873 69.9147 18.6855 69.8592 18.9727 69.7926C19.2599 69.7149 19.525 69.6261 19.757 69.5262C20.2319 69.3264 20.6185 69.0933 20.9168 68.8824C21.1819 68.6826 21.3807 68.505 21.5243 68.3496C22.7172 68.9268 23.877 69.3819 24.9926 69.7482C24.7607 69.7482 24.5398 69.7482 24.3078 69.7482C24.0317 69.7482 23.7445 69.7815 23.4573 69.837C23.1701 69.8925 22.905 69.9591 22.6509 70.0479C22.3969 70.1256 22.1649 70.2144 21.944 70.3143C21.5022 70.5141 21.1266 70.7583 20.8174 70.9914C20.5854 71.169 20.4087 71.3244 20.2651 71.4687C20.7069 71.724 21.1487 71.9682 21.6016 72.2013C21.6568 72.2013 21.701 72.2235 21.7562 72.2235C22.3085 72.2679 22.9381 72.2901 23.5567 72.2679C24.1973 72.2235 24.838 72.1236 25.4124 71.9793C25.9978 71.8239 26.4617 71.613 26.8373 71.4021C27.2128 71.2023 27.4889 71.0025 27.6988 70.8138C27.8093 70.725 27.8976 70.6251 27.9639 70.5474C28.0633 70.5696 28.1738 70.5918 28.2732 70.614C29.1127 70.7916 29.8969 70.9137 30.6038 71.0025C30.648 71.0025 30.6811 71.0025 30.7364 71.0136C30.6149 71.0358 30.4934 71.0469 30.3829 71.0802C29.8748 71.2023 29.4661 71.391 29.1127 71.5686C28.7592 71.7462 28.4941 71.9571 28.2732 72.1569C27.8424 72.5454 27.6878 72.8673 27.6878 72.8673C27.6878 72.8673 27.8755 72.8673 28.2069 72.834C28.3616 72.8118 28.5604 72.8007 28.7813 72.7785C29.0022 72.7563 29.2342 72.7341 29.4993 72.6786C29.7533 72.6342 30.0295 72.5676 30.3056 72.5121C30.5817 72.4455 30.8689 72.3789 31.1561 72.3123C31.4433 72.2346 31.7305 72.1347 32.0066 72.0459C32.2828 71.9571 32.5479 71.8683 32.8019 71.7795C33.299 71.613 33.6856 71.4243 33.9949 71.3022C34.0059 71.3022 34.028 71.2911 34.039 71.28C34.3483 71.2911 34.6134 71.2911 34.7791 71.2911C34.9779 71.2911 35.0773 71.2911 35.0773 71.2911C35.3535 71.2911 35.5744 71.0802 35.5744 70.8138C35.5744 70.5474 35.3535 70.3365 35.0884 70.3254L35.0552 70.4697Z" fill="#B9B9B9"/>
</g>
<defs>
<clipPath id="clip0_604_1826">
<rect width="80.3463" height="72.9385" fill="white" transform="translate(0.0283203 0.0615234)"/>
</clipPath>
</defs>
</svg>
