<svg width="114" height="102" viewBox="0 0 114 102" fill="none" xmlns="http://www.w3.org/2000/svg">
<g clip-path="url(#clip0_604_1832)">
<path d="M111.708 58.0711C111.165 58.2418 110.56 58.5057 109.955 58.8472C109.645 59.0335 109.334 59.2353 109.04 59.4526C108.729 59.6855 108.419 59.9493 108.125 60.2443C107.535 60.8341 107.085 61.5016 106.666 62.1536C106.465 62.4795 106.279 62.821 106.124 63.1315C106.062 63.2402 106.031 63.3488 105.968 63.4575C106.403 61.2998 106.713 59.1266 106.93 56.9224C106.992 56.9224 107.039 56.9224 107.116 56.9069C107.458 56.8603 107.938 56.7672 108.466 56.5964C109.009 56.4257 109.598 56.1618 110.172 55.7892C110.746 55.4167 111.335 54.9044 111.816 54.2525C112.281 53.6005 112.623 52.8399 112.871 52.0793C112.995 51.7068 113.088 51.3187 113.166 50.9461C113.228 50.5736 113.29 50.2166 113.321 49.8751C113.352 49.5336 113.383 49.2231 113.398 48.9282C113.398 48.6177 113.398 48.3383 113.383 48.121C113.367 47.6709 113.336 47.3914 113.336 47.3914C113.336 47.3914 112.623 47.5467 111.692 48.0589C111.227 48.3073 110.73 48.6643 110.203 49.0834C109.676 49.5025 109.164 50.0303 108.698 50.6823C108.466 51.0082 108.28 51.3497 108.093 51.6912C107.907 52.0483 107.737 52.3898 107.597 52.7468C107.458 53.1038 107.333 53.4453 107.225 53.7868C107.194 53.911 107.163 54.0352 107.116 54.1594C107.147 53.5384 107.209 52.9175 107.225 52.2966C107.271 51.1945 107.287 50.0924 107.287 49.0058C107.287 48.5091 107.271 48.0279 107.24 47.5312C107.535 47.438 108 47.2828 108.574 46.9879C109.024 46.7395 109.552 46.398 110.017 45.9168C110.467 45.4356 110.901 44.8302 111.211 44.0696C111.366 43.6815 111.521 43.2779 111.583 42.8743C111.661 42.4707 111.692 42.0516 111.723 41.6325C111.754 41.2134 111.739 40.8098 111.723 40.4062C111.708 40.0026 111.63 39.6301 111.583 39.2731C111.459 38.559 111.32 37.9536 111.196 37.519C111.134 37.3017 111.072 37.1464 111.025 37.0223C110.979 36.9136 110.963 36.8515 110.963 36.8515C110.963 36.8515 110.389 37.162 109.707 37.845C109.009 38.528 108.187 39.5835 107.721 41.0582C107.442 41.8033 107.287 42.5794 107.178 43.3245C107.132 43.697 107.085 44.0696 107.039 44.4266C107.023 44.5974 107.008 44.7371 106.992 44.9078C106.775 42.9985 106.418 41.1203 105.906 39.3041C105.813 38.9781 105.689 38.6677 105.596 38.3417C105.829 38.202 106.217 37.9381 106.666 37.519C107.008 37.1775 107.364 36.7428 107.659 36.1996C107.969 35.6407 108.171 34.9888 108.249 34.2126C108.28 33.8246 108.295 33.421 108.249 33.0174C108.233 32.6138 108.156 32.2102 108.062 31.8221C107.969 31.4341 107.861 31.046 107.752 30.689C107.628 30.332 107.52 29.9594 107.364 29.649C106.791 28.3761 106.232 27.5068 106.232 27.5068C106.232 27.5068 105.782 27.8794 105.348 28.64C105.131 29.0125 104.898 29.4782 104.728 30.037C104.557 30.5958 104.448 31.2323 104.386 31.9929C104.355 32.3654 104.355 32.7535 104.386 33.126C104.386 33.4986 104.464 33.8711 104.495 34.2437C104.557 34.8025 104.635 35.3303 104.743 35.827C103.921 33.7004 102.944 31.6514 101.858 29.711C102.029 29.5403 102.323 29.2298 102.603 28.7486C102.82 28.3761 103.021 27.9104 103.145 27.3516C103.254 26.7928 103.332 26.1253 103.208 25.3957C103.083 24.6662 102.835 23.9055 102.51 23.207C102.168 22.5085 101.765 21.8565 101.377 21.2977C101.005 20.7234 100.617 20.2887 100.338 19.9628C100.059 19.6368 99.8882 19.4505 99.8882 19.4505C99.8882 19.4505 99.578 19.8386 99.3608 20.5682C99.2522 20.9407 99.1592 21.3909 99.1437 21.9342C99.1437 22.4619 99.1437 23.0984 99.2833 23.8124C99.3453 24.1694 99.4384 24.5265 99.5469 24.8835C99.6555 25.2405 99.7641 25.5975 99.8882 25.9545C100.074 26.5134 100.307 27.0101 100.524 27.4913C99.2833 25.5199 97.9338 23.6727 96.5223 21.9342C96.6309 21.7634 96.8325 21.4374 96.9721 20.9562C97.1893 20.2267 97.2668 19.1711 96.755 17.8206C96.4758 17.1687 96.088 16.5012 95.6382 15.8803C95.421 15.5698 95.1729 15.2749 94.9402 14.9955C94.692 14.7161 94.4593 14.4522 94.2267 14.2194C93.994 13.9865 93.7769 13.7537 93.5752 13.5674C93.3581 13.3811 93.1719 13.2104 93.0168 13.0707C92.7066 12.7913 92.505 12.636 92.505 12.636C92.505 12.636 92.3188 12.9931 92.2878 13.6605C92.2723 14.002 92.2878 14.4056 92.3964 14.8868C92.4895 15.3836 92.6601 15.9579 92.9393 16.5943C93.0789 16.9203 93.2495 17.2308 93.4201 17.5567C93.5907 17.8827 93.7769 18.2087 93.963 18.5192C94.1491 18.8296 94.3508 19.1401 94.5524 19.435C94.6765 19.6368 94.8006 19.8231 94.9247 20.0093C94.3973 19.4039 93.8699 18.7986 93.327 18.2397C92.2568 17.0911 91.1555 16.0355 90.0542 15.011C90.1163 14.8558 90.2249 14.5609 90.2404 14.0952C90.2714 13.4277 90.1008 12.4808 89.3407 11.3011C88.953 10.7267 88.4411 10.1679 87.9137 9.64015C87.65 9.37626 87.3553 9.1279 87.0916 8.89506C86.8124 8.66222 86.5333 8.4449 86.2696 8.2431C85.7577 7.83951 85.2614 7.52906 84.9201 7.29622C84.5634 7.0789 84.3617 6.93919 84.3617 6.93919C84.3617 6.93919 84.2842 7.24965 84.4083 7.80847C84.4703 8.08788 84.5944 8.4449 84.796 8.86401C84.9977 9.28313 85.2769 9.77985 85.6801 10.3387C85.8818 10.6181 86.0989 10.8975 86.3316 11.1769C86.5643 11.4563 86.7969 11.7512 87.0296 12.0151C87.2623 12.2945 87.5104 12.5584 87.7586 12.8068C87.9603 13.0241 88.1464 13.2259 88.3325 13.4277C87.3398 12.5584 86.3626 11.7357 85.3854 10.9596C84.4858 10.2455 83.6017 9.59358 82.7331 8.97267C82.7486 8.84849 82.7796 8.5846 82.6865 8.18101C82.6245 7.9016 82.5004 7.5601 82.2677 7.17203C82.0351 6.78397 81.7093 6.31828 81.213 5.86812C80.7166 5.40244 80.1272 4.92124 79.5068 4.51765C79.1966 4.31585 78.8708 4.11405 78.5606 3.92778C78.2504 3.74151 77.9402 3.57076 77.6455 3.43105C77.0561 3.1206 76.5442 2.85671 76.1564 2.70149C75.7686 2.54626 75.5515 2.4376 75.5515 2.4376C75.5515 2.4376 75.5515 2.65492 75.8462 3.08955C75.9858 3.30687 76.203 3.57076 76.4822 3.89674C76.7769 4.22271 77.1646 4.61078 77.661 5.04542C77.9092 5.27826 78.1728 5.5111 78.452 5.72842C78.7468 5.96126 79.0259 6.1941 79.3051 6.42694C79.8635 6.89262 80.453 7.32726 80.9493 7.73085C78.7002 6.20962 76.5597 4.93676 74.6519 3.9433C74.6519 3.85017 74.5898 3.64837 74.3882 3.33792C74.2486 3.1206 74.0314 2.87224 73.7057 2.59283C73.38 2.31342 72.9457 1.98744 72.3407 1.66146C72.0305 1.50623 71.7203 1.33548 71.379 1.19578C71.0378 1.05608 70.6811 0.916371 70.3243 0.792189C69.9675 0.668007 69.5953 0.559348 69.2385 0.466211C68.8818 0.357552 68.525 0.295461 68.1838 0.23337C68.0132 0.202325 67.8581 0.171279 67.6874 0.140234C67.5168 0.124711 67.3617 0.109189 67.2221 0.0936658C66.9274 0.0626203 66.6792 0.0315748 66.4311 0.0470976C65.9812 0.0470976 65.702 0.0626203 65.702 0.0626203C65.702 0.0626203 65.8261 0.140234 66.3225 0.279939C66.5707 0.326507 66.8809 0.450689 67.2997 0.590393C67.4082 0.621439 67.5168 0.668007 67.6254 0.699052C67.7495 0.745621 67.8736 0.792189 67.9821 0.838757C68.2303 0.947416 68.525 1.04055 68.8353 1.16473C69.161 1.30444 69.4867 1.44414 69.7969 1.58385C70.1382 1.73908 70.4639 1.8943 70.7896 2.04953C71.1309 2.20476 71.4566 2.35999 71.7668 2.53074C72.077 2.68596 72.3873 2.84119 72.682 2.98089C72.775 3.02746 72.8371 3.05851 72.9301 3.10508C72.4803 2.88776 72.0305 2.70149 71.6272 2.51521C69.828 1.73908 68.3389 1.27339 67.2997 1.0716C66.7878 0.962939 66.3845 0.931894 66.1053 0.900848C65.8261 0.900848 65.6865 0.900848 65.6865 0.900848C65.6865 0.900848 65.8261 0.900848 66.1053 0.916371C66.369 0.947416 66.7723 0.978462 67.2997 1.10264C68.3234 1.31996 69.8124 1.78564 71.6117 2.5773C72.077 2.7791 72.5734 3.01194 73.0853 3.2603C72.9457 3.19821 72.8216 3.13612 72.6665 3.07403C72.3717 2.94985 72.046 2.82567 71.7203 2.70149C71.3946 2.5773 71.0533 2.4376 70.7121 2.34446C70.3553 2.2358 70.0141 2.11162 69.6728 2.01848C69.3471 1.94087 69.0059 1.86326 68.6801 1.77012C68.3544 1.69251 68.0597 1.66146 67.8115 1.63042C67.6874 1.61489 67.5633 1.59937 67.4393 1.58385C67.3307 1.58385 67.2221 1.58385 67.1135 1.58385C66.7102 1.58385 66.4155 1.56833 66.2139 1.61489C65.8106 1.67698 65.7176 1.73908 65.7176 1.73908C65.7176 1.73908 65.9192 1.78564 66.2604 1.84774C66.4311 1.86326 66.6482 1.94087 66.8809 2.00296C67.005 2.03401 67.129 2.06505 67.2531 2.11162C67.3772 2.15819 67.5168 2.20476 67.6564 2.25133C67.9356 2.35999 68.2458 2.4376 68.5561 2.5773C68.8663 2.70149 69.192 2.82567 69.5177 2.94985C69.8435 3.08955 70.1692 3.21374 70.4949 3.33792C70.8207 3.44658 71.1309 3.58628 71.4411 3.69494C72.046 3.89674 72.5579 4.03644 72.9767 4.11405C73.3955 4.19167 73.7212 4.20719 73.9849 4.20719C74.3572 4.20719 74.5743 4.12958 74.6519 4.08301C76.5287 5.07646 78.6072 6.33381 80.8097 7.85503C80.2823 7.52906 79.6774 7.2186 79.057 6.89262C78.7312 6.72187 78.39 6.58217 78.0643 6.42694C77.7385 6.28724 77.4128 6.14753 77.1026 6.03887C76.4822 5.80603 75.9548 5.68185 75.536 5.60424C75.1172 5.5111 74.7759 5.49558 74.5278 5.49558C74.0314 5.49558 73.8453 5.61976 73.8453 5.61976C73.8453 5.61976 74.6053 6.11649 75.6601 6.79949C75.9238 6.97024 76.203 7.14099 76.4977 7.32726C76.7924 7.51353 77.0871 7.68428 77.3973 7.87056C77.7075 8.04131 78.0177 8.21206 78.3124 8.38281C78.6227 8.53803 78.9329 8.69326 79.2276 8.81744C79.8325 9.06581 80.3444 9.23656 80.7942 9.29865C81.244 9.37626 81.6163 9.39179 81.911 9.36074C82.3143 9.32969 82.5624 9.23656 82.6865 9.18999C83.5551 9.82642 84.4238 10.4939 85.3079 11.2079C86.2385 11.9686 87.1847 12.7757 88.1309 13.614C87.9447 13.4743 87.7586 13.3346 87.5415 13.1793C87.2468 12.9775 86.9365 12.7913 86.6263 12.605C86.3161 12.4187 85.9904 12.2324 85.6801 12.0617C85.3544 11.8909 85.0287 11.7512 84.7185 11.6115C84.0825 11.3632 83.5551 11.1924 83.0898 11.1303C82.6245 11.0527 82.2677 11.0372 81.973 11.0682C81.3991 11.1148 81.1354 11.27 81.1354 11.27C81.1354 11.27 81.3061 11.4253 81.6008 11.6736C81.88 11.922 82.3143 12.2635 82.7796 12.6516C83.0278 12.8534 83.2759 13.0552 83.5396 13.2569C83.8033 13.4587 84.1135 13.6605 84.3927 13.8623C84.6719 14.0641 84.9666 14.2504 85.2769 14.4367C85.5716 14.6229 85.8818 14.7782 86.192 14.9179C87.3864 15.4922 88.3791 15.5543 89.046 15.4922C89.4958 15.4457 89.8061 15.3525 89.9612 15.2749C91.0469 16.2994 92.1172 17.386 93.1875 18.5347C93.7148 19.109 94.2267 19.6989 94.7385 20.3043C94.5834 20.149 94.4283 20.0093 94.2577 19.8541C93.9785 19.6368 93.6993 19.4039 93.4046 19.1866C93.1099 18.9693 92.7997 18.752 92.4895 18.5657C92.1792 18.3639 91.8535 18.2087 91.5433 18.0535C90.9073 17.7585 90.3489 17.5878 89.8681 17.5102C89.3718 17.4326 88.953 17.417 88.6272 17.4481C87.9603 17.5102 87.6035 17.712 87.6035 17.712C87.6035 17.712 87.7586 17.8827 88.0068 18.1621C88.1309 18.3018 88.286 18.4571 88.4721 18.6433C88.6427 18.8296 88.8444 19.0314 89.0615 19.2487C89.2787 19.466 89.5114 19.6834 89.7595 19.9007C90.0077 20.118 90.2714 20.3353 90.5351 20.5682C91.0625 21.0183 91.6519 21.4219 92.2568 21.7324C93.4356 22.3688 94.5059 22.4775 95.2814 22.4154C95.7778 22.3843 96.1345 22.2912 96.3362 22.2291C97.7322 23.9832 99.0661 25.8459 100.291 27.8173C99.9502 27.4137 99.5625 26.9946 99.1281 26.591C98.8645 26.3426 98.5853 26.0942 98.2906 25.8769C97.9958 25.6596 97.6856 25.4578 97.3754 25.2871C96.755 24.9456 96.1811 24.7282 95.6537 24.6196C95.1263 24.5109 94.6765 24.4954 94.2887 24.5109C93.5287 24.5575 93.0789 24.7593 93.0789 24.7593C93.0789 24.7593 93.203 24.9456 93.4046 25.2405C93.6062 25.5354 93.932 25.939 94.2887 26.4047C94.6455 26.8704 95.0798 27.3671 95.5761 27.8483C96.057 28.3295 96.5844 28.7952 97.1738 29.1522C97.4685 29.323 97.7632 29.4782 98.0269 29.6024C98.3061 29.7266 98.5853 29.8197 98.8645 29.8973C99.4073 30.037 99.9037 30.0991 100.354 30.0991C100.788 30.0991 101.16 30.0681 101.408 30.037C101.47 30.037 101.501 30.0215 101.563 30.006C102.618 31.9463 103.58 33.9798 104.355 36.0909C104.092 35.6563 103.812 35.2216 103.487 34.787C103.27 34.4921 102.99 34.2282 102.727 33.9643C102.463 33.7004 102.184 33.4675 101.889 33.2502C101.315 32.8156 100.71 32.5672 100.152 32.3965C99.609 32.2257 99.1126 32.1636 98.6783 32.1636C97.8252 32.1326 97.2823 32.3189 97.2823 32.3189C97.2823 32.3189 97.5926 33.1105 98.182 34.0729C98.3371 34.3213 98.4767 34.5852 98.6473 34.8335C98.8179 35.0974 99.0041 35.3613 99.2057 35.6252C99.4073 35.8891 99.64 36.1375 99.8572 36.3858C100.09 36.6342 100.338 36.867 100.602 37.0843C101.16 37.5035 101.734 37.8139 102.277 38.0312C102.82 38.2486 103.363 38.3883 103.828 38.4659C104.417 38.559 104.883 38.5745 105.162 38.5745C105.255 38.9005 105.379 39.211 105.457 39.5369C105.937 41.3065 106.248 43.1227 106.465 44.9544C106.434 44.8457 106.403 44.7371 106.356 44.6284C106.248 44.3024 106.108 43.9609 105.922 43.6349C105.581 42.983 105.146 42.3466 104.65 41.8188C103.549 40.7788 102.37 40.3596 101.455 40.2044C100.524 40.0492 99.8572 40.1423 99.8572 40.1423C99.8572 40.1423 99.8572 40.1889 99.8882 40.282C99.9037 40.3752 99.9502 40.4994 99.9968 40.6701C100.074 40.9961 100.183 41.4462 100.369 41.9585C100.447 42.2069 100.586 42.4863 100.695 42.7657C100.803 43.0451 100.927 43.3245 101.067 43.6194C101.222 43.8988 101.393 44.1938 101.579 44.4732C101.781 44.7526 101.967 45.0165 102.199 45.2803C102.649 45.7926 103.192 46.2117 103.735 46.5377C104.278 46.8637 104.79 47.112 105.27 47.2983C105.875 47.5311 106.372 47.6398 106.666 47.7019C106.682 48.1831 106.697 48.6643 106.697 49.1455C106.697 50.2476 106.666 51.3187 106.604 52.4208C106.573 52.9952 106.527 53.585 106.48 54.1594C106.48 54.0662 106.465 53.9886 106.449 53.8955C106.387 53.5384 106.294 53.1969 106.186 52.8244C106.077 52.4674 105.953 52.1104 105.798 51.7533C105.643 51.3963 105.441 51.0703 105.224 50.7444C104.79 50.1079 104.278 49.6112 103.766 49.2076C103.254 48.8195 102.696 48.5712 102.23 48.4004C101.284 48.0434 100.555 47.9813 100.555 47.9813C100.555 47.9813 100.555 48.1676 100.555 48.4936C100.555 48.6488 100.571 48.8506 100.602 49.0679C100.602 49.3007 100.617 49.5802 100.648 49.8751C100.679 50.17 100.71 50.4805 100.772 50.7909C100.834 51.1169 100.912 51.4429 101.005 51.7844C101.191 52.4519 101.455 53.1349 101.858 53.7558C102.246 54.3922 102.727 54.9044 103.254 55.3391C103.766 55.7737 104.309 56.1152 104.805 56.3636C105.395 56.674 105.891 56.8603 106.217 56.969C105.984 59.1111 105.643 61.2377 105.208 63.3333C105.208 63.2402 105.208 63.1625 105.208 63.0849C105.177 62.7279 105.131 62.3709 105.069 61.9983C105.007 61.6258 104.898 61.2532 104.759 60.8962C104.635 60.5237 104.464 60.1667 104.278 59.8252C104.092 59.4837 103.874 59.1732 103.626 58.8938C103.394 58.6144 103.13 58.366 102.866 58.1332C102.354 57.683 101.812 57.3415 101.331 57.0932C100.369 56.5809 99.578 56.4102 99.578 56.4102C99.578 56.4102 99.5314 56.6119 99.4694 56.969C99.4229 57.326 99.3608 57.8072 99.3608 58.3815C99.3298 58.9559 99.3608 59.5923 99.4694 60.2598C99.5314 60.6013 99.5935 60.9428 99.7021 61.2843C99.8106 61.6258 99.9502 61.9673 100.121 62.2933C100.493 62.9608 100.958 63.5506 101.47 64.0473C101.982 64.5441 102.541 64.9632 103.068 65.3047C103.688 65.7083 104.231 65.9722 104.572 66.1274C104.03 68.223 103.378 70.2875 102.618 72.2744C102.618 72.1813 102.634 72.1036 102.649 72.026C102.649 71.669 102.649 71.2965 102.634 70.9239C102.618 70.5514 102.541 70.1478 102.447 69.7597C102.339 69.3716 102.215 68.9836 102.044 68.611C101.718 67.8659 101.222 67.2295 100.695 66.7017C100.167 66.174 99.6245 65.7548 99.1126 65.4289C98.6008 65.1029 98.1354 64.8545 97.7942 64.6993C97.453 64.5441 97.2358 64.4665 97.2358 64.4665C97.2358 64.4665 97.1583 64.6527 97.0497 64.9787C96.9411 65.3047 96.817 65.7704 96.755 66.3137C96.7239 66.5931 96.6774 66.8725 96.6619 67.1829C96.6464 67.4934 96.6619 67.8194 96.6774 68.1609C96.7084 68.5024 96.755 68.8439 96.8325 69.1854C96.9101 69.5424 97.0342 69.8994 97.1893 70.2564C97.5305 70.986 97.9648 71.638 98.4612 72.2433C98.9575 72.8332 99.5159 73.361 100.028 73.7956C100.633 74.3079 101.16 74.6804 101.517 74.8977C101.191 75.6428 100.85 76.3879 100.478 77.102C99.8882 78.2662 99.2212 79.3838 98.5387 80.4704C98.5387 80.4238 98.5697 80.3928 98.5697 80.3617C98.6473 80.0047 98.7094 79.6477 98.7559 79.2596C98.7869 78.8716 98.8024 78.4835 98.7559 78.0799C98.7094 77.6763 98.6318 77.2727 98.5077 76.8691C98.3836 76.4655 98.213 76.0775 98.0269 75.7204C97.8252 75.3634 97.5926 75.0219 97.3599 74.6959C96.8791 74.075 96.3362 73.5472 95.8398 73.1126C94.8316 72.2589 93.963 71.8087 93.963 71.8087C93.963 71.8087 93.5752 72.4762 93.3736 73.5473C93.2495 74.0595 93.1564 74.6804 93.1719 75.3634C93.1719 75.7049 93.1875 76.0464 93.2495 76.419C93.296 76.7915 93.3891 77.1796 93.5132 77.5676C93.7458 78.3593 94.0871 79.0889 94.4749 79.7719C94.8781 80.4549 95.3125 81.0758 95.7312 81.6036C96.1966 82.1934 96.6154 82.6436 96.8946 82.923C95.9019 84.2735 94.8626 85.5774 93.7614 86.7416C93.4977 87.021 93.2185 87.2694 92.9548 87.5332C93.0944 87.2694 93.2185 86.9744 93.327 86.6795C93.4511 86.3225 93.5442 85.9344 93.6218 85.5463C93.6838 85.1583 93.6993 84.7391 93.6683 84.32C93.6062 83.4818 93.3736 82.7057 93.0323 82.0071C92.6911 81.2931 92.2723 80.6722 91.8535 80.1599C91.0314 79.1354 90.2714 78.5145 90.2714 78.5145C90.2714 78.5145 90.1628 78.6698 90.0232 78.9492C89.9457 79.0889 89.8681 79.2596 89.7905 79.4769C89.713 79.6787 89.6044 79.896 89.5269 80.1599C89.4338 80.4083 89.3562 80.6877 89.2787 80.9982C89.2477 81.1534 89.2166 81.3086 89.1701 81.4639C89.1391 81.6191 89.0926 81.7743 89.0615 81.9451C88.9995 82.271 88.953 82.6281 88.9374 83.0161C88.9374 83.2024 88.9374 83.3887 88.9374 83.5905C88.9374 83.7767 88.9374 83.9785 88.9374 84.1803C88.9685 84.972 89.1081 85.7636 89.2942 86.4777C89.4803 87.1917 89.6975 87.8437 89.9301 88.4025C90.1628 88.9769 90.3955 89.427 90.5816 89.753C89.0615 91.0259 87.4949 92.1435 85.9128 93.0904C86.0369 92.9507 86.161 92.8265 86.2696 92.6868C86.5022 92.3919 86.7039 92.0504 86.8745 91.7089C87.0451 91.3674 87.1847 90.9948 87.2933 90.6223C87.4949 89.8461 87.4794 89.07 87.3864 88.3715C87.2778 87.6574 87.0916 87.0365 86.8435 86.4622C86.3626 85.3445 85.8508 84.646 85.8508 84.646C85.8508 84.646 85.7267 84.7857 85.525 85.0496C85.432 85.1893 85.3079 85.329 85.1838 85.5153C85.0597 85.7016 84.9201 85.9034 84.765 86.1362C84.6254 86.369 84.4703 86.6329 84.3152 86.8968C84.1601 87.1607 84.005 87.4556 83.8654 87.7661C83.7103 88.0765 83.5862 88.4336 83.4466 88.7595C83.307 89.101 83.1829 89.4581 83.0743 89.8306C82.9657 90.2031 82.8882 90.5757 82.8106 90.9327C82.7486 91.2742 82.6865 91.6157 82.6555 91.9417C82.578 92.5937 82.578 93.199 82.609 93.7113C82.6245 94.1459 82.671 94.503 82.7331 94.7824C81.1199 95.543 79.5378 96.1484 78.0177 96.6296C78.2659 96.4743 78.4986 96.3036 78.7157 96.0863C78.9949 95.8224 79.2431 95.543 79.4758 95.248C79.6929 94.9531 79.879 94.6427 80.0186 94.3322C80.1582 94.0217 80.2513 93.6958 80.3289 93.3853C80.4685 92.7644 80.4995 92.1901 80.4685 91.6778C80.4064 90.6688 80.1738 90.0014 80.1738 90.0014C80.1738 90.0014 80.0031 90.11 79.7395 90.3429C79.6154 90.4515 79.4447 90.5912 79.2741 90.7464C79.088 90.9017 78.9019 91.1035 78.6847 91.3053C78.2504 91.6933 77.7696 92.159 77.2887 92.7023C77.0405 92.9507 76.7924 93.2146 76.5442 93.494C76.296 93.7734 76.0478 94.0528 75.8307 94.3632C75.3809 94.9531 75.0086 95.4654 74.7294 95.9466C74.4502 96.4278 74.2486 96.8469 74.109 97.2194C74.0314 97.3902 73.9849 97.5609 73.9384 97.7006C73.7988 97.7317 73.6592 97.7627 73.5196 97.7938C72.3717 98.0266 71.3015 98.1663 70.3398 98.2905C70.2623 98.2905 70.1847 98.306 70.1071 98.3215C70.2778 98.2439 70.4639 98.1663 70.619 98.0887C71.2239 97.7472 71.6893 97.3747 72.015 96.9555C72.3407 96.5519 72.5579 96.1484 72.713 95.7913C72.9922 95.0773 72.9922 94.5961 72.9922 94.5961C72.9922 94.5961 72.7905 94.6892 72.4648 94.8755C72.2942 94.9686 72.0926 95.0928 71.8599 95.217C71.6272 95.3412 71.379 95.5119 71.0998 95.6516C70.8207 95.7913 70.5259 95.9776 70.2002 96.1484C69.89 96.3191 69.5798 96.5054 69.2385 96.7072C68.5871 97.0797 67.9046 97.4367 67.2842 97.7938C67.129 97.8714 66.9894 97.9645 66.8343 98.0421C66.6947 98.1042 66.5551 98.1818 66.4311 98.2439C66.1984 98.3681 65.9657 98.4768 65.7486 98.5854C65.702 98.6009 65.671 98.6165 65.64 98.632C65.2367 98.632 64.8955 98.632 64.6783 98.632C64.4146 98.632 64.275 98.632 64.275 98.632H64.244C63.8562 98.632 63.5615 98.9425 63.5615 99.315C63.5615 99.6875 63.8873 99.9825 64.2595 99.9825C64.2595 99.9825 64.3991 99.9825 64.6783 99.9825C64.911 99.9825 65.2832 99.9825 65.7331 99.9669C65.7486 99.9669 65.7796 99.9825 65.7951 99.998C66.2294 100.169 66.7723 100.433 67.4703 100.665C67.8115 100.79 68.1993 100.914 68.5716 101.038C68.9593 101.162 69.3471 101.302 69.7504 101.411C70.1537 101.504 70.557 101.597 70.9447 101.69C71.3325 101.768 71.7203 101.861 72.077 101.923C72.4338 102 72.775 102.031 73.0853 102.063C73.3955 102.094 73.6592 102.125 73.8918 102.14C74.3416 102.187 74.6208 102.187 74.6208 102.187C74.6208 102.187 74.3882 101.737 73.7988 101.193C73.504 100.914 73.1163 100.634 72.6354 100.371C72.1546 100.122 71.5652 99.8583 70.8517 99.6875C70.6811 99.641 70.5259 99.6255 70.3553 99.5944C70.4174 99.5944 70.4794 99.5944 70.5259 99.5789C71.5186 99.4547 72.6044 99.284 73.7988 99.0356C73.9384 99.0045 74.0935 98.9735 74.2331 98.9425C74.3416 99.0511 74.4502 99.1753 74.6053 99.315C74.9 99.5634 75.2878 99.8583 75.8152 100.138C76.3426 100.417 76.994 100.728 77.8161 100.945C78.6227 101.147 79.5378 101.286 80.4219 101.348C81.3061 101.38 82.1902 101.348 82.9502 101.286C83.0278 101.286 83.0898 101.255 83.1674 101.255C83.8033 100.929 84.4238 100.572 85.0442 100.231C84.8426 100.029 84.5944 99.8117 84.2687 99.5634C83.8343 99.2374 83.307 98.8959 82.6865 98.6165C82.3763 98.4768 82.0506 98.3526 81.6938 98.2439C81.3371 98.1198 80.9648 98.0266 80.5615 97.949C80.1582 97.8714 79.7705 97.8403 79.3672 97.8248C79.0415 97.8248 78.7157 97.8248 78.4055 97.8248C79.9721 97.3126 81.6008 96.6761 83.276 95.8689C83.4776 96.0707 83.7568 96.3346 84.1291 96.614C84.5478 96.9245 85.0907 97.2505 85.7577 97.5144C86.0989 97.6541 86.4557 97.7783 86.859 97.8869C87.2623 97.9956 87.6811 98.0577 88.1464 98.0887C88.2705 98.0887 88.3946 98.0887 88.5342 98.0887C90.1938 96.9711 91.7915 95.7603 93.3115 94.4719C92.9083 94.3167 92.4895 94.1615 92.0396 94.0373C91.2796 93.82 90.4575 93.7113 89.5889 93.6958C89.1546 93.6958 88.7203 93.6958 88.3015 93.7579C87.8827 93.8044 87.4949 93.8976 87.0916 93.9752C86.89 94.0062 86.7194 94.0683 86.5177 94.1149C88.1309 93.1214 89.744 91.9572 91.2951 90.6223C91.6053 90.8396 92.0551 91.119 92.6446 91.3984C93.203 91.6623 93.901 91.9262 94.692 92.0969C95.0333 92.159 95.421 92.2056 95.8088 92.2366C97.4995 90.6223 99.1126 88.9303 100.602 87.1141C100.322 87.0676 100.028 87.0365 99.7331 87.021C98.8955 86.9589 97.9803 86.9744 97.0962 87.1452C96.6464 87.2228 96.2431 87.347 95.8088 87.4711C95.39 87.5953 95.0022 87.7506 94.63 87.9213C94.2887 88.0765 93.9785 88.2473 93.6683 88.4025C93.963 88.1076 94.2577 87.8282 94.5524 87.5177C95.6692 86.3069 96.7239 84.972 97.7166 83.5749C98.0889 83.7457 98.6783 83.963 99.4694 84.1648C100.121 84.32 100.896 84.4442 101.75 84.4597C102.06 84.4597 102.385 84.4287 102.711 84.3976C104.138 82.4418 105.441 80.3928 106.604 78.2506C106.17 78.2506 105.705 78.2817 105.239 78.3438C104.821 78.4059 104.402 78.4835 103.983 78.5921C103.549 78.7008 103.114 78.825 102.696 78.9957C102.261 79.1665 101.874 79.3528 101.501 79.5701C101.145 79.7874 100.772 80.0047 100.447 80.2531C100.121 80.4859 99.8106 80.7343 99.5314 80.9826C99.4694 81.0292 99.4384 81.0758 99.3763 81.1223C100.074 79.9892 100.741 78.8095 101.362 77.5832C101.734 76.8536 102.06 76.093 102.385 75.3324C102.789 75.4255 103.456 75.5342 104.278 75.5807C104.96 75.6118 105.736 75.5807 106.542 75.4255C107.147 75.3168 107.752 75.084 108.342 74.8046C109.303 72.6935 110.156 70.5358 110.87 68.285C110.761 68.285 110.668 68.3006 110.56 68.3161C109.939 68.4092 109.226 68.5645 108.497 68.8128C107.752 69.0612 107.023 69.4182 106.279 69.8994C105.906 70.1478 105.565 70.4117 105.255 70.6911C104.945 70.9705 104.666 71.2654 104.386 71.5603C104.107 71.8553 103.859 72.1502 103.642 72.4451C103.564 72.5383 103.518 72.6314 103.44 72.7401C104.2 70.6911 104.852 68.58 105.395 66.4223C105.767 66.4223 106.387 66.4223 107.147 66.3292C107.768 66.236 108.466 66.0808 109.164 65.7859C109.862 65.491 110.575 65.0718 111.165 64.482C111.475 64.187 111.739 63.8455 111.971 63.504C112.095 63.3178 112.188 63.116 112.297 62.9297C112.638 61.2998 112.902 59.6389 113.104 57.9624C112.762 58.0245 112.297 58.1177 111.739 58.3039L111.708 58.0711Z" fill="url(#paint0_linear_604_1832)"/>
<path d="M49.7716 98.462H49.7561C49.7561 98.462 49.6165 98.462 49.3528 98.462C49.1201 98.462 48.7944 98.462 48.3911 98.462C48.3601 98.4464 48.3291 98.4309 48.2825 98.4154C48.0654 98.3067 47.8327 98.1825 47.6 98.0739C47.4604 98.0118 47.3364 97.9342 47.1968 97.8721C47.0572 97.7945 46.9021 97.7013 46.7469 97.6237C46.1265 97.2667 45.444 96.9097 44.7771 96.5371C44.4513 96.3509 44.1256 96.1646 43.8154 95.9783C43.5052 95.8076 43.2104 95.6213 42.9312 95.4816C42.6521 95.3419 42.4039 95.1867 42.1712 95.047C41.9385 94.9228 41.7369 94.7986 41.5663 94.7055C41.2406 94.5192 41.0234 94.426 41.0234 94.426C41.0234 94.426 41.0234 94.9072 41.3026 95.6213C41.4422 95.9783 41.6594 96.3819 42.0006 96.7855C42.3263 97.2046 42.7917 97.5772 43.3966 97.9187C43.5517 98.0118 43.7378 98.0739 43.9084 98.1515C43.8309 98.1515 43.7533 98.1515 43.6758 98.1205C42.7141 97.9963 41.6438 97.8566 40.496 97.6237C40.3564 97.5927 40.2168 97.5616 40.0772 97.5306C40.0307 97.3909 39.9842 97.2357 39.9066 97.0494C39.767 96.6924 39.5654 96.2577 39.2862 95.7765C39.007 95.2953 38.6347 94.7831 38.1694 94.1932C37.9522 93.8983 37.7041 93.6033 37.4559 93.3239C37.2077 93.0445 36.9595 92.7806 36.7114 92.5323C36.2305 91.989 35.7342 91.5078 35.3154 91.1352C35.0982 90.9334 34.9121 90.7472 34.726 90.5764C34.5553 90.4212 34.3847 90.2815 34.2606 90.1728C33.9969 89.9555 33.8263 89.8313 33.8263 89.8313C33.8263 89.8313 33.5937 90.4988 33.5316 91.5078C33.5006 92.0045 33.5316 92.5944 33.6712 93.2153C33.7488 93.5257 33.8418 93.8362 33.9814 94.1622C34.121 94.4571 34.3072 94.7675 34.5243 95.078C34.757 95.3729 35.0051 95.6679 35.2843 95.9162C35.5015 96.1335 35.7342 96.2888 35.9668 96.4595C34.4623 95.9783 32.8801 95.3885 31.267 94.6123C31.3135 94.3329 31.3601 93.9759 31.3756 93.5412C31.4066 93.029 31.3911 92.4236 31.3291 91.7717C31.298 91.4457 31.2515 91.1042 31.1739 90.7627C31.1119 90.4057 31.0343 90.0331 30.9258 89.6606C30.8172 89.288 30.6931 88.931 30.5535 88.5895C30.4139 88.2635 30.2743 87.9065 30.1192 87.596C29.9796 87.2856 29.8245 86.9906 29.6694 86.7268C29.5143 86.4629 29.3592 86.199 29.2196 85.9661C29.08 85.7333 28.9404 85.516 28.8008 85.3452C28.6767 85.159 28.5526 85.0193 28.4595 84.8796C28.2734 84.6157 28.1493 84.476 28.1493 84.476C28.1493 84.476 27.6219 85.19 27.1566 86.2921C26.9239 86.8509 26.7223 87.4874 26.6137 88.2014C26.5207 88.8999 26.5051 89.6916 26.7068 90.4522C26.8154 90.8403 26.955 91.1973 27.1256 91.5388C27.2962 91.8803 27.4978 92.2218 27.7305 92.5167C27.8546 92.6564 27.9787 92.7806 28.0873 92.9203C26.5051 91.9734 24.9385 90.8558 23.4185 89.5829C23.5891 89.257 23.8373 88.8068 24.0699 88.2325C24.3026 87.6737 24.5197 87.0217 24.7059 86.3076C24.892 85.5781 25.0316 84.8019 25.0626 84.0103C25.0626 83.8085 25.0626 83.6222 25.0626 83.4359C25.0626 83.2341 25.0626 83.0479 25.0471 82.8616C25.0316 82.4891 24.9851 82.132 24.923 81.7905C24.892 81.6198 24.861 81.4646 24.8145 81.3093C24.7834 81.1541 24.7524 80.9834 24.7059 80.8437C24.6283 80.5487 24.5508 80.2538 24.4577 80.0054C24.3646 79.7571 24.2716 79.5397 24.194 79.3224C24.1165 79.1206 24.0389 78.9343 23.9613 78.7946C23.8217 78.5152 23.7132 78.36 23.7132 78.36C23.7132 78.36 22.9531 78.9809 22.1311 80.0054C21.7123 80.5177 21.2935 81.1386 20.9522 81.8526C20.611 82.5511 20.3783 83.3273 20.3163 84.1655C20.2853 84.5846 20.3008 85.0037 20.3628 85.3918C20.4249 85.7799 20.5334 86.1679 20.6575 86.525C20.7661 86.8199 20.8902 87.1148 21.0298 87.3787C20.7661 87.1148 20.4869 86.8665 20.2232 86.5871C19.1219 85.4073 18.0827 84.1189 17.09 82.7685C17.3847 82.4735 17.788 82.0389 18.2533 81.449C18.6721 80.9213 19.1064 80.3004 19.5097 79.6174C19.913 78.9343 20.2387 78.1893 20.4869 77.4131C20.611 77.0251 20.6885 76.637 20.7351 76.2644C20.7816 75.8919 20.7971 75.5504 20.8126 75.2089C20.8126 74.5259 20.7351 73.905 20.611 73.3927C20.3938 72.3372 20.0061 71.6542 20.0061 71.6542C20.0061 71.6542 19.1374 72.1043 18.1292 72.9581C17.6329 73.3772 17.09 73.905 16.6092 74.5414C16.361 74.8519 16.1438 75.1934 15.9422 75.5659C15.7561 75.9229 15.5854 76.311 15.4613 76.7146C15.3373 77.1182 15.2597 77.5218 15.2132 77.9254C15.1666 78.329 15.1821 78.7326 15.2132 79.1051C15.2442 79.4776 15.3062 79.8502 15.3838 80.2072C15.3838 80.2383 15.3993 80.2693 15.4148 80.3159C14.7323 79.2293 14.0809 78.1116 13.4915 76.9474C13.1192 76.2334 12.7935 75.4883 12.4522 74.7432C12.7935 74.5104 13.3208 74.1533 13.9413 73.6411C14.4531 73.2065 15.0115 72.6787 15.5079 72.0888C16.0042 71.499 16.454 70.8315 16.7798 70.1019C16.9349 69.7449 17.059 69.3723 17.152 69.0308C17.2296 68.6893 17.2761 68.3323 17.3071 68.0063C17.3382 67.6648 17.3537 67.3389 17.3227 67.0284C17.3227 66.718 17.2606 66.4385 17.2296 66.1591C17.1675 65.6158 17.028 65.1502 16.9349 64.8242C16.8263 64.4982 16.7488 64.3119 16.7488 64.3119C16.7488 64.3119 16.5316 64.3895 16.1904 64.5448C15.8491 64.7 15.3838 64.9328 14.8719 65.2743C14.3601 65.6003 13.8172 66.0194 13.2898 66.5472C12.7779 67.075 12.2661 67.7114 11.9404 68.4565C11.7697 68.829 11.6301 69.2171 11.5371 69.6052C11.444 69.9933 11.3665 70.3813 11.3509 70.7694C11.3199 71.1419 11.3199 71.5145 11.3509 71.8715C11.3509 71.9646 11.3665 72.0423 11.382 72.1199C10.6219 70.133 9.97047 68.084 9.42758 65.9729C9.76882 65.8176 10.3117 65.5538 10.9321 65.1502C11.444 64.8087 12.0179 64.4051 12.5298 63.8928C13.0416 63.3961 13.507 62.8062 13.8792 62.1387C14.0654 61.7972 14.1894 61.4558 14.298 61.1298C14.4066 60.7883 14.4686 60.4468 14.5307 60.1053C14.6548 59.4378 14.6548 58.7858 14.6393 58.227C14.6393 57.6527 14.5772 57.1559 14.5307 56.8144C14.4842 56.4574 14.4221 56.2556 14.4221 56.2556C14.4221 56.2556 13.6466 56.4264 12.6694 56.9386C12.1885 57.187 11.6456 57.5285 11.1338 57.9787C10.8701 58.2115 10.6219 58.4599 10.3738 58.7393C10.1411 59.0187 9.92393 59.3291 9.72229 59.6706C9.52065 60.0121 9.36554 60.3692 9.24145 60.7417C9.10185 61.1143 9.00879 61.4868 8.93123 61.8438C8.86919 62.2164 8.80714 62.5734 8.79163 62.9304C8.79163 63.0235 8.79163 63.1012 8.79163 63.1788C8.35733 61.0832 8.01609 58.9566 7.78342 56.8144C8.10915 56.7058 8.6055 56.5195 9.19492 56.2091C9.69127 55.9452 10.2342 55.6192 10.7615 55.1846C11.2734 54.7499 11.7542 54.2377 12.1575 53.6012C12.5763 52.9648 12.84 52.2973 13.0261 51.6299C13.1037 51.2884 13.1967 50.9624 13.2588 50.6364C13.3208 50.3104 13.3519 50 13.3829 49.7206C13.4139 49.4256 13.4294 49.1617 13.4449 48.9134C13.4604 48.6961 13.4759 48.4943 13.4915 48.339C13.4915 48.0131 13.4915 47.8268 13.4915 47.8268C13.4915 47.8268 12.7624 47.8889 11.8163 48.2459C11.3354 48.4322 10.7925 48.6805 10.2807 49.0531C9.76882 49.4412 9.25696 49.9379 8.82265 50.5898C8.6055 50.9158 8.41937 51.2573 8.24875 51.5988C8.09364 51.9403 7.96955 52.3129 7.86098 52.6699C7.7524 53.0269 7.65933 53.3839 7.59729 53.7409C7.58178 53.8341 7.58178 53.9117 7.56627 54.0048C7.51973 53.4305 7.4732 52.8406 7.44218 52.2663C7.38014 51.1797 7.36463 50.0931 7.34911 48.991C7.34911 48.5098 7.34911 48.0286 7.38014 47.5474C7.67484 47.4853 8.1712 47.3766 8.77612 47.1438C9.25696 46.9575 9.76882 46.7091 10.3117 46.3832C10.8546 46.0572 11.3975 45.6381 11.8473 45.1258C12.08 44.8619 12.2506 44.5981 12.4677 44.3186C12.6694 44.0392 12.84 43.7598 12.9796 43.4649C13.1347 43.1855 13.2588 42.8906 13.3519 42.6111C13.4604 42.3317 13.5845 42.0679 13.6776 41.804C13.8637 41.2917 13.9723 40.8416 14.0498 40.5156C14.0809 40.3448 14.1274 40.2206 14.1429 40.1275C14.1584 40.0344 14.1739 39.9878 14.1739 39.9878C14.1739 39.9878 13.5225 39.8947 12.5763 40.0499C11.6612 40.2051 10.4823 40.6242 9.38105 41.6643C8.8847 42.192 8.45039 42.8285 8.10915 43.4804C7.92302 43.8064 7.78342 44.1479 7.67484 44.4739C7.62831 44.5825 7.6128 44.6757 7.58178 44.7843C7.78342 42.9526 8.10915 41.152 8.58999 39.3824C8.68306 39.0564 8.79163 38.746 8.8847 38.42C9.1639 38.42 9.62922 38.42 10.2031 38.3114C10.6685 38.2337 11.2113 38.094 11.7542 37.8767C12.2816 37.6439 12.871 37.3489 13.4294 36.9298C13.7086 36.7125 13.9568 36.4797 14.1739 36.2313C14.3911 35.9829 14.6238 35.7191 14.8254 35.4707C15.027 35.2068 15.2287 34.9429 15.3838 34.679C15.5544 34.4151 15.694 34.1513 15.8491 33.9184C16.4385 32.956 16.7488 32.1643 16.7488 32.1643C16.7488 32.1643 16.1904 31.9936 15.3528 32.0091C14.9185 32.0091 14.4221 32.0867 13.8792 32.242C13.3363 32.3972 12.7159 32.6611 12.142 33.0957C11.8473 33.313 11.5681 33.5459 11.3044 33.8098C11.0407 34.0736 10.777 34.3375 10.5444 34.6325C10.2186 35.0671 9.93944 35.5017 9.67576 35.9364C10.4513 33.8253 11.413 31.7918 12.4677 29.8515C12.5143 29.8515 12.5453 29.867 12.6228 29.8825C12.871 29.9135 13.2433 29.9601 13.6776 29.9446C14.1119 29.9446 14.6238 29.8825 15.1666 29.7428C15.4458 29.6652 15.7095 29.572 15.9887 29.4479C16.2679 29.3237 16.5471 29.1685 16.8573 28.9977C17.4467 28.6407 17.9741 28.175 18.455 27.6938C18.9513 27.2126 19.3856 26.7159 19.7424 26.2502C20.0991 25.7845 20.4249 25.3809 20.6265 25.086C20.8436 24.791 20.9522 24.6048 20.9522 24.6048C20.9522 24.6048 20.5024 24.3875 19.7424 24.3564C19.3546 24.3409 18.9048 24.3564 18.3774 24.4651C17.85 24.5737 17.2761 24.791 16.6557 25.1325C16.3455 25.3033 16.0353 25.5051 15.7405 25.7224C15.4303 25.9397 15.1666 26.1881 14.8874 26.4365C14.4686 26.84 14.0654 27.2592 13.7241 27.6628C14.9495 25.6758 16.2834 23.8286 17.6639 22.0746C17.8655 22.1367 18.2223 22.2298 18.7186 22.2608C19.4942 22.3074 20.58 22.2143 21.7433 21.5778C22.3482 21.2674 22.9376 20.8638 23.465 20.4136C23.7287 20.1808 23.9924 19.979 24.2405 19.7462C24.4887 19.5288 24.7214 19.3115 24.9385 19.0942C25.1557 18.8769 25.3573 18.6751 25.528 18.4888C25.7141 18.3025 25.8692 18.1473 25.9933 18.0076C26.257 17.7282 26.3966 17.5575 26.3966 17.5575C26.3966 17.5575 26.0398 17.3557 25.3728 17.2936C25.0316 17.2625 24.6283 17.2625 24.132 17.3557C23.6511 17.4333 23.0927 17.6195 22.4568 17.899C22.1466 18.0542 21.8208 18.2094 21.5106 18.4112C21.2004 18.5975 20.8902 18.8148 20.5955 19.0321C20.3008 19.2494 20.0061 19.4823 19.7424 19.6996C19.5562 19.8393 19.4166 19.9945 19.2615 20.1342C19.7734 19.5444 20.3008 18.939 20.8281 18.3802C21.8829 17.2315 22.9686 16.1604 24.0544 15.1204C24.2095 15.1825 24.5197 15.2911 24.9696 15.3377C25.6365 15.3998 26.6292 15.3377 27.8236 14.7634C28.1183 14.6237 28.4285 14.4684 28.7232 14.2822C29.0179 14.1114 29.3126 13.9096 29.6073 13.7078C29.8865 13.506 30.1812 13.3042 30.4449 13.1024C30.7086 12.9006 30.9723 12.6988 31.2205 12.497C31.6858 12.109 32.1201 11.783 32.3993 11.5191C32.694 11.2707 32.8646 11.1155 32.8646 11.1155C32.8646 11.1155 32.601 10.9448 32.027 10.9137C31.7323 10.8982 31.3756 10.9137 30.9103 10.9758C30.4449 11.0534 29.9176 11.2087 29.2816 11.457C28.9714 11.5967 28.6457 11.7364 28.3199 11.9072C28.0097 12.0779 27.684 12.2642 27.3738 12.4505C27.0635 12.6367 26.7533 12.8385 26.4586 13.0248C26.257 13.1645 26.0553 13.3197 25.8692 13.4594C26.8154 12.6212 27.7615 11.7985 28.7077 11.0534C29.5918 10.3394 30.4604 9.6719 31.3291 9.03547C31.4531 9.09756 31.7013 9.17517 32.1046 9.20622C32.3993 9.23727 32.7716 9.22174 33.2214 9.14413C33.6712 9.06651 34.1831 8.89577 34.788 8.66292C35.0827 8.53874 35.3929 8.38352 35.7031 8.22829C36.0134 8.05754 36.3236 7.88679 36.6183 7.71604C36.9285 7.54529 37.2232 7.35901 37.5179 7.17274C37.8126 6.98647 38.0918 6.81572 38.3555 6.64497C39.4103 5.96197 40.1703 5.46524 40.1703 5.46524C40.1703 5.46524 39.9842 5.35658 39.4878 5.34106C39.2396 5.34106 38.8984 5.34106 38.4796 5.44972C38.0608 5.52733 37.5334 5.66704 36.8975 5.88435C36.5873 6.00854 36.2615 6.13272 35.9358 6.27242C35.6101 6.41213 35.2688 6.56736 34.9431 6.73811C34.3227 7.06408 33.7177 7.37454 33.1904 7.70051C35.3929 6.17929 37.4714 4.92194 39.3482 3.92849C39.4258 3.95954 39.6429 4.03715 40.0152 4.05267C40.2634 4.05267 40.6046 4.05267 41.0234 3.95953C41.4422 3.88192 41.9385 3.74222 42.559 3.54042C42.8692 3.43176 43.1794 3.30758 43.5052 3.1834C43.8309 3.05922 44.1566 2.93503 44.4823 2.79533C44.8081 2.67115 45.1338 2.54697 45.444 2.42278C45.7542 2.28308 46.0645 2.20547 46.3437 2.09681C46.4833 2.05024 46.6229 1.98815 46.7625 1.9571C46.9021 1.92606 47.0261 1.87949 47.1347 1.84844C47.3674 1.78635 47.5845 1.70874 47.7552 1.69322C48.0964 1.63112 48.298 1.58456 48.298 1.58456C48.298 1.58456 48.205 1.52247 47.8017 1.46037C47.6 1.41381 47.3053 1.41381 46.9021 1.42933C46.7935 1.42933 46.6849 1.42933 46.5763 1.42933C46.4522 1.42933 46.3281 1.46037 46.2041 1.4759C45.9404 1.52247 45.6457 1.55351 45.3354 1.6156C44.9942 1.69322 44.653 1.78635 44.3272 1.86397C43.986 1.9571 43.6448 2.08128 43.288 2.18994C42.9468 2.2986 42.6055 2.42278 42.2798 2.54697C41.9541 2.67115 41.6283 2.79533 41.3336 2.91951C41.1785 2.9816 41.0544 3.04369 40.8993 3.10578C41.4112 2.85742 41.9075 2.62458 42.3729 2.42278C44.1721 1.63112 45.6457 1.16544 46.6849 0.948124C47.1968 0.839465 47.6 0.792897 47.8792 0.761851C48.1584 0.761851 48.298 0.746329 48.298 0.746329C48.298 0.746329 48.1584 0.746329 47.8792 0.746329C47.6156 0.777374 47.2123 0.80842 46.6849 0.917079C45.6457 1.11887 44.1721 1.58456 42.3573 2.36069C41.9385 2.54697 41.5042 2.73324 41.0389 2.95056C41.132 2.90399 41.194 2.87294 41.2871 2.82638C41.5663 2.67115 41.8765 2.53144 42.1867 2.37622C42.4969 2.22099 42.8227 2.05024 43.1639 1.89501C43.4896 1.73978 43.8154 1.58456 44.1566 1.42933C44.4668 1.28962 44.7926 1.14992 45.1183 1.01022C45.4285 0.886033 45.7232 0.777374 45.9714 0.684238C46.0955 0.637669 46.2196 0.591101 46.3281 0.544533C46.4367 0.513488 46.5453 0.466919 46.6539 0.435874C47.0727 0.296169 47.3829 0.18751 47.6311 0.125419C48.1119 0.00123729 48.2515 -0.0918991 48.2515 -0.0918991C48.2515 -0.0918991 47.9723 -0.0918991 47.5225 -0.107422C47.2898 -0.107422 47.0261 -0.0763764 46.7314 -0.0608537C46.5763 -0.0608537 46.4212 -0.0298082 46.2661 -0.0142855C46.111 0.00123728 45.9404 0.0478055 45.7698 0.078851C45.4285 0.140942 45.0718 0.203033 44.715 0.311692C44.3583 0.404828 43.986 0.513488 43.6292 0.637669C43.2725 0.761851 42.9157 0.901556 42.5745 1.04126C42.2333 1.18097 41.923 1.35172 41.6128 1.50694C41.0079 1.8174 40.5736 2.14338 40.2479 2.43831C39.9221 2.71772 39.705 2.96608 39.5654 3.1834C39.3637 3.49385 39.3172 3.69565 39.3017 3.78878C37.3938 4.78224 35.2688 6.03958 33.0197 7.56081C33.5161 7.15722 34.1055 6.73811 34.6484 6.27242C34.9276 6.0551 35.2068 5.82226 35.5015 5.5739C35.7807 5.34106 36.0444 5.10822 36.2926 4.8909C36.7889 4.44074 37.1767 4.06819 37.4714 3.74222C37.7661 3.41624 37.9677 3.15235 38.1073 2.93503C38.3865 2.51592 38.4021 2.28308 38.4021 2.28308C38.4021 2.28308 38.1849 2.37622 37.7971 2.54697C37.4093 2.70219 36.8975 2.96608 36.3081 3.27653C36.0134 3.43176 35.7031 3.58699 35.3929 3.77326C35.0827 3.95954 34.757 4.16133 34.4468 4.36313C33.8108 4.76672 33.2369 5.24792 32.7406 5.7136C32.2442 6.17929 31.9185 6.62945 31.6858 7.01751C31.4531 7.40558 31.3291 7.74708 31.267 8.02649C31.1739 8.43008 31.205 8.69397 31.2205 8.81815C30.3519 9.45458 29.4677 10.1065 28.5681 10.8051C27.5909 11.5812 26.6137 12.4039 25.621 13.2732C25.8072 13.0714 25.9933 12.8696 26.1949 12.6523C26.4431 12.4039 26.6758 12.1245 26.9239 11.8606C27.1566 11.5812 27.4048 11.3018 27.6219 11.0224C27.8546 10.743 28.0718 10.4636 28.2734 10.1842C28.6767 9.62533 28.9404 9.12861 29.1575 8.70949C29.3592 8.29038 29.4832 7.93336 29.5453 7.65395C29.6694 7.07961 29.5918 6.78467 29.5918 6.78467C29.5918 6.78467 29.3902 6.90885 29.0334 7.1417C28.6922 7.37454 28.1958 7.68499 27.684 8.08858C27.4203 8.29038 27.1411 8.5077 26.8619 8.74054C26.5827 8.97338 26.3035 9.22174 26.0398 9.48563C25.5124 10.0134 25.0006 10.5722 24.6128 11.1466C23.8528 12.3108 23.6821 13.2732 23.7132 13.9407C23.7442 14.3908 23.8373 14.7013 23.8993 14.8565C22.798 15.881 21.7123 16.9521 20.6265 18.0852C20.0836 18.6596 19.5562 19.2494 19.0289 19.8548C19.153 19.6685 19.277 19.4823 19.4011 19.296C19.6028 19.0011 19.8044 18.6906 19.9905 18.3802C20.1767 18.0697 20.3628 17.7437 20.5334 17.4177C20.704 17.0918 20.8747 16.7813 21.0143 16.4553C21.2935 15.8189 21.4641 15.2446 21.5571 14.7478C21.6502 14.2666 21.6812 13.8475 21.6657 13.5215C21.6347 12.8541 21.4486 12.497 21.4486 12.497C21.4486 12.497 21.2624 12.6523 20.9367 12.9317C20.7816 13.0714 20.5955 13.2421 20.3783 13.4284C20.1767 13.6147 19.9595 13.8475 19.7269 14.0804C19.4942 14.3287 19.2615 14.5771 19.0134 14.8565C18.7652 15.1359 18.517 15.4153 18.3154 15.7413C17.8655 16.3622 17.4778 17.0297 17.1986 17.6816C16.6867 19.0321 16.7643 20.1032 16.9814 20.8172C17.1365 21.2984 17.3227 21.6244 17.4312 21.7952C16.0197 23.5337 14.6703 25.3809 13.4294 27.3523C13.6466 26.8711 13.8637 26.3744 14.0654 25.8155C14.1894 25.474 14.298 25.1015 14.4066 24.7445C14.5152 24.3875 14.6082 24.0304 14.6703 23.6734C14.8099 22.9594 14.8254 22.3229 14.8099 21.7952C14.7944 21.2519 14.7013 20.8017 14.5927 20.4292C14.3756 19.6996 14.0654 19.3115 14.0654 19.3115C14.0654 19.3115 13.8947 19.4978 13.6155 19.8238C13.3519 20.1497 12.9641 20.5999 12.5763 21.1587C12.204 21.7175 11.8008 22.385 11.4595 23.068C11.1338 23.7821 10.8856 24.5272 10.7615 25.2567C10.6219 25.9863 10.6995 26.6538 10.8236 27.2126C10.9477 27.7714 11.1493 28.2371 11.3665 28.6096C11.6456 29.0908 11.9404 29.4013 12.111 29.572C11.0252 31.5124 10.048 33.5614 9.22594 35.688C9.33452 35.1913 9.41207 34.6635 9.47412 34.1047C9.50514 33.7321 9.56718 33.3596 9.58269 32.9871C9.61371 32.6145 9.61371 32.2264 9.58269 31.8539C9.52065 31.0933 9.41207 30.4568 9.24145 29.898C9.07083 29.3392 8.85368 28.8735 8.62101 28.501C8.18671 27.7559 7.73689 27.3678 7.73689 27.3678C7.73689 27.3678 7.17849 28.2371 6.60459 29.51C6.46499 29.8204 6.3409 30.1774 6.21681 30.55C6.09273 30.9225 5.99966 31.2951 5.9066 31.6831C5.81353 32.0712 5.73597 32.4748 5.72046 32.8784C5.68944 33.282 5.70495 33.6856 5.72046 34.0736C5.79802 34.8498 5.99966 35.5017 6.30988 36.0606C6.60459 36.6038 6.96134 37.0385 7.30258 37.38C7.73689 37.8146 8.12466 38.0785 8.37284 38.2027C8.27977 38.5287 8.15568 38.8391 8.06262 39.1651C7.55076 40.9813 7.194 42.875 6.97685 44.7688C6.97685 44.6136 6.96134 44.4584 6.94583 44.3031C6.8993 43.9461 6.83725 43.5736 6.80623 43.201C6.71317 42.4559 6.54254 41.6798 6.26335 40.9347C5.79802 39.4756 4.99145 38.42 4.29346 37.7215C3.61097 37.0385 3.03707 36.728 3.03707 36.728C3.03707 36.728 3.02156 36.7901 2.97502 36.8988C2.92849 37.023 2.86645 37.1782 2.8044 37.3955C2.68032 37.8301 2.54072 38.4355 2.41663 39.1496C2.3701 39.5066 2.29254 39.8791 2.27703 40.2827C2.26152 40.6863 2.26152 41.0899 2.27703 41.509C2.29254 41.9281 2.33908 42.3473 2.41663 42.7509C2.47867 43.1544 2.63378 43.5736 2.78889 43.9461C3.11462 44.7067 3.53342 45.3121 3.98324 45.7933C4.43305 46.2745 4.97594 46.616 5.42576 46.8644C5.99966 47.1748 6.46499 47.3301 6.7597 47.4077C6.74419 47.9044 6.71317 48.3856 6.71317 48.8823C6.71317 49.9689 6.71316 51.071 6.77521 52.1732C6.80623 52.7941 6.85276 53.415 6.88379 54.0359C6.85276 53.9117 6.82174 53.803 6.77521 53.6633C6.66663 53.3218 6.55806 52.9648 6.41846 52.6233C6.27886 52.2663 6.10824 51.9093 5.92211 51.5678C5.73597 51.2263 5.54984 50.8848 5.31718 50.5588C4.86736 49.9068 4.33999 49.3946 3.81262 48.9599C3.30075 48.5408 2.78889 48.1838 2.32356 47.9354C1.40842 47.4232 0.679403 47.268 0.679403 47.268C0.679403 47.268 0.648381 47.5474 0.63287 47.9975C0.63287 48.2304 0.617359 48.4943 0.63287 48.8047C0.63287 49.0841 0.679403 49.4101 0.710425 49.7516C0.756958 50.0931 0.803491 50.4501 0.865535 50.8227C0.943089 51.1952 1.02064 51.5678 1.16024 51.9558C1.40842 52.7164 1.74966 53.4615 2.2305 54.129C2.71134 54.781 3.30075 55.2777 3.87466 55.6658C4.44857 56.0383 5.05349 56.3022 5.58087 56.473C6.10824 56.6437 6.58908 56.7368 6.93032 56.7834C7.00787 56.7834 7.05441 56.7834 7.11645 56.7989C7.3336 59.0032 7.65933 61.1763 8.09364 63.334C8.04711 63.2253 8.00057 63.1167 7.93853 63.008C7.78342 62.682 7.59729 62.3561 7.39565 62.0301C6.97685 61.3626 6.52703 60.6951 5.93762 60.1208C5.64291 59.8259 5.3482 59.562 5.02247 59.3291C4.71225 59.0963 4.41754 58.8945 4.10732 58.7238C3.48689 58.3667 2.88196 58.1184 2.35459 57.9476C1.79619 57.7613 1.31535 57.6682 0.989622 57.6061C1.19126 59.2826 1.45495 60.9435 1.79619 62.5734C1.90477 62.7752 1.99783 62.9615 2.12192 63.1477C2.35459 63.4892 2.61827 63.8152 2.92849 64.1257C3.51791 64.7155 4.23141 65.1346 4.92941 65.4296C5.6274 65.7245 6.32539 65.8797 6.94583 65.9729C7.70587 66.0815 8.3263 66.0815 8.69857 66.066C9.22594 68.2237 9.8774 70.3348 10.6529 72.3838C10.5909 72.2906 10.5289 72.1975 10.4513 72.0888C10.2342 71.7939 9.98598 71.499 9.70678 71.204C9.42758 70.9091 9.14839 70.6142 8.83817 70.3348C8.52795 70.0554 8.18671 69.7915 7.81444 69.5431C7.06992 69.0619 6.32539 68.7049 5.59638 68.4565C4.86736 68.2081 4.15386 68.0529 3.51791 67.9598C3.40933 67.9598 3.31627 67.9443 3.20769 67.9287C3.92119 70.164 4.7743 72.3372 5.73597 74.4483C6.32539 74.7432 6.93032 74.9605 7.53525 75.0692C8.34182 75.2244 9.13287 75.2555 9.79985 75.2244C10.6064 75.1934 11.2734 75.0692 11.6767 74.9761C12.0024 75.7367 12.3436 76.4973 12.7004 77.2269C13.3053 78.4531 13.9878 79.6173 14.6858 80.766C14.6238 80.7195 14.5927 80.6729 14.5307 80.6263C14.2515 80.378 13.9568 80.1296 13.6155 79.8968C13.2898 79.6639 12.9175 79.4466 12.5608 79.2138C12.1885 78.9964 11.7852 78.7946 11.3665 78.6394C10.9477 78.4687 10.4978 78.3445 10.0635 78.2358C9.64474 78.1272 9.22594 78.0496 8.80714 77.9875C8.3263 77.9254 7.87649 77.9099 7.42667 77.8943C8.58999 80.0365 9.90842 82.0855 11.3199 84.0413C11.6456 84.0724 11.9714 84.1034 12.2816 84.1034C13.1347 84.1034 13.9102 83.9792 14.5617 83.8085C15.3373 83.6067 15.9267 83.3894 16.3144 83.2186C17.3071 84.6157 18.3619 85.9506 19.4787 87.1614C19.7734 87.4719 20.0681 87.7513 20.3628 88.0462C20.0526 87.891 19.7424 87.7047 19.4011 87.5495C19.0289 87.3787 18.6411 87.2235 18.2223 87.0993C17.8035 86.9751 17.3847 86.851 16.9349 86.7733C16.0352 86.6026 15.1356 86.5871 14.298 86.6491C14.0033 86.6647 13.7241 86.7112 13.4294 86.7423C14.9185 88.5429 16.5316 90.2504 18.2223 91.8648C18.6101 91.8337 18.9978 91.8027 19.3391 91.7251C20.1301 91.5543 20.8281 91.2905 21.3865 91.0266C21.9759 90.7472 22.4258 90.4522 22.736 90.2504C24.2871 91.5854 25.9002 92.7496 27.5134 93.743C27.3272 93.6965 27.1411 93.6344 26.9395 93.6033C26.5517 93.5257 26.1639 93.4326 25.7451 93.386C25.3263 93.3394 24.9075 93.3084 24.4577 93.3239C23.5891 93.3239 22.767 93.4636 22.007 93.6654C21.5571 93.7896 21.1384 93.9448 20.7351 94.1001C22.2707 95.3885 23.8528 96.5992 25.5124 97.7169C25.6365 97.7169 25.7761 97.7169 25.9002 97.7169C26.3655 97.6858 26.7843 97.6082 27.1876 97.5151C27.5909 97.4064 27.9632 97.2822 28.2889 97.1425C28.9559 96.8631 29.4988 96.5371 29.9176 96.2422C30.2898 95.9628 30.569 95.7144 30.7707 95.4971C32.4458 96.3043 34.0745 96.9407 35.6411 97.453C35.3154 97.453 35.0051 97.453 34.6794 97.453C34.2916 97.453 33.8884 97.4995 33.4851 97.5772C33.0818 97.6548 32.7095 97.7479 32.3528 97.8721C31.996 97.9807 31.6703 98.1049 31.3601 98.2446C30.7396 98.524 30.2123 98.8655 29.778 99.1915C29.4522 99.4399 29.2041 99.6572 29.0024 99.859C29.6228 100.216 30.2433 100.558 30.8792 100.883C30.9568 100.883 31.0188 100.915 31.0964 100.915C31.8719 100.977 32.7561 101.008 33.6247 100.977C34.5243 100.915 35.4239 100.775 36.2305 100.573C37.0526 100.356 37.7041 100.061 38.2314 99.7659C38.7588 99.4865 39.1466 99.207 39.4413 98.9432C39.5964 98.819 39.7205 98.6793 39.8135 98.5706C39.9531 98.6017 40.1083 98.6327 40.2479 98.6637C41.4267 98.9121 42.528 99.0829 43.5207 99.207C43.5827 99.207 43.6292 99.207 43.7068 99.2226C43.5362 99.2536 43.3656 99.2691 43.2104 99.3157C42.4969 99.4865 41.923 99.7503 41.4267 99.9987C40.9303 100.247 40.5581 100.542 40.2479 100.821C39.6429 101.365 39.4258 101.815 39.4258 101.815C39.4258 101.815 39.6895 101.815 40.1548 101.768C40.3719 101.737 40.6511 101.722 40.9614 101.691C41.2716 101.66 41.5973 101.629 41.9696 101.551C42.3263 101.489 42.7141 101.396 43.1019 101.318C43.4896 101.225 43.8929 101.132 44.2962 101.039C44.6995 100.93 45.1028 100.79 45.4906 100.666C45.8783 100.542 46.2506 100.418 46.6073 100.294C47.3053 100.061 47.8482 99.7969 48.2825 99.6262C48.298 99.6262 48.3291 99.6106 48.3446 99.5951C48.7789 99.6106 49.1511 99.6106 49.3838 99.6106C49.663 99.6106 49.8026 99.6106 49.8026 99.6106C50.1904 99.6106 50.5006 99.3157 50.5006 98.9432C50.5006 98.5706 50.1904 98.2757 49.8181 98.2602L49.7716 98.462Z" fill="url(#paint1_linear_604_1832)"/>
</g>
<defs>
<linearGradient id="paint0_linear_604_1832" x1="63.546" y1="50.9927" x2="113.414" y2="50.9927" gradientUnits="userSpaceOnUse">
<stop stop-color="#965B00"/>
<stop offset="0.01" stop-color="#9A6002"/>
<stop offset="0.12" stop-color="#C5901A"/>
<stop offset="0.22" stop-color="#E5B32C"/>
<stop offset="0.3" stop-color="#F8C937"/>
<stop offset="0.35" stop-color="#FFD13B"/>
<stop offset="0.43" stop-color="#F6C735"/>
<stop offset="0.55" stop-color="#E1AD28"/>
<stop offset="0.71" stop-color="#BE8412"/>
<stop offset="0.82" stop-color="#A16100"/>
<stop offset="0.98" stop-color="#F6BC4C"/>
<stop offset="1" stop-color="#FFC654"/>
</linearGradient>
<linearGradient id="paint1_linear_604_1832" x1="0.586337" y1="0.00123748" x2="50.4541" y2="0.00123748" gradientUnits="userSpaceOnUse">
<stop stop-color="#965B00"/>
<stop offset="0.01" stop-color="#9A6002"/>
<stop offset="0.12" stop-color="#C5901A"/>
<stop offset="0.22" stop-color="#E5B32C"/>
<stop offset="0.3" stop-color="#F8C937"/>
<stop offset="0.35" stop-color="#FFD13B"/>
<stop offset="0.43" stop-color="#F6C735"/>
<stop offset="0.55" stop-color="#E1AD28"/>
<stop offset="0.71" stop-color="#BE8412"/>
<stop offset="0.82" stop-color="#A16100"/>
<stop offset="0.98" stop-color="#F6BC4C"/>
<stop offset="1" stop-color="#FFC654"/>
</linearGradient>
<clipPath id="clip0_604_1832">
<rect width="112.827" height="102" fill="white" transform="translate(0.587891)"/>
</clipPath>
</defs>
</svg>
