<svg width="121" height="84" viewBox="0 0 121 84" fill="none" xmlns="http://www.w3.org/2000/svg">
<path d="M28.0784 41.1858C21.1685 42.2058 13.4955 41.4408 7.54078 44.2479C1.35716 47.1625 -1.0055 53.4553 0.969982 58.7071C2.94546 63.9588 8.56102 68.1379 15.0386 70.6731C21.5133 73.2105 28.8245 74.2937 36.0679 75.0419C53.0135 76.791 70.8042 76.7952 86.5995 71.8997C102.395 67.002 115.811 56.4121 117.653 43.7295C118.323 39.1332 117.405 34.2902 114.098 30.3788C110.17 25.7319 103.319 22.8658 96.313 21.1672C83.0131 17.9407 66.7939 18.5751 55.0823 24.693C50.9759 26.8383 49.0202 29.8162 45.9736 32.6738C41.4376 36.9309 35.3049 40.1215 28.0728 41.1879L28.0784 41.1858Z" fill="#CAEDFF"/>
<path d="M88.1209 19.2436L85.1506 54.8846C85.0319 56.3093 84.0908 57.6433 82.5392 58.5811L38.5078 64.9856L40.1018 51.6687L42.0829 35.1527L42.5209 31.4857C42.5662 31.1064 42.911 30.7776 43.4197 30.6301L86.0861 18.2404C87.0893 17.9496 88.1831 18.487 88.1237 19.2394L88.1209 19.2436Z" fill="#C6C6C6"/>
<path d="M82.7306 58.487L45.7504 76.5857C44.4899 77.2032 43.0684 77.6457 41.562 77.8881L3.98554 83.9512C3.72836 83.9933 3.57858 83.7573 3.79619 83.654L40.4485 66.1264L82.3886 57.9959C82.821 57.9116 83.0923 58.3099 82.7278 58.4891L82.7306 58.487Z" fill="#D8D8D8"/>
<path d="M82.6754 56.4212L86.3776 20.2428C86.4172 19.8592 85.8605 19.5831 85.3489 19.7328L44.7032 31.5787C44.4489 31.6525 44.2737 31.819 44.251 32.0086L40.2012 64.6381L82.6754 56.4212Z" fill="#002331"/>
<path d="M82.675 56.424C83.6585 57.0014 83.5935 58.0657 82.5393 58.582L47.7777 75.6207C47.7777 75.6207 44.6378 77.1738 43.3915 77.5195C42.1452 77.8651 27.0394 80.2465 27.0394 80.2465L3.94691 83.9577C3.2008 84.0778 2.41796 83.9472 1.83577 83.6037L0.818359 83.0072L82.6722 56.4219L82.675 56.424Z" fill="#CECECE"/>
<path d="M82.675 56.4219L43.8069 75.4436C42.5465 76.0611 41.1249 76.5037 39.6186 76.746L0.818359 83.0072L38.5051 64.9844L82.6722 56.4219H82.675Z" fill="#EFEFEF"/>
<path d="M72.405 59.668L55.4566 68.5761L19.5645 74.6519L36.8125 66.2959L72.405 59.668Z" fill="#002331"/>
<path d="M42.394 71.1289L29.5322 77.7589L13.084 80.3131L25.2449 74.1678L42.394 71.1289Z" fill="#F9F9F9"/>
<path d="M25.4462 79.0021L25.5056 79.4362C25.5423 79.7018 25.2908 79.9441 24.9177 80.0053L18.6013 81.0442C18.2593 81.1011 17.9032 80.9894 17.7393 80.7724L17.3945 80.3129L25.4462 79V79.0021Z" fill="#F9F9F9"/>
<path d="M75.5244 61.3579L78.1697 60.0997C78.3506 60.0133 78.3986 59.8384 78.2743 59.7141C78.1499 59.5876 77.8984 59.556 77.7175 59.6424L75.0723 60.9005C74.8914 60.9869 74.8433 61.1619 74.9677 61.2862C75.092 61.4126 75.3436 61.4443 75.5244 61.3579Z" fill="#BCBCBC"/>
<path d="M71.3389 63.4321L73.9842 62.1739C74.1651 62.0875 74.2131 61.9126 74.0887 61.7883C73.9644 61.6618 73.7129 61.6302 73.532 61.7166L70.8867 62.9748C70.7058 63.0612 70.6578 63.2361 70.7821 63.3604C70.9065 63.4869 71.158 63.5185 71.3389 63.4321Z" fill="#BCBCBC"/>
<path d="M81.2305 57.9047C81.2305 58.1428 81.5103 58.3367 81.8522 58.3367C82.1942 58.3367 82.474 58.1428 82.474 57.9047C82.474 57.6665 82.1942 57.4727 81.8522 57.4727C81.5103 57.4727 81.2305 57.6665 81.2305 57.9047Z" fill="#BCBCBC"/>
<path d="M84.4703 21.6172L81.2033 53.8315L41.9961 61.5321L45.5853 32.8035L84.4703 21.6172Z" fill="#F2ECEB"/>
<path d="M46.9409 34.2718L81.0554 24.6914L80.8265 26.8958L46.7148 36.139L46.9409 34.2718Z" fill="#3D3BE2"/>
<path d="M46.8844 37.2843L81.0554 28.2539L80.8265 30.4583L46.7148 39.0651L46.8844 37.2843Z" fill="#3D3BE2"/>
<path d="M46.3145 45.2548L80.6268 37.3477L80.4007 39.552L45.916 47.2906L46.3145 45.2548Z" fill="#3D3BE2"/>
<path d="M45.8528 48.7347L80.1736 41.2891L79.9475 43.4934L45.4062 50.9138L45.8528 48.7347Z" fill="#3D3BE2"/>
<path d="M45.4281 51.9143L79.7461 44.4688L78.7513 52.8205L44.2129 59.1808L45.4281 51.9143Z" fill="#3D3BE2"/>
<path d="M46.7702 39.9739L66.0446 35.2891L65.7026 37.3248L46.6289 41.9254L46.7702 39.9739Z" fill="#3D3BE2"/>
<g style="mix-blend-mode:soft-light" opacity="0.6">
<path d="M70.8823 29.3154L69.4777 44.4848C69.4381 44.8936 69.065 45.2414 68.5394 45.3594L40.1055 51.6648L42.0866 35.1488L69.1498 28.3186C70.0401 28.0931 70.9501 28.6179 70.8823 29.3154Z" fill="black"/>
</g>
<path d="M30.6073 36.9526L28.4424 51.1968C28.3351 51.8965 29.2225 52.4486 30.1268 52.2484L66.635 44.1516C67.1607 44.0357 67.5366 43.6859 67.5733 43.2792L68.9807 28.1098C69.0457 27.4101 68.1357 26.8875 67.2455 27.1109L31.4947 36.1328C31.0114 36.255 30.6666 36.5733 30.6073 36.9526Z" fill="url(#paint0_linear_2044_2694)"/>
<path d="M31.6851 50.173L30.3145 49.918L30.3258 51.096L31.6851 50.173Z" fill="white"/>
<path opacity="0.3" d="M32.4434 50.0831L65.6195 42.707" stroke="white" stroke-width="2" stroke-linecap="round" stroke-linejoin="round"/>
<path d="M32.4448 50.3067C32.3346 50.3067 32.2329 50.254 32.199 50.1697C32.1566 50.0686 32.2357 49.9611 32.3714 49.9316L57.8435 44.2078C57.9791 44.1762 58.1232 44.2352 58.1628 44.3363C58.2052 44.4375 58.1261 44.545 57.9904 44.5745L32.5183 50.2983C32.4929 50.3046 32.4674 50.3067 32.4448 50.3067Z" fill="#00D7BE"/>
<path d="M91.96 54.2314C94.5401 52.6605 93.9382 48.927 90.6155 45.8923C87.2928 42.8576 82.5077 41.6709 79.9276 43.2417C77.3474 44.8125 77.9494 48.5461 81.2721 51.5808C84.5948 54.6155 89.3799 55.8022 91.96 54.2314Z" fill="#02A890"/>
<path d="M92.4066 53.8441C91.6181 54.3267 90.6063 54.5353 89.4957 54.5037C87.0765 54.4321 84.1571 53.2203 81.899 51.1571C78.6122 48.1519 77.965 44.487 80.452 42.9528C80.4605 42.9507 80.4633 42.9444 80.4718 42.9402C82.9786 41.4123 87.6841 42.6156 90.9794 45.6272C94.2747 48.6366 94.919 52.3162 92.4066 53.8441Z" fill="#00BEA9"/>
<path d="M84.291 46.6367L87.1454 50.9296L89.5957 47.2858L84.291 46.6367Z" fill="#FFFFFD"/>
<g style="mix-blend-mode:soft-light" opacity="0.4">
<path d="M92.4077 53.8441C91.6192 54.3267 90.6075 54.5353 89.4968 54.5037C89.7455 53.353 90.2938 52.253 90.6442 51.1128C91.0031 49.9348 91.1388 48.6619 90.5029 47.5491C89.819 46.3458 88.3409 45.4986 86.8176 44.8474C85.7917 44.4091 84.7178 44.036 83.6099 43.7262C82.7734 43.4944 81.3688 43.3764 80.4531 42.9528C80.4616 42.9507 80.4644 42.9444 80.4729 42.9402C82.9797 41.4123 87.6852 42.6156 90.9805 45.6272C94.2758 48.6366 94.9202 52.3162 92.4077 53.8441Z" fill="black"/>
</g>
<path d="M108.597 13.7711L106.079 14.4349L104.92 14.7384L98.8496 16.3379L97.1935 15.8258L74.5758 8.83755L73.2334 8.42238L68.3809 1.48047L105.471 12.8143L108.597 13.7711Z" fill="#082432"/>
<path d="M68.3828 1.4784L68.8887 0.839844L109.108 13.1979L108.599 13.7669L68.3828 1.4784Z" fill="#666672"/>
<path d="M72.8008 11.4954L75.8445 6.93067C75.8445 6.93067 81.1718 6.33848 87.5759 8.31737C93.98 10.2963 98.5103 13.8705 98.5103 13.8705L95.4495 18.4141L72.8036 11.4954H72.8008Z" fill="#666672"/>
<path d="M83.0601 16.8665C78.0747 15.3113 74.1492 13.4462 73.0696 12.226C72.7983 11.9183 72.7079 11.6506 72.8266 11.4399C73.4172 10.3925 78.9537 11.1196 85.191 13.0689C88.0878 13.973 90.6285 14.9804 92.457 15.9056C94.571 16.974 95.741 17.9329 95.4245 18.4935C94.8366 19.543 89.3002 18.8138 83.0601 16.8665Z" fill="#082432"/>
<g style="mix-blend-mode:soft-light" opacity="0.4">
<path d="M83.0608 16.8655C78.0754 15.3103 74.1499 13.4452 73.0703 12.225C73.1184 12.1955 73.1692 12.1681 73.2229 12.1428C74.5427 11.5 76.2808 12.0732 77.6543 12.6486C80.4522 13.8182 83.2501 14.9878 86.048 16.1574C87.0428 16.5726 88.063 16.9962 89.1878 17.1311C91.0531 17.3566 91.8755 16.7834 92.4577 15.9046C94.5717 16.973 95.7417 17.9319 95.4252 18.4925C94.8373 19.542 89.3009 18.8128 83.0608 16.8655Z" fill="black"/>
</g>
<g style="mix-blend-mode:soft-light" opacity="0.4">
<path d="M106.077 14.431L104.921 14.7366C104.726 13.5859 105.47 12.8125 105.47 12.8125L106.077 14.431Z" fill="black"/>
</g>
<path d="M107.238 12.623C107.238 12.623 104.98 19.116 111.489 21.8367L110.601 22.941C110.601 22.941 103.971 19.6934 105.599 12.1172L107.238 12.623Z" fill="#00BEA9"/>
<path d="M111.491 21.838C111.491 21.838 117.262 23.7874 120.023 23.7137L114.648 28.9717C113.585 26.9676 112.2 24.9571 110.604 22.9402L111.491 21.8359V21.838Z" fill="#02A890"/>
<path d="M110.335 23.8271C110.747 24.021 111.299 23.9262 111.559 23.6185L112.632 22.3414C112.892 22.0337 112.765 21.6227 112.353 21.4289C111.94 21.235 111.389 21.3298 111.129 21.6375L110.055 22.9146C109.795 23.2223 109.922 23.6332 110.335 23.8271Z" fill="#009179"/>
<path d="M119.183 24.4843L114.449 23.418L118.64 25.0744L119.183 24.4843Z" fill="#038E77"/>
<path d="M114.254 25.4609L115.978 27.6674L116.424 27.2312L114.254 25.4609Z" fill="#038E77"/>
<path d="M49.1533 11.1016H25.0491C22.5065 11.1016 20.4453 12.6386 20.4453 14.5346V19.2553C20.4453 21.1513 22.5065 22.6883 25.0491 22.6883H49.1533C51.696 22.6883 53.7572 21.1513 53.7572 19.2553V14.5346C53.7572 12.6386 51.696 11.1016 49.1533 11.1016Z" fill="#02A890"/>
<path d="M48.8243 11.918H25.2542C22.5789 11.918 20.4102 13.5352 20.4102 15.5301V21.1591C20.4102 23.154 22.5789 24.7713 25.2542 24.7713H48.8243C51.4996 24.7713 53.6683 23.154 53.6683 21.1591V15.5301C53.6683 13.5352 51.4996 11.918 48.8243 11.918Z" fill="#00BEA9"/>
<path d="M28.3164 22.5543L30.4812 29.61L33.7257 22.4531L28.3164 22.5543Z" fill="#00BEA9"/>
<path d="M50.8938 13.918H23.7656V15.8674H50.8938V13.918Z" fill="#FEFFFF"/>
<path d="M50.8938 20.3672H23.7656V22.3166H50.8938V20.3672Z" fill="#FEFFFF"/>
<path d="M37.6138 17.2109H23.7656V19.1603H37.6138V17.2109Z" fill="#FEFFFF"/>
<path d="M50.9663 17.2109H38.6387V19.1603H50.9663V17.2109Z" fill="#FEFFFF"/>
<path d="M113.536 36.2217C113.296 35.5578 112.912 34.9362 112.411 34.3798C111.677 33.5621 110.69 32.8793 109.532 32.3946C108.834 32.1038 108.076 31.8825 107.273 31.7476C106.677 31.6464 106.058 31.5938 105.42 31.5938C104.699 31.5938 104.001 31.6612 103.334 31.7876C102.593 31.9288 101.892 32.1417 101.245 32.4178C100.089 32.913 99.1031 33.6064 98.3767 34.4367C97.9556 34.9151 97.6222 35.4398 97.3904 35.9962C97.1445 36.5842 97.0117 37.2101 97.0117 37.8592C97.0117 38.2238 97.0541 38.5799 97.1332 38.9255C97.2802 39.5683 97.56 40.1774 97.95 40.7379C98.5605 41.6167 99.4394 42.3733 100.508 42.9486C101.276 43.3617 102.141 43.6799 103.071 43.8801C103.814 44.0424 104.603 44.1288 105.417 44.1288C105.948 44.1288 106.468 44.093 106.974 44.0213C108.02 43.8759 108.997 43.5851 109.871 43.1784C110.99 42.6578 111.931 41.9455 112.612 41.1046C113.101 40.5019 113.46 39.8338 113.655 39.1215C113.765 38.7148 113.824 38.2933 113.824 37.8613C113.824 37.2923 113.723 36.7422 113.533 36.2196L113.536 36.2217ZM105.371 34.6559C107.652 34.6559 109.503 36.0763 109.503 37.8276C109.503 39.5788 107.652 40.9972 105.371 40.9972C103.091 40.9972 101.24 39.5767 101.24 37.8276C101.24 36.0784 103.091 34.6559 105.371 34.6559Z" fill="#00BEA9"/>
<path d="M107.314 32.4866H103.307L103.417 30.2064C103.434 29.8692 103.804 29.6016 104.256 29.6016H106.365C106.817 29.6016 107.19 29.8692 107.204 30.2064L107.314 32.4866Z" fill="#00BEA9"/>
<path d="M101.865 32.8472L99.03 34.9609L96.9443 33.2897C96.6362 33.0431 96.6447 32.6575 96.964 32.4193L98.4534 31.3087C98.7728 31.0706 99.29 31.0621 99.6206 31.294L101.862 32.8493L101.865 32.8472Z" fill="#00BEA9"/>
<path d="M98.3534 35.9727V38.961L95.2955 38.8788C94.8433 38.8662 94.4844 38.5901 94.4844 38.2529V36.6808C94.4844 36.3436 94.8433 36.0654 95.2955 36.0548L98.3534 35.9727Z" fill="#00BEA9"/>
<path d="M98.8349 40.0352L101.669 42.1489L99.4283 43.7042C99.0977 43.9339 98.5805 43.9276 98.2611 43.6895L96.7718 42.5788C96.4524 42.3407 96.4411 41.955 96.752 41.7085L98.8377 40.0373L98.8349 40.0352Z" fill="#00BEA9"/>
<path d="M103.027 42.8633H107.035L106.925 45.1435C106.908 45.4807 106.537 45.7484 106.085 45.7484H103.977C103.525 45.7484 103.152 45.4807 103.138 45.1435L103.027 42.8633Z" fill="#00BEA9"/>
<path d="M108.82 42.4497L111.655 40.3359L113.741 42.0071C114.049 42.2537 114.04 42.6394 113.721 42.8775L112.231 43.9881C111.912 44.2263 111.395 44.2347 111.064 44.0029L108.823 42.4476L108.82 42.4497Z" fill="#00BEA9"/>
<path d="M111.984 39.168V36.1797L115.042 36.2619C115.494 36.2745 115.853 36.5506 115.853 36.8878V38.4599C115.853 38.7971 115.494 39.0753 115.042 39.0859L111.984 39.168Z" fill="#00BEA9"/>
<path d="M111.505 35.1067L108.67 32.993L110.911 31.4377C111.242 31.208 111.759 31.2143 112.078 31.4524L113.568 32.5631C113.887 32.8012 113.898 33.1869 113.587 33.4334L111.502 35.1046L111.505 35.1067Z" fill="#00BEA9"/>
<path d="M112.079 36.1802C111.859 35.7018 111.551 35.255 111.164 34.8504C110.709 34.3741 110.149 33.9569 109.51 33.6176C108.366 33.0106 106.964 32.6523 105.449 32.6523C101.577 32.6523 98.4375 34.9937 98.4375 37.8809C98.4375 38.7808 98.7427 39.6259 99.2769 40.3635C99.8223 41.1158 100.608 41.7565 101.555 42.2286C102.092 42.4962 102.68 42.7112 103.31 42.8608C103.982 43.021 104.703 43.1095 105.449 43.1095C105.995 43.1095 106.523 43.0631 107.032 42.9767C107.671 42.8671 108.278 42.6901 108.838 42.4604C110.013 41.9757 110.983 41.2465 111.621 40.3635C111.893 39.9883 112.105 39.5858 112.249 39.1622C112.387 38.7513 112.461 38.3235 112.461 37.8809C112.461 37.2866 112.328 36.7155 112.082 36.1823L112.079 36.1802ZM109.505 37.824C109.505 39.5753 107.654 40.9936 105.373 40.9936C103.092 40.9936 101.241 39.5732 101.241 37.824C101.241 36.0748 103.092 34.6523 105.373 34.6523C107.654 34.6523 109.505 36.0727 109.505 37.824Z" fill="#02A890"/>
<g style="mix-blend-mode:soft-light" opacity="0.4">
<path d="M105.317 33.4062C102.07 33.4062 99.4355 35.3704 99.4355 37.7918C99.4355 40.2133 102.07 42.1774 105.317 42.1774C108.564 42.1774 111.198 40.2133 111.198 37.7918C111.198 35.3704 108.564 33.4062 105.317 33.4062ZM105.325 40.9909C103.005 40.9909 101.123 39.5473 101.123 37.7644C101.123 35.9815 103.005 34.5379 105.325 34.5379C107.646 34.5379 109.528 35.9815 109.528 37.7644C109.528 39.5473 107.646 40.9909 105.325 40.9909Z" fill="black"/>
</g>
<path d="M105.363 33.543C102.17 33.543 99.584 35.4734 99.584 37.8527C99.584 40.232 102.173 42.1624 105.363 42.1624C108.554 42.1624 111.143 40.232 111.143 37.8527C111.143 35.4734 108.554 33.543 105.363 33.543ZM105.372 40.997C103.091 40.997 101.24 39.5766 101.24 37.8274C101.24 36.0782 103.091 34.6557 105.372 34.6557C107.653 34.6557 109.504 36.0761 109.504 37.8274C109.504 39.5787 107.653 40.997 105.372 40.997Z" fill="#00BEA9"/>
<path d="M20.1975 62.0738C19.9911 61.5027 19.6605 60.9716 19.2309 60.4932C18.6007 59.7914 17.7528 59.2056 16.7609 58.7904C16.1617 58.5396 15.5117 58.352 14.8249 58.2361C14.3134 58.1497 13.7821 58.1055 13.2338 58.1055C12.6177 58.1055 12.0157 58.1645 11.4449 58.272C10.809 58.3921 10.207 58.5754 9.65309 58.8136C8.66111 59.2372 7.81609 59.8336 7.19151 60.5459C6.83259 60.9568 6.54432 61.4057 6.34649 61.8841C6.13453 62.3899 6.02148 62.9273 6.02148 63.4837C6.02148 63.7956 6.05822 64.1011 6.12605 64.3983C6.25323 64.9504 6.49062 65.4731 6.82694 65.9536C7.34977 66.708 8.10436 67.3571 9.02286 67.8503C9.68135 68.2043 10.4246 68.4783 11.2244 68.6511C11.8631 68.7902 12.5386 68.864 13.2366 68.864C13.6917 68.864 14.1382 68.8323 14.5734 68.7712C15.4721 68.6469 16.3115 68.3982 17.0576 68.0484C18.0157 67.6016 18.8239 66.9904 19.4118 66.2697C19.8329 65.7534 20.1381 65.178 20.3048 64.5669C20.4009 64.217 20.4518 63.8546 20.4518 63.4858C20.4518 62.9989 20.3642 62.5269 20.2003 62.0759L20.1975 62.0738ZM13.1914 60.7292C15.1499 60.7292 16.7354 61.9473 16.7354 63.4499C16.7354 64.9525 15.1471 66.1707 13.1914 66.1707C11.2357 66.1707 9.64743 64.9525 9.64743 63.4499C9.64743 61.9473 11.2357 60.7292 13.1914 60.7292Z" fill="#00BEA9"/>
<path d="M14.8535 58.8669H11.4141L11.5073 56.9091C11.5215 56.6203 11.8408 56.3906 12.228 56.3906H14.0367C14.4239 56.3906 14.7433 56.6203 14.7574 56.9091L14.8507 58.8669H14.8535Z" fill="#00BEA9"/>
<path d="M10.1791 59.1779L7.74863 60.9903L5.95968 59.5573C5.69402 59.3444 5.7025 59.0157 5.97664 58.8091L7.25406 57.8566C7.5282 57.6521 7.9719 57.6458 8.25734 57.8439L10.1791 59.1779Z" fill="#00BEA9"/>
<path d="M7.16643 61.8594V64.4241L4.54094 64.3546C4.15375 64.344 3.8457 64.1059 3.8457 63.8172V62.4684C3.8457 62.1797 4.15375 61.9416 4.54094 61.931L7.16643 61.8615V61.8594Z" fill="#00BEA9"/>
<path d="M7.58262 65.3438L10.0131 67.1562L8.09133 68.4902C7.80589 68.6883 7.36501 68.6819 7.08804 68.4775L5.81062 67.525C5.53649 67.3205 5.52801 66.9897 5.79367 66.7768L7.58262 65.3438Z" fill="#00BEA9"/>
<path d="M11.1777 67.7695H14.6172L14.5239 69.7273C14.5098 70.0161 14.1904 70.2458 13.8032 70.2458H11.9945C11.6073 70.2458 11.288 70.0161 11.2738 69.7273L11.1806 67.7695H11.1777Z" fill="#00BEA9"/>
<path d="M16.1504 67.4179L18.5809 65.6055L20.3698 67.0385C20.6355 67.2514 20.627 67.5801 20.3529 67.7867L19.0755 68.7392C18.8013 68.9437 18.3576 68.95 18.0722 68.7519L16.1504 67.4179Z" fill="#00BEA9"/>
<path d="M18.8652 64.5999V62.0352L21.4907 62.1047C21.8779 62.1152 22.186 62.3534 22.186 62.6421V63.9909C22.186 64.2796 21.8779 64.5177 21.4907 64.5283L18.8652 64.5978V64.5999Z" fill="#00BEA9"/>
<path d="M18.4559 61.1114L16.0254 59.299L17.9472 57.965C18.2326 57.7669 18.6735 57.7732 18.9505 57.9777L20.2279 58.9302C20.502 59.1347 20.5105 59.4655 20.2448 59.6784L18.4559 61.1114Z" fill="#00BEA9"/>
<path d="M18.9442 62.038C18.7548 61.6271 18.4892 61.2435 18.1585 60.8979C17.7685 60.489 17.2881 60.1308 16.7398 59.8399C15.7563 59.3194 14.5552 59.0117 13.2552 59.0117C9.9316 59.0117 7.23828 61.0201 7.23828 63.4985C7.23828 64.2698 7.49829 64.9969 7.95895 65.6291C8.42526 66.274 9.10071 66.824 9.91465 67.2307C10.3753 67.4605 10.8812 67.6438 11.421 67.7724C12.0003 67.9114 12.6164 67.9852 13.2552 67.9852C13.7215 67.9852 14.1765 67.9452 14.6145 67.8714C15.1628 67.7766 15.6828 67.6269 16.1633 67.4288C17.1722 67.0137 18.0031 66.3878 18.5542 65.6291C18.7888 65.3067 18.9696 64.961 19.0912 64.5985C19.2099 64.2466 19.2749 63.8778 19.2749 63.4985C19.2749 62.9885 19.1618 62.4995 18.9498 62.0422L18.9442 62.038ZM16.737 63.4479C16.737 64.9505 15.1487 66.1686 13.193 66.1686C11.2373 66.1686 9.64899 64.9505 9.64899 63.4479C9.64899 61.9453 11.2373 60.7272 13.193 60.7272C15.1487 60.7272 16.737 61.9453 16.737 63.4479Z" fill="#02A890"/>
<g style="mix-blend-mode:soft-light" opacity="0.4">
<path d="M13.1393 59.6562C10.3527 59.6562 8.0918 61.3422 8.0918 63.4201C8.0918 65.4981 10.3527 67.184 13.1393 67.184C15.9259 67.184 18.1868 65.4981 18.1868 63.4201C18.1868 61.3422 15.9259 59.6562 13.1393 59.6562ZM13.145 66.164C11.1525 66.164 9.53879 64.9249 9.53879 63.3948C9.53879 61.8648 11.1525 60.6257 13.145 60.6257C15.1374 60.6257 16.7511 61.8648 16.7511 63.3948C16.7511 64.9249 15.1374 66.164 13.145 66.164Z" fill="black"/>
</g>
<path d="M13.1845 59.7734C10.446 59.7734 8.22461 61.4299 8.22461 63.472C8.22461 65.5141 10.446 67.1706 13.1845 67.1706C15.923 67.1706 18.1444 65.5141 18.1444 63.472C18.1444 61.4299 15.923 59.7734 13.1845 59.7734ZM13.1902 66.1695C11.2316 66.1695 9.64616 64.9514 9.64616 63.4488C9.64616 61.9462 11.2345 60.7281 13.1902 60.7281C15.1459 60.7281 16.7341 61.9462 16.7341 63.4488C16.7341 64.9514 15.1459 66.1695 13.1902 66.1695Z" fill="#00BEA9"/>
<path d="M103.667 56.7656H108.963V64.9889H97.9355V61.0395C97.9355 58.6813 100.502 56.7677 103.664 56.7677L103.667 56.7656Z" fill="url(#paint1_linear_2044_2694)"/>
<path d="M57.4287 0H62.7249V8.22324H51.6973V4.27389C51.6973 1.91566 54.2634 0.00210744 57.4259 0.00210744L57.4287 0Z" fill="url(#paint2_linear_2044_2694)"/>
<path d="M13.6778 39.6037H19.0757V44.1326C19.0757 46.2569 16.764 47.9807 13.9152 47.9807H7.8418V43.9555C7.8418 41.5531 10.4588 39.6016 13.6806 39.6016L13.6778 39.6037Z" fill="#3D3BE2"/>
<defs>
<linearGradient id="paint0_linear_2044_2694" x1="28.434" y1="39.6733" x2="68.9836" y2="39.6733" gradientUnits="userSpaceOnUse">
<stop stop-color="#FFD400"/>
<stop offset="1" stop-color="#FFBD00"/>
</linearGradient>
<linearGradient id="paint1_linear_2044_2694" x1="97.9355" y1="60.8772" x2="108.963" y2="60.8772" gradientUnits="userSpaceOnUse">
<stop stop-color="#FFD400"/>
<stop offset="1" stop-color="#FFBD00"/>
</linearGradient>
<linearGradient id="paint2_linear_2044_2694" x1="51.6973" y1="4.11162" x2="62.7249" y2="4.11162" gradientUnits="userSpaceOnUse">
<stop stop-color="#FFD400"/>
<stop offset="1" stop-color="#FFBD00"/>
</linearGradient>
</defs>
</svg>
